<?xml version="1.0" ?><!DOCTYPE svg  PUBLIC '-//W3C//DTD SVG 1.1//EN'  'http://www.w3.org/Graphics/SVG/1.1/DTD/svg11.dtd'><svg xmlns="http://www.w3.org/2000/svg" width="58.000" height="58.000" viewBox="-14.000 -33.000 58.000 58.000"><line x1="0.0" y1="0.0" x2="0.0" y2="0.0" stroke="none" fill="none" stroke-width="2.0" stroke-linecap="round"/><polyline points="0.0,0.0 9.0,-8.999999999999998 11.752823399122818,-10.839377789258258 15.0,-11.485281374238568 18.247176600877182,-10.839377789258256 21.0,-8.999999999999996 29.999999999999996,1.7763568394002505e-15" stroke="#ff6b6b" fill="none" stroke-width="2.5" stroke-linecap="round" stroke-linejoin="round"/><text x="8.0" y="-12" fill="#ff6b6b" stroke-width="0.0" font-family="Times New Roman" font-size="12.0pt">R</text><polyline points="0.0,0.0 8.999999999999998,8.999999999999998 11.752823399122816,10.839377789258258 14.999999999999996,11.48528137423857 18.24717660087718,10.839377789258258 20.999999999999996,8.999999999999998 29.999999999999993,-0.0" stroke="#1e90ff" fill="none" stroke-width="2.5" stroke-linecap="round" stroke-linejoin="round"/><text x="7.999999999999998" y="6" fill="#1e90ff" stroke-width="0.0" font-family="Times New Roman" font-size="12.0pt">L</text><polyline points="0.0,0.0 5.999999999999998,-1.3322676295501878e-15 14.999999999999996,-3.3306690738754696e-15 23.999999999999993,-5.329070518200751e-15 29.999999999999993,-6.661338147750939e-15" stroke="#000" fill="none" stroke-width="2.5" stroke-linecap="round" stroke-linejoin="round"/><polygon points="29.999999999999993,-6.661338147750939e-15 20.999999999999993,-5.000000000000005 22.999999999999993,-5.10702591327572e-15 20.999999999999993,4.999999999999995" stroke="#000" fill="#000" fill-rule="evenodd" stroke-linejoin="round"/></svg>