<?xml version="1.0" ?><!DOCTYPE svg  PUBLIC '-//W3C//DTD SVG 1.1//EN'  'http://www.w3.org/Graphics/SVG/1.1/DTD/svg11.dtd'><svg xmlns="http://www.w3.org/2000/svg" width="237.000" height="357.000" viewBox="-163.000 -283.000 237.000 357.000"><line x1="0.0" y1="0.0" x2="0.0" y2="0.0" stroke="none" fill="none" stroke-width="2.0" stroke-linecap="round"/><polyline points="0.0,0.0 6.0,-0.0 15.0,-0.0 24.0,-0.0 26.296100594190538,0.4567228049322794 28.242640687119284,1.7573593128807146 29.54327719506772,3.7038994058094605 30.0,5.999999999999998 30.0,14.999999999999995 30.0,23.999999999999993 29.54327719506772,26.29610059419053 28.242640687119284,28.242640687119277 26.296100594190538,29.543277195067713 24.0,29.999999999999993 15.000000000000004,29.999999999999993 6.000000000000007,29.999999999999993 3.7038994058094694,30.456722804932273 1.7573593128807237,31.75735931288071 0.4567228049322887,33.70389940580945 9.270362255620057e-15,35.999999999999986 8.770761894538737e-15,44.999999999999986 8.271161533457416e-15,53.999999999999986 -0.4567228049322711,56.29610059419052 -1.757359312880706,58.24264068711926 -3.7038994058094517,59.543277195067695 -5.999999999999989,59.99999999999997 -14.999999999999986,59.99999999999997 -23.999999999999982,59.99999999999997 -26.29610059419052,59.543277195067695 -28.242640687119266,58.24264068711926 -29.543277195067702,56.29610059419052 -29.999999999999982,53.999999999999986 -29.999999999999982,44.999999999999986 -29.999999999999982,35.999999999999986 -30.456722804932262,33.70389940580945 -31.7573593128807,31.757359312880705 -33.703899405809445,30.45672280493227 -35.999999999999986,29.99999999999999 -44.999999999999986,29.99999999999999 -53.999999999999986,29.99999999999999 -56.29610059419052,30.45672280493227 -58.24264068711926,31.757359312880705 -59.543277195067695,33.70389940580945" stroke="#000" fill="none" stroke-width="2.5" stroke-linecap="round" stroke-linejoin="round"/><polyline points="-59.543277195067695,33.70389940580945 -59.99999999999997,35.999999999999986 -59.99999999999997,44.999999999999986 -59.99999999999997,53.999999999999986 -60.45672280493225,56.29610059419052 -61.75735931288068,58.24264068711926 -63.70389940580942,59.543277195067695 -65.99999999999996,59.99999999999997 -74.99999999999996,59.99999999999997 -83.99999999999996,59.99999999999997 -86.29610059419049,59.543277195067695 -88.24264068711923,58.24264068711926 -89.54327719506767,56.29610059419052 -89.99999999999996,53.999999999999986 -89.99999999999996,44.999999999999986 -89.99999999999996,35.999999999999986 -89.54327719506767,33.70389940580945 -88.24264068711923,31.757359312880705 -86.29610059419049,30.45672280493227 -83.99999999999996,29.99999999999999 -74.99999999999996,29.99999999999999 -65.99999999999996,29.99999999999999 -63.70389940580942,29.54327719506771 -61.75735931288068,28.242640687119273 -60.45672280493225,26.296100594190527 -59.99999999999997,23.99999999999999 -59.99999999999997,14.999999999999993 -59.99999999999997,5.9999999999999964 -60.45672280493225,3.7038994058094588 -61.75735931288068,1.757359312880713 -63.70389940580942,0.45672280493227824 -65.99999999999996,-1.0547118733938987e-15 -74.99999999999996,-1.0547118733938987e-15 -83.99999999999996,-1.0547118733938987e-15 -86.29610059419049,-0.4567228049322803 -88.24264068711923,-1.757359312880715 -89.54327719506767,-3.7038994058094605 -89.99999999999996,-5.999999999999998 -89.99999999999996,-14.999999999999995 -89.99999999999996,-23.999999999999993 -90.45672280493224,-26.29610059419053 -91.75735931288068,-28.242640687119277 -93.70389940580942,-29.543277195067713" stroke="#000" fill="none" stroke-width="2.5" stroke-linecap="round" stroke-linejoin="round"/><polyline points="-93.70389940580942,-29.543277195067713 -95.99999999999996,-29.999999999999993 -104.99999999999996,-29.999999999999993 -113.99999999999996,-29.999999999999993 -116.29610059419049,-29.543277195067713 -118.24264068711923,-28.242640687119277 -119.54327719506767,-26.29610059419053 -119.99999999999996,-23.999999999999993 -119.99999999999996,-14.999999999999996 -119.99999999999996,-6.0 -120.45672280493224,-3.7038994058094623 -121.75735931288068,-1.7573593128807166 -123.70389940580942,-0.4567228049322818 -125.99999999999996,-2.4980018054066022e-15 -134.99999999999994,-2.4980018054066022e-15 -143.99999999999994,-2.4980018054066022e-15 -146.29610059419048,-0.45672280493228173 -148.24264068711923,-1.7573593128807166 -149.54327719506767,-3.7038994058094623 -149.99999999999994,-6.0 -149.99999999999994,-14.999999999999996 -149.99999999999994,-23.999999999999993 -149.54327719506767,-26.29610059419053 -148.24264068711923,-28.242640687119277 -146.29610059419048,-29.543277195067713 -143.99999999999994,-29.999999999999993 -134.99999999999994,-29.999999999999993 -125.99999999999994,-29.999999999999993 -123.70389940580941,-30.456722804932273 -121.75735931288067,-31.75735931288071 -120.45672280493223,-33.70389940580945 -119.99999999999994,-35.999999999999986 -119.99999999999994,-44.999999999999986 -119.99999999999994,-53.999999999999986 -119.54327719506766,-56.29610059419052 -118.24264068711922,-58.24264068711926 -116.29610059419048,-59.543277195067695 -113.99999999999994,-59.99999999999997 -104.99999999999994,-59.99999999999997 -95.99999999999994,-59.99999999999997 -93.70389940580941,-59.543277195067695 -91.75735931288067,-58.24264068711926 -90.45672280493223,-56.29610059419052" stroke="#000" fill="none" stroke-width="2.5" stroke-linecap="round" stroke-linejoin="round"/><polyline points="-90.45672280493223,-56.29610059419052 -89.99999999999994,-53.999999999999986 -89.99999999999994,-44.999999999999986 -89.99999999999994,-35.999999999999986 -89.54327719506766,-33.70389940580945 -88.24264068711922,-31.757359312880705 -86.29610059419048,-30.45672280493227 -83.99999999999994,-29.99999999999999 -74.99999999999994,-29.99999999999999 -65.99999999999994,-29.99999999999999 -63.70389940580941,-30.45672280493227 -61.757359312880666,-31.757359312880705 -60.456722804932234,-33.70389940580945 -59.99999999999996,-35.999999999999986 -59.99999999999996,-44.999999999999986 -59.99999999999996,-53.999999999999986 -60.456722804932234,-56.29610059419052 -61.757359312880666,-58.24264068711926 -63.70389940580941,-59.543277195067695 -65.99999999999994,-59.99999999999997 -74.99999999999994,-59.99999999999997 -83.99999999999994,-59.99999999999997 -86.29610059419048,-60.45672280493225 -88.24264068711922,-61.75735931288068 -89.54327719506766,-63.70389940580942 -89.99999999999994,-65.99999999999996 -89.99999999999994,-74.99999999999996 -89.99999999999994,-83.99999999999996 -89.54327719506766,-86.29610059419049 -88.24264068711922,-88.24264068711923 -86.29610059419048,-89.54327719506767 -83.99999999999994,-89.99999999999996 -74.99999999999994,-89.99999999999996 -65.99999999999994,-89.99999999999996 -63.70389940580941,-90.45672280493224 -61.757359312880666,-91.75735931288068 -60.456722804932234,-93.70389940580942 -59.99999999999996,-95.99999999999996 -59.99999999999996,-104.99999999999996 -59.99999999999996,-113.99999999999996 -60.456722804932234,-116.29610059419049 -61.757359312880666,-118.24264068711923 -63.70389940580941,-119.54327719506767" stroke="#000" fill="none" stroke-width="2.5" stroke-linecap="round" stroke-linejoin="round"/><polyline points="-63.70389940580941,-119.54327719506767 -65.99999999999994,-119.99999999999996 -74.99999999999994,-119.99999999999996 -83.99999999999994,-119.99999999999996 -86.29610059419048,-120.45672280493224 -88.24264068711922,-121.75735931288068 -89.54327719506766,-123.70389940580942 -89.99999999999994,-125.99999999999996 -89.99999999999994,-134.99999999999994 -89.99999999999994,-143.99999999999994 -90.45672280493223,-146.29610059419048 -91.75735931288067,-148.24264068711923 -93.70389940580941,-149.54327719506767 -95.99999999999994,-149.99999999999994 -104.99999999999994,-149.99999999999994 -113.99999999999994,-149.99999999999994 -116.29610059419048,-149.54327719506767 -118.24264068711922,-148.24264068711923 -119.54327719506766,-146.29610059419048 -119.99999999999994,-143.99999999999994 -119.99999999999994,-134.99999999999994 -119.99999999999994,-125.99999999999994 -120.45672280493223,-123.70389940580941 -121.75735931288067,-121.75735931288067 -123.70389940580941,-120.45672280493223 -125.99999999999994,-119.99999999999994 -134.99999999999994,-119.99999999999994 -143.99999999999994,-119.99999999999994 -146.29610059419048,-120.45672280493223 -148.24264068711923,-121.75735931288067 -149.54327719506767,-123.70389940580941 -149.99999999999994,-125.99999999999994 -149.99999999999994,-134.99999999999994 -149.99999999999994,-143.99999999999994 -149.54327719506767,-146.29610059419048 -148.24264068711923,-148.24264068711923 -146.29610059419048,-149.54327719506767 -143.99999999999994,-149.99999999999994 -134.99999999999994,-149.99999999999994 -125.99999999999994,-149.99999999999994 -123.70389940580941,-150.4567228049322 -121.75735931288067,-151.75735931288065 -120.45672280493223,-153.7038994058094" stroke="#000" fill="none" stroke-width="2.5" stroke-linecap="round" stroke-linejoin="round"/><polyline points="-120.45672280493223,-153.7038994058094 -119.99999999999994,-155.99999999999994 -119.99999999999994,-164.99999999999994 -119.99999999999994,-173.99999999999994 -119.54327719506766,-176.29610059419048 -118.24264068711922,-178.24264068711923 -116.29610059419048,-179.54327719506767 -113.99999999999994,-179.99999999999994 -104.99999999999994,-179.99999999999994 -95.99999999999994,-179.99999999999994 -93.70389940580941,-179.54327719506767 -91.75735931288067,-178.24264068711923 -90.45672280493223,-176.29610059419048 -89.99999999999994,-173.99999999999994 -89.99999999999994,-164.99999999999994 -89.99999999999994,-155.99999999999994 -89.54327719506766,-153.7038994058094 -88.24264068711922,-151.75735931288065 -86.29610059419048,-150.4567228049322 -83.99999999999994,-149.99999999999994 -74.99999999999994,-149.99999999999994 -65.99999999999994,-149.99999999999994 -63.70389940580941,-150.4567228049322 -61.757359312880666,-151.75735931288065 -60.456722804932234,-153.7038994058094 -59.99999999999996,-155.99999999999994 -59.99999999999996,-164.99999999999994 -59.99999999999996,-173.99999999999994 -59.54327719506768,-176.29610059419048 -58.24264068711925,-178.24264068711923 -56.296100594190506,-179.54327719506767 -53.99999999999997,-179.99999999999994 -44.99999999999997,-179.99999999999994 -35.99999999999997,-179.99999999999994 -33.70389940580944,-179.54327719506767 -31.75735931288069,-178.24264068711923 -30.456722804932255,-176.29610059419048 -29.999999999999975,-173.99999999999994 -29.999999999999975,-164.99999999999994 -29.999999999999975,-155.99999999999994 -30.456722804932255,-153.7038994058094 -31.75735931288069,-151.75735931288065 -33.70389940580944,-150.4567228049322" stroke="#000" fill="none" stroke-width="2.5" stroke-linecap="round" stroke-linejoin="round"/><polyline points="-33.70389940580944,-150.4567228049322 -35.99999999999997,-149.99999999999994 -44.99999999999997,-149.99999999999994 -53.99999999999997,-149.99999999999994 -56.296100594190506,-149.54327719506767 -58.24264068711925,-148.24264068711923 -59.54327719506768,-146.29610059419048 -59.99999999999996,-143.99999999999994 -59.99999999999996,-134.99999999999994 -59.99999999999996,-125.99999999999994 -59.54327719506768,-123.70389940580941 -58.24264068711925,-121.75735931288067 -56.296100594190506,-120.45672280493223 -53.99999999999997,-119.99999999999994 -44.99999999999997,-119.99999999999994 -35.99999999999997,-119.99999999999994 -33.70389940580944,-119.54327719506766 -31.75735931288069,-118.24264068711922 -30.456722804932255,-116.29610059419048 -29.999999999999975,-113.99999999999994 -29.999999999999975,-104.99999999999994 -29.999999999999975,-95.99999999999994 -29.543277195067695,-93.70389940580941 -28.24264068711926,-91.75735931288067 -26.296100594190513,-90.45672280493223 -23.999999999999975,-89.99999999999994 -14.999999999999979,-89.99999999999994 -5.999999999999982,-89.99999999999994 -3.7038994058094445,-90.45672280493223 -1.7573593128806988,-91.75735931288067 -0.456722804932264,-93.70389940580941 1.5265566588595902e-14,-95.99999999999994 1.5265566588595902e-14,-104.99999999999994 1.5265566588595902e-14,-113.99999999999994 -0.45672280493226397,-116.29610059419048 -1.7573593128806988,-118.24264068711922 -3.7038994058094445,-119.54327719506766 -5.999999999999982,-119.99999999999994 -14.999999999999979,-119.99999999999994 -23.999999999999975,-119.99999999999994 -26.296100594190513,-120.45672280493223 -28.24264068711926,-121.75735931288067 -29.543277195067695,-123.70389940580941" stroke="#000" fill="none" stroke-width="2.5" stroke-linecap="round" stroke-linejoin="round"/><polyline points="-29.543277195067695,-123.70389940580941 -29.999999999999975,-125.99999999999994 -29.999999999999975,-134.99999999999994 -29.999999999999975,-143.99999999999994 -29.543277195067695,-146.29610059419048 -28.24264068711926,-148.24264068711923 -26.296100594190513,-149.54327719506767 -23.999999999999975,-149.99999999999994 -14.999999999999979,-149.99999999999994 -5.999999999999982,-149.99999999999994 -3.7038994058094445,-150.4567228049322 -1.7573593128806988,-151.75735931288065 -0.456722804932264,-153.7038994058094 1.5265566588595902e-14,-155.99999999999994 1.5265566588595902e-14,-164.99999999999994 1.5265566588595902e-14,-173.99999999999994 0.4567228049322945,-176.29610059419048 1.7573593128807292,-178.24264068711923 3.7038994058094747,-179.54327719506767 6.000000000000012,-179.99999999999994 15.000000000000009,-179.99999999999994 24.000000000000007,-179.99999999999994 26.296100594190545,-179.54327719506767 28.24264068711929,-178.24264068711923 29.543277195067727,-176.29610059419048 30.000000000000007,-173.99999999999994 30.000000000000007,-164.99999999999994 30.000000000000007,-155.99999999999994 30.456722804932287,-153.7038994058094 31.757359312880723,-151.75735931288065 33.703899405809466,-150.4567228049322 36.0,-149.99999999999994 45.0,-149.99999999999994 54.0,-149.99999999999994 56.296100594190534,-150.4567228049322 58.24264068711928,-151.75735931288065 59.54327719506771,-153.7038994058094 59.999999999999986,-155.99999999999994 59.999999999999986,-164.99999999999994 59.999999999999986,-173.99999999999994 59.54327719506771,-176.29610059419048 58.24264068711928,-178.24264068711923 56.296100594190534,-179.54327719506767" stroke="#000" fill="none" stroke-width="2.5" stroke-linecap="round" stroke-linejoin="round"/><polyline points="56.296100594190534,-179.54327719506767 54.0,-179.99999999999994 45.0,-179.99999999999994 36.0,-179.99999999999994 33.703899405809466,-180.4567228049322 31.75735931288072,-181.75735931288065 30.456722804932284,-183.7038994058094 30.000000000000004,-185.99999999999994 30.000000000000004,-194.99999999999994 30.000000000000004,-203.99999999999994 30.456722804932284,-206.29610059419048 31.75735931288072,-208.24264068711923 33.703899405809466,-209.54327719506767 36.0,-209.99999999999994 45.0,-209.99999999999994 54.0,-209.99999999999994 56.296100594190534,-210.4567228049322 58.24264068711928,-211.75735931288065 59.54327719506771,-213.7038994058094 59.999999999999986,-215.99999999999994 59.999999999999986,-224.99999999999994 59.999999999999986,-233.99999999999994 59.54327719506771,-236.29610059419048 58.24264068711928,-238.24264068711923 56.296100594190534,-239.54327719506767 54.0,-239.99999999999994 45.0,-239.99999999999994 36.0,-239.99999999999994 33.703899405809466,-240.4567228049322 31.75735931288072,-241.75735931288065 30.456722804932284,-243.7038994058094 30.000000000000004,-245.99999999999994 30.000000000000004,-254.99999999999994 30.000000000000004,-263.99999999999994 29.543277195067724,-266.2961005941905 28.242640687119287,-268.2426406871192 26.29610059419054,-269.5432771950676 24.000000000000004,-269.9999999999999 15.000000000000007,-269.9999999999999 6.000000000000011,-269.9999999999999 3.703899405809473,-269.5432771950676 1.7573593128807272,-268.2426406871192 0.45672280493229245,-266.2961005941905" stroke="#000" fill="none" stroke-width="2.5" stroke-linecap="round" stroke-linejoin="round"/><polyline points="0.45672280493229245,-266.2961005941905 1.3156142841808105e-14,-263.99999999999994 1.3156142841808105e-14,-254.99999999999994 1.3156142841808105e-14,-245.99999999999994 1.3156142841808105e-14,-239.99999999999994" stroke="#000" fill="none" stroke-width="2.5" stroke-linecap="round" stroke-linejoin="round"/><polygon points="1.3156142841808105e-14,-239.99999999999994 5.000000000000013,-248.99999999999994 1.3156142841808105e-14,-246.99999999999994 -4.999999999999987,-248.99999999999994" stroke="#000" fill="#000" fill-rule="evenodd" stroke-linejoin="round"/></svg>