<?xml version="1.0" ?><!DOCTYPE svg  PUBLIC '-//W3C//DTD SVG 1.1//EN'  'http://www.w3.org/Graphics/SVG/1.1/DTD/svg11.dtd'><svg xmlns="http://www.w3.org/2000/svg" width="67.000" height="52.000" viewBox="-20.000 -31.000 67.000 52.000"><line x1="0.0" y1="0.0" x2="0.0" y2="0.0" stroke="none" fill="none" stroke-width="2.0" stroke-linecap="round"/><polygon points="0.0,0.0 0.0,0.0 0.0,0.0" fill="none" fill-rule="evenodd" stroke-linejoin="round"/><polyline points="0.0,0.0 0.0,-0.0 2.870265935501607e-17,-0.46874999999999967 5.740531871003214e-17,-0.9374999999999993 0.4687499999999997,-0.9374999999999993 0.9374999999999993,-0.9374999999999993 0.9374999999999993,-0.46874999999999967 0.9374999999999993,-0.0 1.4062499999999991,-0.0 1.8749999999999987,-0.0 1.8749999999999987,0.46874999999999967 1.8749999999999987,0.9374999999999993 1.4062499999999991,0.9374999999999994 0.9374999999999994,0.9374999999999996 0.9374999999999994,1.4062499999999991 0.9374999999999994,1.8749999999999987 1.4062499999999991,1.8749999999999987 1.8749999999999987,1.8749999999999987 1.8749999999999987,2.3437499999999982 1.8749999999999987,2.812499999999998 1.4062499999999991,2.812499999999998 0.9374999999999994,2.812499999999998 0.9374999999999993,2.3437499999999982 0.9374999999999992,1.8749999999999987 0.46874999999999956,1.8749999999999987 -1.1102230246251565e-16,1.8749999999999987 -8.23196431074996e-17,2.3437499999999982 -5.361698375248355e-17,2.812499999999998 -0.4687499999999997,2.812499999999998 -0.9374999999999993,2.812499999999998 -0.9374999999999993,3.2812499999999973 -0.9374999999999993,3.749999999999997 -0.46874999999999967,3.749999999999997 0.0,3.749999999999997 2.8702659355016057e-17,4.2187499999999964 5.740531871003211e-17,4.6874999999999964 -0.4687499999999996,4.6874999999999964 -0.9374999999999993,4.6874999999999964 -0.9374999999999994,4.2187499999999964 -0.9374999999999996,3.749999999999997 -1.4062499999999991,3.749999999999997 -1.8749999999999987,3.749999999999997 -1.8749999999999987,3.2812499999999973" stroke="#000" fill="none" stroke-linecap="round" stroke-linejoin="round"/><polyline points="-1.8749999999999987,3.2812499999999973 -1.8749999999999987,2.812499999999998 -1.4062499999999991,2.812499999999998 -0.9374999999999994,2.812499999999998 -0.9374999999999996,2.3437499999999982 -0.9374999999999997,1.8749999999999987 -1.4062499999999993,1.8749999999999987 -1.8749999999999991,1.8749999999999987 -1.8749999999999991,2.3437499999999982 -1.8749999999999991,2.812499999999998 -2.3437499999999987,2.812499999999998 -2.8124999999999982,2.812499999999998 -2.8124999999999982,2.3437499999999982 -2.8124999999999982,1.8749999999999987 -3.281249999999998,1.8749999999999987 -3.7499999999999973,1.8749999999999987 -3.7499999999999973,2.3437499999999982 -3.7499999999999973,2.812499999999998 -4.218749999999997,2.812499999999998 -4.687499999999997,2.812499999999998 -4.687499999999997,3.2812499999999973 -4.687499999999997,3.749999999999997 -4.218749999999997,3.749999999999997 -3.749999999999998,3.749999999999997 -3.749999999999998,4.2187499999999964 -3.749999999999998,4.6874999999999964 -4.218749999999997,4.6874999999999964 -4.687499999999997,4.6874999999999964 -4.687499999999997,4.2187499999999964 -4.687499999999997,3.749999999999997 -5.156249999999997,3.749999999999997 -5.624999999999997,3.749999999999997 -5.624999999999997,3.2812499999999973 -5.624999999999997,2.812499999999998 -5.156249999999997,2.812499999999998 -4.687499999999997,2.812499999999998 -4.687499999999997,2.3437499999999982 -4.687499999999997,1.8749999999999987 -5.156249999999997,1.8749999999999987 -5.624999999999997,1.8749999999999987 -5.624999999999997,1.4062499999999991 -5.624999999999997,0.9374999999999994 -5.156249999999997,0.9374999999999993" stroke="#000" fill="none" stroke-linecap="round" stroke-linejoin="round"/><polyline points="-5.156249999999997,0.9374999999999993 -4.687499999999997,0.9374999999999992 -4.687499999999997,1.406249999999999 -4.687499999999997,1.8749999999999987 -4.218749999999997,1.8749999999999984 -3.749999999999998,1.8749999999999982 -3.749999999999998,1.4062499999999987 -3.749999999999998,0.937499999999999 -3.2812499999999982,0.9374999999999989 -2.8124999999999987,0.9374999999999988 -2.8124999999999987,0.4687499999999991 -2.8124999999999987,-5.551115123125783e-16 -3.2812499999999982,-4.977061936025462e-16 -3.749999999999998,-4.4030087489251407e-16 -3.749999999999998,0.4687499999999992 -3.749999999999998,0.9374999999999989 -4.218749999999997,0.937499999999999 -4.687499999999997,0.9374999999999991 -4.687499999999997,0.46874999999999944 -4.687499999999997,-2.220446049250313e-16 -5.156249999999997,-1.6463928621499918e-16 -5.624999999999997,-1.0723396750496706e-16 -5.624999999999997,-0.4687499999999998 -5.624999999999997,-0.9374999999999994 -5.156249999999997,-0.9374999999999996 -4.687499999999997,-0.9374999999999997 -4.687499999999997,-1.4062499999999993 -4.687499999999997,-1.8749999999999991 -5.156249999999997,-1.8749999999999991 -5.624999999999997,-1.8749999999999991 -5.624999999999997,-1.4062499999999996 -5.624999999999997,-0.9374999999999999 -6.093749999999997,-0.9374999999999998 -6.562499999999997,-0.9374999999999997 -6.562499999999997,-1.4062499999999993 -6.562499999999997,-1.8749999999999991 -7.031249999999997,-1.8749999999999991 -7.499999999999997,-1.8749999999999991 -7.499999999999997,-1.4062499999999996 -7.499999999999997,-0.9374999999999999 -7.968749999999997,-0.9374999999999998 -8.437499999999996,-0.9374999999999997 -8.437499999999996,-0.46875" stroke="#000" fill="none" stroke-linecap="round" stroke-linejoin="round"/><polyline points="-8.437499999999996,-0.46875 -8.437499999999996,-3.3306690738754696e-16 -7.9687499999999964,-3.3306690738754696e-16 -7.4999999999999964,-3.3306690738754696e-16 -7.4999999999999964,0.46874999999999933 -7.4999999999999964,0.937499999999999 -7.9687499999999964,0.9374999999999991 -8.437499999999996,0.9374999999999992 -8.437499999999996,0.46874999999999956 -8.437499999999996,-1.1102230246251565e-16 -8.906249999999996,-5.361698375248353e-17 -9.374999999999996,3.788334957548597e-18 -9.374999999999996,-0.46874999999999967 -9.374999999999996,-0.9374999999999993 -8.906249999999996,-0.9374999999999994 -8.437499999999996,-0.9374999999999996 -8.437499999999996,-1.4062499999999991 -8.437499999999996,-1.8749999999999987 -8.906249999999996,-1.8749999999999987 -9.374999999999996,-1.8749999999999987 -9.374999999999996,-2.3437499999999982 -9.374999999999996,-2.812499999999998 -8.906249999999996,-2.812499999999998 -8.437499999999996,-2.812499999999998 -8.437499999999996,-2.3437499999999982 -8.437499999999996,-1.8749999999999987 -7.9687499999999964,-1.874999999999999 -7.4999999999999964,-1.8749999999999991 -7.4999999999999964,-2.3437499999999987 -7.4999999999999964,-2.8124999999999982 -7.0312499999999964,-2.8124999999999982 -6.5624999999999964,-2.8124999999999982 -6.5624999999999964,-3.281249999999998 -6.5624999999999964,-3.7499999999999973 -7.0312499999999964,-3.7499999999999973 -7.4999999999999964,-3.7499999999999973 -7.4999999999999964,-4.218749999999997 -7.4999999999999964,-4.687499999999997 -7.0312499999999964,-4.687499999999997 -6.5624999999999964,-4.687499999999997 -6.5624999999999964,-4.218749999999997 -6.5624999999999964,-3.749999999999998 -6.0937499999999964,-3.749999999999998" stroke="#000" fill="none" stroke-linecap="round" stroke-linejoin="round"/><polyline points="-6.0937499999999964,-3.749999999999998 -5.6249999999999964,-3.749999999999998 -5.6249999999999964,-3.2812499999999982 -5.6249999999999964,-2.8124999999999987 -6.0937499999999964,-2.8124999999999987 -6.5624999999999964,-2.8124999999999987 -6.5624999999999964,-2.343749999999999 -6.5624999999999964,-1.8749999999999996 -6.0937499999999964,-1.8749999999999998 -5.6249999999999964,-1.875 -5.6249999999999964,-2.3437499999999996 -5.6249999999999964,-2.812499999999999 -5.1562499999999964,-2.812499999999999 -4.6874999999999964,-2.812499999999999 -4.6874999999999964,-2.3437499999999996 -4.6874999999999964,-1.875 -4.2187499999999964,-1.8750000000000002 -3.749999999999997,-1.8750000000000004 -3.749999999999997,-2.34375 -3.749999999999997,-2.8124999999999996 -3.2812499999999973,-2.8124999999999996 -2.812499999999998,-2.8124999999999996 -2.812499999999998,-3.281249999999999 -2.812499999999998,-3.7499999999999987 -3.2812499999999973,-3.7499999999999987 -3.749999999999997,-3.7499999999999987 -3.749999999999997,-3.281249999999999 -3.749999999999997,-2.8124999999999996 -4.2187499999999964,-2.8124999999999996 -4.6874999999999964,-2.8124999999999996 -4.6874999999999964,-3.281249999999999 -4.6874999999999964,-3.7499999999999987 -5.1562499999999964,-3.7499999999999987 -5.6249999999999964,-3.7499999999999987 -5.6249999999999964,-4.218749999999998 -5.6249999999999964,-4.687499999999998 -5.1562499999999964,-4.687499999999998 -4.6874999999999964,-4.687499999999998 -4.6874999999999964,-5.156249999999998 -4.6874999999999964,-5.624999999999998 -5.1562499999999964,-5.624999999999998 -5.6249999999999964,-5.624999999999998 -5.6249999999999964,-6.093749999999998" stroke="#000" fill="none" stroke-linecap="round" stroke-linejoin="round"/><polyline points="-5.6249999999999964,-6.093749999999998 -5.6249999999999964,-6.562499999999998 -5.1562499999999964,-6.562499999999998 -4.6874999999999964,-6.562499999999998 -4.6874999999999964,-6.093749999999998 -4.6874999999999964,-5.624999999999998 -4.2187499999999964,-5.624999999999998 -3.749999999999997,-5.624999999999998 -3.749999999999997,-6.093749999999998 -3.749999999999997,-6.562499999999998 -3.2812499999999973,-6.562499999999998 -2.812499999999998,-6.562499999999998 -2.812499999999998,-7.031249999999998 -2.812499999999998,-7.499999999999998 -3.2812499999999973,-7.499999999999998 -3.749999999999997,-7.499999999999998 -3.749999999999997,-7.031249999999998 -3.749999999999997,-6.562499999999998 -4.2187499999999964,-6.562499999999998 -4.6874999999999964,-6.562499999999998 -4.6874999999999964,-7.031249999999998 -4.6874999999999964,-7.499999999999998 -5.1562499999999964,-7.499999999999998 -5.6249999999999964,-7.499999999999998 -5.6249999999999964,-7.968749999999998 -5.6249999999999964,-8.437499999999998 -5.1562499999999964,-8.437499999999998 -4.6874999999999964,-8.437499999999998 -4.6874999999999964,-8.906249999999998 -4.6874999999999964,-9.374999999999998 -5.1562499999999964,-9.374999999999998 -5.6249999999999964,-9.374999999999998 -5.6249999999999964,-8.906249999999998 -5.6249999999999964,-8.437499999999998 -6.0937499999999964,-8.437499999999998 -6.5624999999999964,-8.437499999999998 -6.5624999999999964,-8.906249999999998 -6.5624999999999964,-9.374999999999998 -7.0312499999999964,-9.374999999999998 -7.4999999999999964,-9.374999999999998 -7.4999999999999964,-8.906249999999998 -7.4999999999999964,-8.437499999999998 -7.9687499999999964,-8.437499999999998" stroke="#000" fill="none" stroke-linecap="round" stroke-linejoin="round"/><polyline points="-7.9687499999999964,-8.437499999999998 -8.437499999999996,-8.437499999999998 -8.437499999999996,-7.968749999999998 -8.437499999999996,-7.499999999999998 -7.9687499999999964,-7.499999999999998 -7.4999999999999964,-7.499999999999998 -7.4999999999999964,-7.031249999999998 -7.4999999999999964,-6.562499999999998 -7.9687499999999964,-6.562499999999998 -8.437499999999996,-6.562499999999998 -8.437499999999996,-7.031249999999998 -8.437499999999996,-7.499999999999998 -8.906249999999996,-7.499999999999998 -9.374999999999996,-7.499999999999998 -9.374999999999996,-7.968749999999998 -9.374999999999996,-8.437499999999998 -8.906249999999996,-8.437499999999998 -8.437499999999996,-8.437499999999998 -8.437499999999996,-8.906249999999998 -8.437499999999996,-9.374999999999998 -8.906249999999996,-9.374999999999998 -9.374999999999996,-9.374999999999998 -9.374999999999996,-9.843749999999998 -9.374999999999996,-10.312499999999998 -8.906249999999996,-10.312499999999998 -8.437499999999996,-10.312499999999998 -8.437499999999996,-9.843749999999998 -8.437499999999996,-9.374999999999998 -7.9687499999999964,-9.374999999999998 -7.4999999999999964,-9.374999999999998 -7.4999999999999964,-9.843749999999998 -7.4999999999999964,-10.312499999999998 -7.0312499999999964,-10.312499999999998 -6.5624999999999964,-10.312499999999998 -6.5624999999999964,-10.781249999999998 -6.5624999999999964,-11.249999999999998 -7.0312499999999964,-11.249999999999998 -7.4999999999999964,-11.249999999999998 -7.4999999999999964,-11.718749999999998 -7.4999999999999964,-12.187499999999998 -7.0312499999999964,-12.187499999999998 -6.5624999999999964,-12.187499999999998 -6.5624999999999964,-11.718749999999998" stroke="#000" fill="none" stroke-linecap="round" stroke-linejoin="round"/><polyline points="-6.5624999999999964,-11.718749999999998 -6.5624999999999964,-11.249999999999998 -6.0937499999999964,-11.249999999999998 -5.6249999999999964,-11.249999999999998 -5.6249999999999964,-10.781249999999998 -5.6249999999999964,-10.312499999999998 -6.0937499999999964,-10.312499999999998 -6.5624999999999964,-10.312499999999998 -6.5624999999999964,-9.843749999999998 -6.5624999999999964,-9.374999999999998 -6.0937499999999964,-9.374999999999998 -5.6249999999999964,-9.374999999999998 -5.6249999999999964,-9.843749999999998 -5.6249999999999964,-10.312499999999998 -5.1562499999999964,-10.312499999999998 -4.6874999999999964,-10.312499999999998 -4.6874999999999964,-9.843749999999998 -4.6874999999999964,-9.374999999999998 -4.2187499999999964,-9.374999999999998 -3.749999999999997,-9.374999999999998 -3.749999999999997,-9.843749999999998 -3.749999999999997,-10.312499999999998 -3.2812499999999973,-10.312499999999998 -2.812499999999998,-10.312499999999998 -2.812499999999998,-10.781249999999998 -2.812499999999998,-11.249999999999998 -3.2812499999999973,-11.249999999999998 -3.749999999999997,-11.249999999999998 -3.749999999999997,-11.718749999999998 -3.749999999999997,-12.187499999999998 -3.2812499999999973,-12.187499999999998 -2.812499999999998,-12.187499999999998 -2.812499999999998,-11.718749999999998 -2.812499999999998,-11.249999999999998 -2.3437499999999982,-11.249999999999998 -1.8749999999999987,-11.249999999999998 -1.8749999999999984,-10.781249999999998 -1.8749999999999982,-10.312499999999998 -2.343749999999998,-10.312499999999998 -2.8124999999999973,-10.312499999999998 -2.8124999999999973,-9.843749999999998 -2.8124999999999973,-9.374999999999998 -2.343749999999998,-9.374999999999998" stroke="#000" fill="none" stroke-linecap="round" stroke-linejoin="round"/><polyline points="-2.343749999999998,-9.374999999999998 -1.8749999999999982,-9.374999999999998 -1.874999999999998,-8.906249999999998 -1.8749999999999978,-8.437499999999998 -2.3437499999999973,-8.437499999999998 -2.812499999999997,-8.437499999999998 -2.812499999999997,-8.906249999999998 -2.812499999999997,-9.374999999999998 -3.2812499999999964,-9.374999999999998 -3.749999999999996,-9.374999999999998 -3.749999999999996,-8.906249999999998 -3.749999999999996,-8.437499999999998 -4.218749999999996,-8.437499999999998 -4.687499999999996,-8.437499999999998 -4.687499999999996,-7.968749999999998 -4.687499999999996,-7.499999999999998 -4.218749999999996,-7.499999999999998 -3.749999999999996,-7.499999999999998 -3.749999999999996,-7.968749999999998 -3.749999999999996,-8.437499999999998 -3.2812499999999964,-8.437499999999998 -2.812499999999997,-8.437499999999998 -2.812499999999997,-7.968749999999998 -2.812499999999997,-7.499999999999998 -2.3437499999999973,-7.499999999999998 -1.8749999999999978,-7.499999999999998 -1.8749999999999976,-7.031249999999998 -1.8749999999999973,-6.562499999999998 -2.343749999999997,-6.562499999999998 -2.8124999999999964,-6.562499999999998 -2.8124999999999964,-6.093749999999998 -2.8124999999999964,-5.624999999999998 -2.343749999999997,-5.624999999999998 -1.8749999999999973,-5.624999999999998 -1.8749999999999973,-6.093749999999998 -1.8749999999999973,-6.562499999999998 -1.4062499999999978,-6.562499999999998 -0.9374999999999981,-6.562499999999998 -0.937499999999998,-6.093749999999998 -0.9374999999999979,-5.624999999999998 -0.4687499999999982,-5.624999999999998 1.4432899320127035e-15,-5.624999999999998 1.3571819539476554e-15,-6.093749999999998" stroke="#000" fill="none" stroke-linecap="round" stroke-linejoin="round"/><polyline points="1.3571819539476554e-15,-6.093749999999998 1.2710739758826072e-15,-6.562499999999998 0.46875000000000094,-6.562499999999998 0.9375000000000007,-6.562499999999998 0.9375000000000006,-7.031249999999998 0.9375000000000004,-7.499999999999998 0.4687500000000008,-7.499999999999998 1.1102230246251565e-15,-7.499999999999998 1.1389256839801726e-15,-7.031249999999998 1.1676283433351886e-15,-6.562499999999998 -0.4687499999999985,-6.562499999999998 -0.9374999999999982,-6.562499999999998 -0.9374999999999983,-7.031249999999998 -0.9374999999999984,-7.499999999999998 -1.4062499999999982,-7.499999999999998 -1.8749999999999978,-7.499999999999998 -1.8749999999999978,-7.968749999999998 -1.8749999999999978,-8.437499999999998 -1.4062499999999982,-8.437499999999998 -0.9374999999999986,-8.437499999999998 -0.9374999999999987,-8.906249999999998 -0.9374999999999988,-9.374999999999998 -1.4062499999999984,-9.374999999999998 -1.8749999999999982,-9.374999999999998 -1.8749999999999982,-9.843749999999998 -1.8749999999999982,-10.312499999999998 -1.4062499999999987,-10.312499999999998 -0.937499999999999,-10.312499999999998 -0.9374999999999989,-9.843749999999998 -0.9374999999999988,-9.374999999999998 -0.4687499999999991,-9.374999999999998 5.551115123125783e-16,-9.374999999999998 4.690035342475301e-16,-9.843749999999998 3.828955561824819e-16,-10.312499999999998 0.46875000000000006,-10.312499999999998 0.9374999999999998,-10.312499999999998 0.9374999999999997,-10.781249999999998 0.9374999999999996,-11.249999999999998 0.4687499999999999,-11.249999999999998 2.220446049250313e-16,-11.249999999999998 1.359366268599831e-16,-11.718749999999998 4.982864879493491e-17,-12.187499999999998 0.4687499999999997,-12.187499999999998" stroke="#000" fill="none" stroke-linecap="round" stroke-linejoin="round"/><polyline points="0.4687499999999997,-12.187499999999998 0.9374999999999993,-12.187499999999998 0.9374999999999994,-11.718749999999998 0.9374999999999996,-11.249999999999998 1.4062499999999991,-11.249999999999998 1.8749999999999987,-11.249999999999998 1.874999999999999,-10.781249999999998 1.8749999999999991,-10.312499999999998 1.4062499999999996,-10.312499999999998 0.9374999999999999,-10.312499999999998 0.9375,-9.843749999999998 0.9375000000000001,-9.374999999999998 1.4062499999999998,-9.374999999999998 1.8749999999999996,-9.374999999999998 1.8749999999999996,-9.843749999999998 1.8749999999999996,-10.312499999999998 2.343749999999999,-10.312499999999998 2.8124999999999987,-10.312499999999998 2.8124999999999987,-9.843749999999998 2.8124999999999987,-9.374999999999998 3.2812499999999982,-9.374999999999998 3.749999999999998,-9.374999999999998 3.749999999999998,-9.843749999999998 3.749999999999998,-10.312499999999998 4.218749999999997,-10.312499999999998 4.687499999999997,-10.312499999999998 4.687499999999997,-10.781249999999998 4.687499999999997,-11.249999999999998 4.218749999999997,-11.249999999999998 3.749999999999998,-11.249999999999998 3.749999999999998,-10.781249999999998 3.749999999999998,-10.312499999999998 3.2812499999999982,-10.312499999999998 2.8124999999999987,-10.312499999999998 2.8124999999999987,-10.781249999999998 2.8124999999999987,-11.249999999999998 2.343749999999999,-11.249999999999998 1.8749999999999996,-11.249999999999998 1.8749999999999996,-11.718749999999998 1.8749999999999996,-12.187499999999998 2.343749999999999,-12.187499999999998 2.8124999999999987,-12.187499999999998 2.8124999999999987,-12.656249999999998" stroke="#000" fill="none" stroke-linecap="round" stroke-linejoin="round"/><polyline points="2.8124999999999987,-12.656249999999998 2.8124999999999987,-13.124999999999998 2.343749999999999,-13.124999999999998 1.8749999999999996,-13.124999999999998 1.8749999999999996,-13.593749999999998 1.8749999999999996,-14.062499999999998 2.343749999999999,-14.062499999999998 2.8124999999999987,-14.062499999999998 2.8124999999999987,-13.593749999999998 2.8124999999999987,-13.124999999999998 3.2812499999999982,-13.124999999999998 3.749999999999998,-13.124999999999998 3.749999999999998,-13.593749999999998 3.749999999999998,-14.062499999999998 4.218749999999997,-14.062499999999998 4.687499999999997,-14.062499999999998 4.687499999999997,-14.531249999999998 4.687499999999997,-14.999999999999998 4.218749999999997,-14.999999999999998 3.749999999999998,-14.999999999999998 3.749999999999998,-14.531249999999998 3.749999999999998,-14.062499999999998 3.2812499999999982,-14.062499999999998 2.8124999999999987,-14.062499999999998 2.8124999999999987,-14.531249999999998 2.8124999999999987,-14.999999999999998 2.343749999999999,-14.999999999999998 1.8749999999999996,-14.999999999999998 1.8749999999999996,-15.468749999999998 1.8749999999999996,-15.937499999999998 2.343749999999999,-15.937499999999998 2.8124999999999987,-15.937499999999998 2.8124999999999987,-16.406249999999996 2.8124999999999987,-16.874999999999996 2.343749999999999,-16.874999999999996 1.8749999999999996,-16.874999999999996 1.8749999999999996,-16.406249999999996 1.8749999999999996,-15.937499999999996 1.40625,-15.937499999999996 0.9375000000000003,-15.937499999999996 0.9375000000000002,-16.406249999999996 0.9375000000000001,-16.874999999999996 0.46875000000000044,-16.874999999999996" stroke="#000" fill="none" stroke-linecap="round" stroke-linejoin="round"/><polyline points="0.46875000000000044,-16.874999999999996 7.771561172376096e-16,-16.874999999999996 8.058587765926256e-16,-16.406249999999996 8.345614359476417e-16,-15.937499999999996 -0.46874999999999883,-15.937499999999996 -0.9374999999999984,-15.937499999999996 -0.9374999999999984,-15.468749999999996 -0.9374999999999984,-14.999999999999996 -0.4687499999999988,-14.999999999999996 8.881784197001252e-16,-14.999999999999996 9.168810790551413e-16,-14.531249999999996 9.455837384101573e-16,-14.062499999999996 -0.4687499999999987,-14.062499999999996 -0.9374999999999984,-14.062499999999996 -0.9374999999999986,-14.531249999999996 -0.9374999999999987,-14.999999999999996 -1.4062499999999982,-14.999999999999996 -1.8749999999999978,-14.999999999999996 -1.8749999999999978,-15.468749999999996 -1.8749999999999978,-15.937499999999996 -1.4062499999999982,-15.937499999999996 -0.9374999999999986,-15.937499999999996 -0.9374999999999987,-16.406249999999996 -0.9374999999999988,-16.874999999999996 -1.4062499999999984,-16.874999999999996 -1.8749999999999982,-16.874999999999996 -1.8749999999999982,-17.343749999999996 -1.8749999999999982,-17.812499999999996 -1.4062499999999987,-17.812499999999996 -0.937499999999999,-17.812499999999996 -0.9374999999999989,-17.343749999999996 -0.9374999999999988,-16.874999999999996 -0.4687499999999991,-16.874999999999996 5.551115123125783e-16,-16.874999999999996 4.690035342475301e-16,-17.343749999999996 3.828955561824819e-16,-17.812499999999996 0.46875000000000006,-17.812499999999996 0.9374999999999998,-17.812499999999996 0.9374999999999997,-18.281249999999996 0.9374999999999996,-18.749999999999996 0.4687499999999999,-18.749999999999996 2.220446049250313e-16,-18.749999999999996 1.359366268599831e-16,-19.218749999999996" stroke="#000" fill="none" stroke-linecap="round" stroke-linejoin="round"/><polyline points="1.359366268599831e-16,-19.218749999999996 4.982864879493491e-17,-19.687499999999996 0.4687499999999997,-19.687499999999996 0.9374999999999993,-19.687499999999996 0.9374999999999994,-19.218749999999996 0.9374999999999996,-18.749999999999996 1.4062499999999991,-18.749999999999996 1.8749999999999987,-18.749999999999996 1.874999999999999,-18.281249999999996 1.8749999999999991,-17.812499999999996 1.4062499999999996,-17.812499999999996 0.9374999999999999,-17.812499999999996 0.9375,-17.343749999999996 0.9375000000000001,-16.874999999999996 1.4062499999999998,-16.874999999999996 1.8749999999999996,-16.874999999999996 1.8749999999999996,-17.343749999999996 1.8749999999999996,-17.812499999999996 2.343749999999999,-17.812499999999996 2.8124999999999987,-17.812499999999996 2.8124999999999987,-17.343749999999996 2.8124999999999987,-16.874999999999996 3.2812499999999982,-16.874999999999996 3.749999999999998,-16.874999999999996 3.749999999999998,-17.343749999999996 3.749999999999998,-17.812499999999996 4.218749999999997,-17.812499999999996 4.687499999999997,-17.812499999999996 4.687499999999997,-18.281249999999996 4.687499999999997,-18.749999999999996 4.218749999999997,-18.749999999999996 3.749999999999998,-18.749999999999996 3.749999999999998,-19.218749999999996 3.749999999999998,-19.687499999999996 4.218749999999997,-19.687499999999996 4.687499999999997,-19.687499999999996 4.687499999999997,-19.218749999999996 4.687499999999997,-18.749999999999996 5.156249999999997,-18.749999999999996 5.624999999999997,-18.749999999999996 5.624999999999997,-18.281249999999996 5.624999999999997,-17.812499999999996 5.156249999999997,-17.812499999999996" stroke="#000" fill="none" stroke-linecap="round" stroke-linejoin="round"/><polyline points="5.156249999999997,-17.812499999999996 4.687499999999997,-17.812499999999996 4.687499999999997,-17.343749999999996 4.687499999999997,-16.874999999999996 5.156249999999997,-16.874999999999996 5.624999999999997,-16.874999999999996 5.624999999999997,-16.406249999999996 5.624999999999997,-15.937499999999996 5.156249999999997,-15.937499999999996 4.687499999999997,-15.937499999999996 4.687499999999997,-16.406249999999996 4.687499999999997,-16.874999999999996 4.218749999999997,-16.874999999999996 3.749999999999998,-16.874999999999996 3.749999999999998,-16.406249999999996 3.749999999999998,-15.937499999999996 3.2812499999999982,-15.937499999999996 2.8124999999999987,-15.937499999999996 2.8124999999999987,-15.468749999999996 2.8124999999999987,-14.999999999999996 3.2812499999999982,-14.999999999999996 3.749999999999998,-14.999999999999996 3.749999999999998,-15.468749999999996 3.749999999999998,-15.937499999999996 4.218749999999997,-15.937499999999996 4.687499999999997,-15.937499999999996 4.687499999999997,-15.468749999999996 4.687499999999997,-14.999999999999996 5.156249999999997,-14.999999999999996 5.624999999999997,-14.999999999999996 5.624999999999997,-14.531249999999996 5.624999999999997,-14.062499999999996 5.156249999999997,-14.062499999999996 4.687499999999997,-14.062499999999996 4.687499999999997,-13.593749999999996 4.687499999999997,-13.124999999999996 5.156249999999997,-13.124999999999996 5.624999999999997,-13.124999999999996 5.624999999999997,-13.593749999999996 5.624999999999997,-14.062499999999996 6.093749999999997,-14.062499999999996 6.562499999999997,-14.062499999999996 6.562499999999997,-13.593749999999996" stroke="#000" fill="none" stroke-linecap="round" stroke-linejoin="round"/><polyline points="6.562499999999997,-13.593749999999996 6.562499999999997,-13.124999999999996 7.031249999999997,-13.124999999999996 7.499999999999997,-13.124999999999996 7.499999999999997,-13.593749999999996 7.499999999999997,-14.062499999999996 7.968749999999997,-14.062499999999996 8.437499999999996,-14.062499999999996 8.437499999999996,-14.531249999999996 8.437499999999996,-14.999999999999996 7.9687499999999964,-14.999999999999996 7.4999999999999964,-14.999999999999996 7.4999999999999964,-15.468749999999996 7.4999999999999964,-15.937499999999996 7.9687499999999964,-15.937499999999996 8.437499999999996,-15.937499999999996 8.437499999999996,-15.468749999999996 8.437499999999996,-14.999999999999996 8.906249999999996,-14.999999999999996 9.374999999999996,-14.999999999999996 9.374999999999996,-14.531249999999996 9.374999999999996,-14.062499999999996 8.906249999999996,-14.062499999999996 8.437499999999996,-14.062499999999996 8.437499999999996,-13.593749999999996 8.437499999999996,-13.124999999999996 8.906249999999996,-13.124999999999996 9.374999999999996,-13.124999999999996 9.374999999999996,-12.656249999999996 9.374999999999996,-12.187499999999996 8.906249999999996,-12.187499999999996 8.437499999999996,-12.187499999999996 8.437499999999996,-12.656249999999996 8.437499999999996,-13.124999999999996 7.9687499999999964,-13.124999999999996 7.4999999999999964,-13.124999999999996 7.4999999999999964,-12.656249999999996 7.4999999999999964,-12.187499999999996 7.0312499999999964,-12.187499999999996 6.5624999999999964,-12.187499999999996 6.5624999999999964,-11.718749999999996 6.5624999999999964,-11.249999999999996 7.0312499999999964,-11.249999999999996" stroke="#000" fill="none" stroke-linecap="round" stroke-linejoin="round"/><polyline points="7.0312499999999964,-11.249999999999996 7.4999999999999964,-11.249999999999996 7.4999999999999964,-10.781249999999996 7.4999999999999964,-10.312499999999996 7.0312499999999964,-10.312499999999996 6.5624999999999964,-10.312499999999996 6.5624999999999964,-10.781249999999996 6.5624999999999964,-11.249999999999996 6.0937499999999964,-11.249999999999996 5.6249999999999964,-11.249999999999996 5.6249999999999964,-11.718749999999996 5.6249999999999964,-12.187499999999996 6.0937499999999964,-12.187499999999996 6.5624999999999964,-12.187499999999996 6.5624999999999964,-12.656249999999996 6.5624999999999964,-13.124999999999996 6.0937499999999964,-13.124999999999996 5.6249999999999964,-13.124999999999996 5.6249999999999964,-12.656249999999996 5.6249999999999964,-12.187499999999996 5.1562499999999964,-12.187499999999996 4.6874999999999964,-12.187499999999996 4.6874999999999964,-12.656249999999996 4.6874999999999964,-13.124999999999996 4.2187499999999964,-13.124999999999996 3.749999999999997,-13.124999999999996 3.749999999999997,-12.656249999999996 3.749999999999997,-12.187499999999996 3.2812499999999973,-12.187499999999996 2.812499999999998,-12.187499999999996 2.812499999999998,-11.718749999999996 2.812499999999998,-11.249999999999996 3.2812499999999973,-11.249999999999996 3.749999999999997,-11.249999999999996 3.749999999999997,-11.718749999999996 3.749999999999997,-12.187499999999996 4.2187499999999964,-12.187499999999996 4.6874999999999964,-12.187499999999996 4.6874999999999964,-11.718749999999996 4.6874999999999964,-11.249999999999996 5.1562499999999964,-11.249999999999996 5.6249999999999964,-11.249999999999996 5.6249999999999964,-10.781249999999996" stroke="#000" fill="none" stroke-linecap="round" stroke-linejoin="round"/><polyline points="5.6249999999999964,-10.781249999999996 5.6249999999999964,-10.312499999999996 5.1562499999999964,-10.312499999999996 4.6874999999999964,-10.312499999999996 4.6874999999999964,-9.843749999999996 4.6874999999999964,-9.374999999999996 5.1562499999999964,-9.374999999999996 5.6249999999999964,-9.374999999999996 5.6249999999999964,-8.906249999999996 5.6249999999999964,-8.437499999999996 5.1562499999999964,-8.437499999999996 4.6874999999999964,-8.437499999999996 4.6874999999999964,-8.906249999999996 4.6874999999999964,-9.374999999999996 4.2187499999999964,-9.374999999999996 3.749999999999997,-9.374999999999996 3.749999999999997,-8.906249999999996 3.749999999999997,-8.437499999999996 3.2812499999999973,-8.437499999999996 2.812499999999998,-8.437499999999996 2.812499999999998,-7.9687499999999964 2.812499999999998,-7.4999999999999964 3.2812499999999973,-7.4999999999999964 3.749999999999997,-7.4999999999999964 3.749999999999997,-7.9687499999999964 3.749999999999997,-8.437499999999996 4.2187499999999964,-8.437499999999996 4.6874999999999964,-8.437499999999996 4.6874999999999964,-7.9687499999999964 4.6874999999999964,-7.4999999999999964 5.1562499999999964,-7.4999999999999964 5.6249999999999964,-7.4999999999999964 5.6249999999999964,-7.0312499999999964 5.6249999999999964,-6.5624999999999964 5.1562499999999964,-6.5624999999999964 4.6874999999999964,-6.5624999999999964 4.6874999999999964,-6.0937499999999964 4.6874999999999964,-5.6249999999999964 5.1562499999999964,-5.6249999999999964 5.6249999999999964,-5.6249999999999964 5.6249999999999964,-6.0937499999999964 5.6249999999999964,-6.5624999999999964 6.0937499999999964,-6.5624999999999964" stroke="#000" fill="none" stroke-linecap="round" stroke-linejoin="round"/><polyline points="6.0937499999999964,-6.5624999999999964 6.5624999999999964,-6.5624999999999964 6.5624999999999964,-6.0937499999999964 6.5624999999999964,-5.6249999999999964 7.0312499999999964,-5.6249999999999964 7.4999999999999964,-5.6249999999999964 7.4999999999999964,-6.0937499999999964 7.4999999999999964,-6.5624999999999964 7.9687499999999964,-6.5624999999999964 8.437499999999996,-6.5624999999999964 8.437499999999996,-7.0312499999999964 8.437499999999996,-7.4999999999999964 7.9687499999999964,-7.4999999999999964 7.4999999999999964,-7.4999999999999964 7.4999999999999964,-7.0312499999999964 7.4999999999999964,-6.5624999999999964 7.0312499999999964,-6.5624999999999964 6.5624999999999964,-6.5624999999999964 6.5624999999999964,-7.0312499999999964 6.5624999999999964,-7.4999999999999964 6.0937499999999964,-7.4999999999999964 5.6249999999999964,-7.4999999999999964 5.6249999999999964,-7.9687499999999964 5.6249999999999964,-8.437499999999996 6.0937499999999964,-8.437499999999996 6.5624999999999964,-8.437499999999996 6.5624999999999964,-8.906249999999996 6.5624999999999964,-9.374999999999996 6.0937499999999964,-9.374999999999996 5.6249999999999964,-9.374999999999996 5.6249999999999964,-9.843749999999996 5.6249999999999964,-10.312499999999996 6.0937499999999964,-10.312499999999996 6.5624999999999964,-10.312499999999996 6.5624999999999964,-9.843749999999996 6.5624999999999964,-9.374999999999996 7.0312499999999964,-9.374999999999996 7.4999999999999964,-9.374999999999996 7.4999999999999964,-9.843749999999996 7.4999999999999964,-10.312499999999996 7.9687499999999964,-10.312499999999996 8.437499999999996,-10.312499999999996 8.437499999999996,-10.781249999999996" stroke="#000" fill="none" stroke-linecap="round" stroke-linejoin="round"/><polyline points="8.437499999999996,-10.781249999999996 8.437499999999996,-11.249999999999996 7.9687499999999964,-11.249999999999996 7.4999999999999964,-11.249999999999996 7.4999999999999964,-11.718749999999996 7.4999999999999964,-12.187499999999996 7.9687499999999964,-12.187499999999996 8.437499999999996,-12.187499999999996 8.437499999999996,-11.718749999999996 8.437499999999996,-11.249999999999996 8.906249999999996,-11.249999999999996 9.374999999999996,-11.249999999999996 9.374999999999996,-10.781249999999996 9.374999999999996,-10.312499999999996 8.906249999999996,-10.312499999999996 8.437499999999996,-10.312499999999996 8.437499999999996,-9.843749999999996 8.437499999999996,-9.374999999999996 8.906249999999996,-9.374999999999996 9.374999999999996,-9.374999999999996 9.374999999999996,-9.843749999999996 9.374999999999996,-10.312499999999996 9.843749999999996,-10.312499999999996 10.312499999999996,-10.312499999999996 10.312499999999996,-9.843749999999996 10.312499999999996,-9.374999999999996 10.781249999999996,-9.374999999999996 11.249999999999996,-9.374999999999996 11.249999999999996,-9.843749999999996 11.249999999999996,-10.312499999999996 11.718749999999996,-10.312499999999996 12.187499999999996,-10.312499999999996 12.187499999999996,-10.781249999999996 12.187499999999996,-11.249999999999996 11.718749999999996,-11.249999999999996 11.249999999999996,-11.249999999999996 11.249999999999996,-11.718749999999996 11.249999999999996,-12.187499999999996 11.718749999999996,-12.187499999999996 12.187499999999996,-12.187499999999996 12.187499999999996,-11.718749999999996 12.187499999999996,-11.249999999999996 12.656249999999996,-11.249999999999996" stroke="#000" fill="none" stroke-linecap="round" stroke-linejoin="round"/><polyline points="12.656249999999996,-11.249999999999996 13.124999999999996,-11.249999999999996 13.124999999999996,-10.781249999999996 13.124999999999996,-10.312499999999996 12.656249999999996,-10.312499999999996 12.187499999999996,-10.312499999999996 12.187499999999996,-9.843749999999996 12.187499999999996,-9.374999999999996 12.656249999999996,-9.374999999999996 13.124999999999996,-9.374999999999996 13.124999999999996,-8.906249999999996 13.124999999999996,-8.437499999999996 12.656249999999996,-8.437499999999996 12.187499999999996,-8.437499999999996 12.187499999999996,-8.906249999999996 12.187499999999996,-9.374999999999996 11.718749999999996,-9.374999999999996 11.249999999999996,-9.374999999999996 11.249999999999996,-8.906249999999996 11.249999999999996,-8.437499999999996 10.781249999999996,-8.437499999999996 10.312499999999996,-8.437499999999996 10.312499999999996,-7.9687499999999964 10.312499999999996,-7.4999999999999964 10.781249999999996,-7.4999999999999964 11.249999999999996,-7.4999999999999964 11.249999999999996,-7.9687499999999964 11.249999999999996,-8.437499999999996 11.718749999999996,-8.437499999999996 12.187499999999996,-8.437499999999996 12.187499999999996,-7.9687499999999964 12.187499999999996,-7.4999999999999964 12.656249999999996,-7.4999999999999964 13.124999999999996,-7.4999999999999964 13.124999999999996,-7.0312499999999964 13.124999999999996,-6.5624999999999964 12.656249999999996,-6.5624999999999964 12.187499999999996,-6.5624999999999964 12.187499999999996,-6.0937499999999964 12.187499999999996,-5.6249999999999964 12.656249999999996,-5.6249999999999964 13.124999999999996,-5.6249999999999964 13.124999999999996,-6.0937499999999964" stroke="#000" fill="none" stroke-linecap="round" stroke-linejoin="round"/><polyline points="13.124999999999996,-6.0937499999999964 13.124999999999996,-6.5624999999999964 13.593749999999996,-6.5624999999999964 14.062499999999996,-6.5624999999999964 14.062499999999996,-6.0937499999999964 14.062499999999996,-5.6249999999999964 14.531249999999996,-5.6249999999999964 14.999999999999996,-5.6249999999999964 14.999999999999996,-6.0937499999999964 14.999999999999996,-6.5624999999999964 15.468749999999996,-6.5624999999999964 15.937499999999996,-6.5624999999999964 15.937499999999996,-7.0312499999999964 15.937499999999996,-7.4999999999999964 15.468749999999996,-7.4999999999999964 14.999999999999996,-7.4999999999999964 14.999999999999996,-7.0312499999999964 14.999999999999996,-6.5624999999999964 14.531249999999996,-6.5624999999999964 14.062499999999996,-6.5624999999999964 14.062499999999996,-7.0312499999999964 14.062499999999996,-7.4999999999999964 13.593749999999996,-7.4999999999999964 13.124999999999996,-7.4999999999999964 13.124999999999996,-7.9687499999999964 13.124999999999996,-8.437499999999996 13.593749999999996,-8.437499999999996 14.062499999999996,-8.437499999999996 14.062499999999996,-8.906249999999996 14.062499999999996,-9.374999999999996 13.593749999999996,-9.374999999999996 13.124999999999996,-9.374999999999996 13.124999999999996,-9.843749999999996 13.124999999999996,-10.312499999999996 13.593749999999996,-10.312499999999996 14.062499999999996,-10.312499999999996 14.062499999999996,-9.843749999999996 14.062499999999996,-9.374999999999996 14.531249999999996,-9.374999999999996 14.999999999999996,-9.374999999999996 14.999999999999996,-9.843749999999996 14.999999999999996,-10.312499999999996 15.468749999999996,-10.312499999999996" stroke="#000" fill="none" stroke-linecap="round" stroke-linejoin="round"/><polyline points="15.468749999999996,-10.312499999999996 15.937499999999996,-10.312499999999996 15.937499999999996,-10.781249999999996 15.937499999999996,-11.249999999999996 15.468749999999996,-11.249999999999996 14.999999999999996,-11.249999999999996 14.999999999999996,-11.718749999999996 14.999999999999996,-12.187499999999996 15.468749999999996,-12.187499999999996 15.937499999999996,-12.187499999999996 15.937499999999996,-11.718749999999996 15.937499999999996,-11.249999999999996 16.406249999999996,-11.249999999999996 16.874999999999996,-11.249999999999996 16.874999999999996,-10.781249999999996 16.874999999999996,-10.312499999999996 16.406249999999996,-10.312499999999996 15.937499999999996,-10.312499999999996 15.937499999999996,-9.843749999999996 15.937499999999996,-9.374999999999996 16.406249999999996,-9.374999999999996 16.874999999999996,-9.374999999999996 16.874999999999996,-9.843749999999996 16.874999999999996,-10.312499999999996 17.343749999999996,-10.312499999999996 17.812499999999996,-10.312499999999996 17.812499999999996,-9.843749999999996 17.812499999999996,-9.374999999999996 18.281249999999996,-9.374999999999996 18.749999999999996,-9.374999999999996 18.749999999999996,-9.843749999999996 18.749999999999996,-10.312499999999996 19.218749999999996,-10.312499999999996 19.687499999999996,-10.312499999999996 19.687499999999996,-10.781249999999996 19.687499999999996,-11.249999999999996 19.218749999999996,-11.249999999999996 18.749999999999996,-11.249999999999996 18.749999999999996,-10.781249999999996 18.749999999999996,-10.312499999999996 18.281249999999996,-10.312499999999996 17.812499999999996,-10.312499999999996 17.812499999999996,-10.781249999999996" stroke="#000" fill="none" stroke-linecap="round" stroke-linejoin="round"/><polyline points="17.812499999999996,-10.781249999999996 17.812499999999996,-11.249999999999996 17.343749999999996,-11.249999999999996 16.874999999999996,-11.249999999999996 16.874999999999996,-11.718749999999996 16.874999999999996,-12.187499999999996 17.343749999999996,-12.187499999999996 17.812499999999996,-12.187499999999996 17.812499999999996,-12.656249999999996 17.812499999999996,-13.124999999999996 17.343749999999996,-13.124999999999996 16.874999999999996,-13.124999999999996 16.874999999999996,-13.593749999999996 16.874999999999996,-14.062499999999996 17.343749999999996,-14.062499999999996 17.812499999999996,-14.062499999999996 17.812499999999996,-13.593749999999996 17.812499999999996,-13.124999999999996 18.281249999999996,-13.124999999999996 18.749999999999996,-13.124999999999996 18.749999999999996,-13.593749999999996 18.749999999999996,-14.062499999999996 19.218749999999996,-14.062499999999996 19.687499999999996,-14.062499999999996 19.687499999999996,-14.531249999999996 19.687499999999996,-14.999999999999996 19.218749999999996,-14.999999999999996 18.749999999999996,-14.999999999999996 18.749999999999996,-14.531249999999996 18.749999999999996,-14.062499999999996 18.281249999999996,-14.062499999999996 17.812499999999996,-14.062499999999996 17.812499999999996,-14.531249999999996 17.812499999999996,-14.999999999999996 17.343749999999996,-14.999999999999996 16.874999999999996,-14.999999999999996 16.874999999999996,-15.468749999999996 16.874999999999996,-15.937499999999996 17.343749999999996,-15.937499999999996 17.812499999999996,-15.937499999999996 17.812499999999996,-16.406249999999996 17.812499999999996,-16.874999999999996 17.343749999999996,-16.874999999999996" stroke="#000" fill="none" stroke-linecap="round" stroke-linejoin="round"/><polyline points="17.343749999999996,-16.874999999999996 16.874999999999996,-16.874999999999996 16.874999999999996,-16.406249999999996 16.874999999999996,-15.937499999999996 16.406249999999996,-15.937499999999996 15.937499999999996,-15.937499999999996 15.937499999999996,-16.406249999999996 15.937499999999996,-16.874999999999996 15.468749999999996,-16.874999999999996 14.999999999999996,-16.874999999999996 14.999999999999996,-16.406249999999996 14.999999999999996,-15.937499999999996 14.531249999999996,-15.937499999999996 14.062499999999996,-15.937499999999996 14.062499999999996,-15.468749999999996 14.062499999999996,-14.999999999999996 14.531249999999996,-14.999999999999996 14.999999999999996,-14.999999999999996 14.999999999999996,-14.531249999999996 14.999999999999996,-14.062499999999996 14.531249999999996,-14.062499999999996 14.062499999999996,-14.062499999999996 14.062499999999996,-14.531249999999996 14.062499999999996,-14.999999999999996 13.593749999999996,-14.999999999999996 13.124999999999996,-14.999999999999996 13.124999999999996,-15.468749999999996 13.124999999999996,-15.937499999999996 13.593749999999996,-15.937499999999996 14.062499999999996,-15.937499999999996 14.062499999999996,-16.406249999999996 14.062499999999996,-16.874999999999996 13.593749999999996,-16.874999999999996 13.124999999999996,-16.874999999999996 13.124999999999996,-17.343749999999996 13.124999999999996,-17.812499999999996 13.593749999999996,-17.812499999999996 14.062499999999996,-17.812499999999996 14.062499999999996,-17.343749999999996 14.062499999999996,-16.874999999999996 14.531249999999996,-16.874999999999996 14.999999999999996,-16.874999999999996 14.999999999999996,-17.343749999999996" stroke="#000" fill="none" stroke-linecap="round" stroke-linejoin="round"/><polyline points="14.999999999999996,-17.343749999999996 14.999999999999996,-17.812499999999996 15.468749999999996,-17.812499999999996 15.937499999999996,-17.812499999999996 15.937499999999996,-18.281249999999996 15.937499999999996,-18.749999999999996 15.468749999999996,-18.749999999999996 14.999999999999996,-18.749999999999996 14.999999999999996,-19.218749999999996 14.999999999999996,-19.687499999999996 15.468749999999996,-19.687499999999996 15.937499999999996,-19.687499999999996 15.937499999999996,-19.218749999999996 15.937499999999996,-18.749999999999996 16.406249999999996,-18.749999999999996 16.874999999999996,-18.749999999999996 16.874999999999996,-18.281249999999996 16.874999999999996,-17.812499999999996 16.406249999999996,-17.812499999999996 15.937499999999996,-17.812499999999996 15.937499999999996,-17.343749999999996 15.937499999999996,-16.874999999999996 16.406249999999996,-16.874999999999996 16.874999999999996,-16.874999999999996 16.874999999999996,-17.343749999999996 16.874999999999996,-17.812499999999996 17.343749999999996,-17.812499999999996 17.812499999999996,-17.812499999999996 17.812499999999996,-17.343749999999996 17.812499999999996,-16.874999999999996 18.281249999999996,-16.874999999999996 18.749999999999996,-16.874999999999996 18.749999999999996,-17.343749999999996 18.749999999999996,-17.812499999999996 19.218749999999996,-17.812499999999996 19.687499999999996,-17.812499999999996 19.687499999999996,-18.281249999999996 19.687499999999996,-18.749999999999996 19.218749999999996,-18.749999999999996 18.749999999999996,-18.749999999999996 18.749999999999996,-19.218749999999996 18.749999999999996,-19.687499999999996 19.218749999999996,-19.687499999999996" stroke="#000" fill="none" stroke-linecap="round" stroke-linejoin="round"/><polyline points="19.218749999999996,-19.687499999999996 19.687499999999996,-19.687499999999996 19.687499999999996,-19.218749999999996 19.687499999999996,-18.749999999999996 20.156249999999996,-18.749999999999996 20.624999999999996,-18.749999999999996 20.624999999999996,-18.281249999999996 20.624999999999996,-17.812499999999996 20.156249999999996,-17.812499999999996 19.687499999999996,-17.812499999999996 19.687499999999996,-17.343749999999996 19.687499999999996,-16.874999999999996 20.156249999999996,-16.874999999999996 20.624999999999996,-16.874999999999996 20.624999999999996,-16.406249999999996 20.624999999999996,-15.937499999999996 20.156249999999996,-15.937499999999996 19.687499999999996,-15.937499999999996 19.687499999999996,-16.406249999999996 19.687499999999996,-16.874999999999996 19.218749999999996,-16.874999999999996 18.749999999999996,-16.874999999999996 18.749999999999996,-16.406249999999996 18.749999999999996,-15.937499999999996 18.281249999999996,-15.937499999999996 17.812499999999996,-15.937499999999996 17.812499999999996,-15.468749999999996 17.812499999999996,-14.999999999999996 18.281249999999996,-14.999999999999996 18.749999999999996,-14.999999999999996 18.749999999999996,-15.468749999999996 18.749999999999996,-15.937499999999996 19.218749999999996,-15.937499999999996 19.687499999999996,-15.937499999999996 19.687499999999996,-15.468749999999996 19.687499999999996,-14.999999999999996 20.156249999999996,-14.999999999999996 20.624999999999996,-14.999999999999996 20.624999999999996,-14.531249999999996 20.624999999999996,-14.062499999999996 20.156249999999996,-14.062499999999996 19.687499999999996,-14.062499999999996 19.687499999999996,-13.593749999999996" stroke="#000" fill="none" stroke-linecap="round" stroke-linejoin="round"/><polyline points="19.687499999999996,-13.593749999999996 19.687499999999996,-13.124999999999996 20.156249999999996,-13.124999999999996 20.624999999999996,-13.124999999999996 20.624999999999996,-13.593749999999996 20.624999999999996,-14.062499999999996 21.093749999999996,-14.062499999999996 21.562499999999996,-14.062499999999996 21.562499999999996,-13.593749999999996 21.562499999999996,-13.124999999999996 22.031249999999996,-13.124999999999996 22.499999999999996,-13.124999999999996 22.499999999999996,-13.593749999999996 22.499999999999996,-14.062499999999996 22.968749999999996,-14.062499999999996 23.437499999999996,-14.062499999999996 23.437499999999996,-14.531249999999996 23.437499999999996,-14.999999999999996 22.968749999999996,-14.999999999999996 22.499999999999996,-14.999999999999996 22.499999999999996,-15.468749999999996 22.499999999999996,-15.937499999999996 22.968749999999996,-15.937499999999996 23.437499999999996,-15.937499999999996 23.437499999999996,-15.468749999999996 23.437499999999996,-14.999999999999996 23.906249999999996,-14.999999999999996 24.374999999999996,-14.999999999999996 24.374999999999996,-14.531249999999996 24.374999999999996,-14.062499999999996 23.906249999999996,-14.062499999999996 23.437499999999996,-14.062499999999996 23.437499999999996,-13.593749999999996 23.437499999999996,-13.124999999999996 23.906249999999996,-13.124999999999996 24.374999999999996,-13.124999999999996 24.374999999999996,-12.656249999999996 24.374999999999996,-12.187499999999996 23.906249999999996,-12.187499999999996 23.437499999999996,-12.187499999999996 23.437499999999996,-12.656249999999996 23.437499999999996,-13.124999999999996 22.968749999999996,-13.124999999999996" stroke="#000" fill="none" stroke-linecap="round" stroke-linejoin="round"/><polyline points="22.968749999999996,-13.124999999999996 22.499999999999996,-13.124999999999996 22.499999999999996,-12.656249999999996 22.499999999999996,-12.187499999999996 22.031249999999996,-12.187499999999996 21.562499999999996,-12.187499999999996 21.562499999999996,-11.718749999999996 21.562499999999996,-11.249999999999996 22.031249999999996,-11.249999999999996 22.499999999999996,-11.249999999999996 22.499999999999996,-10.781249999999996 22.499999999999996,-10.312499999999996 22.031249999999996,-10.312499999999996 21.562499999999996,-10.312499999999996 21.562499999999996,-10.781249999999996 21.562499999999996,-11.249999999999996 21.093749999999996,-11.249999999999996 20.624999999999996,-11.249999999999996 20.624999999999996,-11.718749999999996 20.624999999999996,-12.187499999999996 21.093749999999996,-12.187499999999996 21.562499999999996,-12.187499999999996 21.562499999999996,-12.656249999999996 21.562499999999996,-13.124999999999996 21.093749999999996,-13.124999999999996 20.624999999999996,-13.124999999999996 20.624999999999996,-12.656249999999996 20.624999999999996,-12.187499999999996 20.156249999999996,-12.187499999999996 19.687499999999996,-12.187499999999996 19.687499999999996,-12.656249999999996 19.687499999999996,-13.124999999999996 19.218749999999996,-13.124999999999996 18.749999999999996,-13.124999999999996 18.749999999999996,-12.656249999999996 18.749999999999996,-12.187499999999996 18.281249999999996,-12.187499999999996 17.812499999999996,-12.187499999999996 17.812499999999996,-11.718749999999996 17.812499999999996,-11.249999999999996 18.281249999999996,-11.249999999999996 18.749999999999996,-11.249999999999996 18.749999999999996,-11.718749999999996" stroke="#000" fill="none" stroke-linecap="round" stroke-linejoin="round"/><polyline points="18.749999999999996,-11.718749999999996 18.749999999999996,-12.187499999999996 19.218749999999996,-12.187499999999996 19.687499999999996,-12.187499999999996 19.687499999999996,-11.718749999999996 19.687499999999996,-11.249999999999996 20.156249999999996,-11.249999999999996 20.624999999999996,-11.249999999999996 20.624999999999996,-10.781249999999996 20.624999999999996,-10.312499999999996 20.156249999999996,-10.312499999999996 19.687499999999996,-10.312499999999996 19.687499999999996,-9.843749999999996 19.687499999999996,-9.374999999999996 20.156249999999996,-9.374999999999996 20.624999999999996,-9.374999999999996 20.624999999999996,-8.906249999999996 20.624999999999996,-8.437499999999996 20.156249999999996,-8.437499999999996 19.687499999999996,-8.437499999999996 19.687499999999996,-8.906249999999996 19.687499999999996,-9.374999999999996 19.218749999999996,-9.374999999999996 18.749999999999996,-9.374999999999996 18.749999999999996,-8.906249999999996 18.749999999999996,-8.437499999999996 18.281249999999996,-8.437499999999996 17.812499999999996,-8.437499999999996 17.812499999999996,-7.9687499999999964 17.812499999999996,-7.4999999999999964 18.281249999999996,-7.4999999999999964 18.749999999999996,-7.4999999999999964 18.749999999999996,-7.9687499999999964 18.749999999999996,-8.437499999999996 19.218749999999996,-8.437499999999996 19.687499999999996,-8.437499999999996 19.687499999999996,-7.9687499999999964 19.687499999999996,-7.4999999999999964 20.156249999999996,-7.4999999999999964 20.624999999999996,-7.4999999999999964 20.624999999999996,-7.0312499999999964 20.624999999999996,-6.5624999999999964 20.156249999999996,-6.5624999999999964" stroke="#000" fill="none" stroke-linecap="round" stroke-linejoin="round"/><polyline points="20.156249999999996,-6.5624999999999964 19.687499999999996,-6.5624999999999964 19.687499999999996,-6.0937499999999964 19.687499999999996,-5.6249999999999964 20.156249999999996,-5.6249999999999964 20.624999999999996,-5.6249999999999964 20.624999999999996,-6.0937499999999964 20.624999999999996,-6.5624999999999964 21.093749999999996,-6.5624999999999964 21.562499999999996,-6.5624999999999964 21.562499999999996,-6.0937499999999964 21.562499999999996,-5.6249999999999964 22.031249999999996,-5.6249999999999964 22.499999999999996,-5.6249999999999964 22.499999999999996,-6.0937499999999964 22.499999999999996,-6.5624999999999964 22.968749999999996,-6.5624999999999964 23.437499999999996,-6.5624999999999964 23.437499999999996,-7.0312499999999964 23.437499999999996,-7.4999999999999964 22.968749999999996,-7.4999999999999964 22.499999999999996,-7.4999999999999964 22.499999999999996,-7.9687499999999964 22.499999999999996,-8.437499999999996 22.968749999999996,-8.437499999999996 23.437499999999996,-8.437499999999996 23.437499999999996,-7.9687499999999964 23.437499999999996,-7.4999999999999964 23.906249999999996,-7.4999999999999964 24.374999999999996,-7.4999999999999964 24.374999999999996,-7.0312499999999964 24.374999999999996,-6.5624999999999964 23.906249999999996,-6.5624999999999964 23.437499999999996,-6.5624999999999964 23.437499999999996,-6.0937499999999964 23.437499999999996,-5.6249999999999964 23.906249999999996,-5.6249999999999964 24.374999999999996,-5.6249999999999964 24.374999999999996,-5.1562499999999964 24.374999999999996,-4.6874999999999964 23.906249999999996,-4.6874999999999964 23.437499999999996,-4.6874999999999964 23.437499999999996,-5.1562499999999964" stroke="#000" fill="none" stroke-linecap="round" stroke-linejoin="round"/><polyline points="23.437499999999996,-5.1562499999999964 23.437499999999996,-5.6249999999999964 22.968749999999996,-5.6249999999999964 22.499999999999996,-5.6249999999999964 22.499999999999996,-5.1562499999999964 22.499999999999996,-4.6874999999999964 22.031249999999996,-4.6874999999999964 21.562499999999996,-4.6874999999999964 21.562499999999996,-4.2187499999999964 21.562499999999996,-3.749999999999997 22.031249999999996,-3.749999999999997 22.499999999999996,-3.749999999999997 22.499999999999996,-3.2812499999999973 22.499999999999996,-2.812499999999998 22.031249999999996,-2.812499999999998 21.562499999999996,-2.812499999999998 21.562499999999996,-3.2812499999999973 21.562499999999996,-3.749999999999997 21.093749999999996,-3.749999999999997 20.624999999999996,-3.749999999999997 20.624999999999996,-4.2187499999999964 20.624999999999996,-4.6874999999999964 21.093749999999996,-4.6874999999999964 21.562499999999996,-4.6874999999999964 21.562499999999996,-5.1562499999999964 21.562499999999996,-5.6249999999999964 21.093749999999996,-5.6249999999999964 20.624999999999996,-5.6249999999999964 20.624999999999996,-5.1562499999999964 20.624999999999996,-4.6874999999999964 20.156249999999996,-4.6874999999999964 19.687499999999996,-4.6874999999999964 19.687499999999996,-5.1562499999999964 19.687499999999996,-5.6249999999999964 19.218749999999996,-5.6249999999999964 18.749999999999996,-5.6249999999999964 18.749999999999996,-5.1562499999999964 18.749999999999996,-4.6874999999999964 18.281249999999996,-4.6874999999999964 17.812499999999996,-4.6874999999999964 17.812499999999996,-4.2187499999999964 17.812499999999996,-3.749999999999997 18.281249999999996,-3.749999999999997" stroke="#000" fill="none" stroke-linecap="round" stroke-linejoin="round"/><polyline points="18.281249999999996,-3.749999999999997 18.749999999999996,-3.749999999999997 18.749999999999996,-3.2812499999999973 18.749999999999996,-2.812499999999998 18.281249999999996,-2.812499999999998 17.812499999999996,-2.812499999999998 17.812499999999996,-3.2812499999999973 17.812499999999996,-3.749999999999997 17.343749999999996,-3.749999999999997 16.874999999999996,-3.749999999999997 16.874999999999996,-4.2187499999999964 16.874999999999996,-4.6874999999999964 17.343749999999996,-4.6874999999999964 17.812499999999996,-4.6874999999999964 17.812499999999996,-5.1562499999999964 17.812499999999996,-5.6249999999999964 17.343749999999996,-5.6249999999999964 16.874999999999996,-5.6249999999999964 16.874999999999996,-6.0937499999999964 16.874999999999996,-6.5624999999999964 17.343749999999996,-6.5624999999999964 17.812499999999996,-6.5624999999999964 17.812499999999996,-6.0937499999999964 17.812499999999996,-5.6249999999999964 18.281249999999996,-5.6249999999999964 18.749999999999996,-5.6249999999999964 18.749999999999996,-6.0937499999999964 18.749999999999996,-6.5624999999999964 19.218749999999996,-6.5624999999999964 19.687499999999996,-6.5624999999999964 19.687499999999996,-7.0312499999999964 19.687499999999996,-7.4999999999999964 19.218749999999996,-7.4999999999999964 18.749999999999996,-7.4999999999999964 18.749999999999996,-7.0312499999999964 18.749999999999996,-6.5624999999999964 18.281249999999996,-6.5624999999999964 17.812499999999996,-6.5624999999999964 17.812499999999996,-7.0312499999999964 17.812499999999996,-7.4999999999999964 17.343749999999996,-7.4999999999999964 16.874999999999996,-7.4999999999999964 16.874999999999996,-7.9687499999999964" stroke="#000" fill="none" stroke-linecap="round" stroke-linejoin="round"/><polyline points="16.874999999999996,-7.9687499999999964 16.874999999999996,-8.437499999999996 17.343749999999996,-8.437499999999996 17.812499999999996,-8.437499999999996 17.812499999999996,-8.906249999999996 17.812499999999996,-9.374999999999996 17.343749999999996,-9.374999999999996 16.874999999999996,-9.374999999999996 16.874999999999996,-8.906249999999996 16.874999999999996,-8.437499999999996 16.406249999999996,-8.437499999999996 15.937499999999996,-8.437499999999996 15.937499999999996,-8.906249999999996 15.937499999999996,-9.374999999999996 15.468749999999996,-9.374999999999996 14.999999999999996,-9.374999999999996 14.999999999999996,-8.906249999999996 14.999999999999996,-8.437499999999996 14.531249999999996,-8.437499999999996 14.062499999999996,-8.437499999999996 14.062499999999996,-7.9687499999999964 14.062499999999996,-7.4999999999999964 14.531249999999996,-7.4999999999999964 14.999999999999996,-7.4999999999999964 14.999999999999996,-7.9687499999999964 14.999999999999996,-8.437499999999996 15.468749999999996,-8.437499999999996 15.937499999999996,-8.437499999999996 15.937499999999996,-7.9687499999999964 15.937499999999996,-7.4999999999999964 16.406249999999996,-7.4999999999999964 16.874999999999996,-7.4999999999999964 16.874999999999996,-7.0312499999999964 16.874999999999996,-6.5624999999999964 16.406249999999996,-6.5624999999999964 15.937499999999996,-6.5624999999999964 15.937499999999996,-6.0937499999999964 15.937499999999996,-5.6249999999999964 16.406249999999996,-5.6249999999999964 16.874999999999996,-5.6249999999999964 16.874999999999996,-5.1562499999999964 16.874999999999996,-4.6874999999999964 16.406249999999996,-4.6874999999999964" stroke="#000" fill="none" stroke-linecap="round" stroke-linejoin="round"/><polyline points="16.406249999999996,-4.6874999999999964 15.937499999999996,-4.6874999999999964 15.937499999999996,-5.1562499999999964 15.937499999999996,-5.6249999999999964 15.468749999999996,-5.6249999999999964 14.999999999999996,-5.6249999999999964 14.999999999999996,-5.1562499999999964 14.999999999999996,-4.6874999999999964 14.531249999999996,-4.6874999999999964 14.062499999999996,-4.6874999999999964 14.062499999999996,-4.2187499999999964 14.062499999999996,-3.749999999999997 14.531249999999996,-3.749999999999997 14.999999999999996,-3.749999999999997 14.999999999999996,-3.2812499999999973 14.999999999999996,-2.812499999999998 14.531249999999996,-2.812499999999998 14.062499999999996,-2.812499999999998 14.062499999999996,-3.2812499999999973 14.062499999999996,-3.749999999999997 13.593749999999996,-3.749999999999997 13.124999999999996,-3.749999999999997 13.124999999999996,-4.2187499999999964 13.124999999999996,-4.6874999999999964 13.593749999999996,-4.6874999999999964 14.062499999999996,-4.6874999999999964 14.062499999999996,-5.1562499999999964 14.062499999999996,-5.6249999999999964 13.593749999999996,-5.6249999999999964 13.124999999999996,-5.6249999999999964 13.124999999999996,-5.1562499999999964 13.124999999999996,-4.6874999999999964 12.656249999999996,-4.6874999999999964 12.187499999999996,-4.6874999999999964 12.187499999999996,-5.1562499999999964 12.187499999999996,-5.6249999999999964 11.718749999999996,-5.6249999999999964 11.249999999999996,-5.6249999999999964 11.249999999999996,-5.1562499999999964 11.249999999999996,-4.6874999999999964 10.781249999999996,-4.6874999999999964 10.312499999999996,-4.6874999999999964 10.312499999999996,-4.2187499999999964" stroke="#000" fill="none" stroke-linecap="round" stroke-linejoin="round"/><polyline points="10.312499999999996,-4.2187499999999964 10.312499999999996,-3.749999999999997 10.781249999999996,-3.749999999999997 11.249999999999996,-3.749999999999997 11.249999999999996,-4.2187499999999964 11.249999999999996,-4.6874999999999964 11.718749999999996,-4.6874999999999964 12.187499999999996,-4.6874999999999964 12.187499999999996,-4.2187499999999964 12.187499999999996,-3.749999999999997 12.656249999999996,-3.749999999999997 13.124999999999996,-3.749999999999997 13.124999999999996,-3.2812499999999973 13.124999999999996,-2.812499999999998 12.656249999999996,-2.812499999999998 12.187499999999996,-2.812499999999998 12.187499999999996,-2.3437499999999982 12.187499999999996,-1.8749999999999987 12.656249999999996,-1.874999999999999 13.124999999999996,-1.8749999999999991 13.124999999999996,-1.4062499999999996 13.124999999999996,-0.9374999999999999 12.656249999999996,-0.9374999999999997 12.187499999999996,-0.9374999999999994 12.187499999999996,-1.4062499999999991 12.187499999999996,-1.8749999999999987 11.718749999999996,-1.8749999999999984 11.249999999999996,-1.8749999999999982 11.249999999999996,-1.4062499999999987 11.249999999999996,-0.937499999999999 10.781249999999996,-0.9374999999999988 10.312499999999996,-0.9374999999999986 10.312499999999996,-0.4687499999999989 10.312499999999996,7.771561172376096e-16 10.781249999999996,6.623454798175454e-16 11.249999999999996,5.475348423974812e-16 11.249999999999996,-0.4687499999999991 11.249999999999996,-0.9374999999999988 11.718749999999996,-0.9374999999999989 12.187499999999996,-0.937499999999999 12.187499999999996,-0.46874999999999933 12.187499999999996,3.3306690738754696e-16 12.656249999999996,2.182562699674827e-16" stroke="#000" fill="none" stroke-linecap="round" stroke-linejoin="round"/><polyline points="12.656249999999996,2.182562699674827e-16 13.124999999999996,1.0344563254741846e-16 13.124999999999996,0.4687499999999998 13.124999999999996,0.9374999999999994 12.656249999999996,0.9374999999999997 12.187499999999996,0.9374999999999999 12.187499999999996,1.4062499999999996 12.187499999999996,1.8749999999999991 12.656249999999996,1.874999999999999 13.124999999999996,1.8749999999999987 13.124999999999996,1.4062499999999991 13.124999999999996,0.9374999999999994 13.593749999999996,0.9374999999999993 14.062499999999996,0.9374999999999992 14.062499999999996,1.406249999999999 14.062499999999996,1.8749999999999987 14.531249999999996,1.8749999999999984 14.999999999999996,1.8749999999999982 14.999999999999996,1.4062499999999987 14.999999999999996,0.937499999999999 15.468749999999996,0.9374999999999989 15.937499999999996,0.9374999999999988 15.937499999999996,0.4687499999999991 15.937499999999996,-5.551115123125783e-16 15.468749999999996,-4.977061936025462e-16 14.999999999999996,-4.4030087489251407e-16 14.999999999999996,0.4687499999999992 14.999999999999996,0.9374999999999989 14.531249999999996,0.937499999999999 14.062499999999996,0.9374999999999991 14.062499999999996,0.46874999999999944 14.062499999999996,-2.220446049250313e-16 13.593749999999996,-1.646392862149992e-16 13.124999999999996,-1.0723396750496711e-16 13.124999999999996,-0.4687499999999998 13.124999999999996,-0.9374999999999994 13.593749999999996,-0.9374999999999996 14.062499999999996,-0.9374999999999997 14.062499999999996,-1.4062499999999993 14.062499999999996,-1.8749999999999991 13.593749999999996,-1.8749999999999991 13.124999999999996,-1.8749999999999991 13.124999999999996,-2.3437499999999987" stroke="#000" fill="none" stroke-linecap="round" stroke-linejoin="round"/><polyline points="13.124999999999996,-2.3437499999999987 13.124999999999996,-2.8124999999999982 13.593749999999996,-2.8124999999999982 14.062499999999996,-2.8124999999999982 14.062499999999996,-2.3437499999999987 14.062499999999996,-1.8749999999999991 14.531249999999996,-1.8749999999999993 14.999999999999996,-1.8749999999999996 14.999999999999996,-2.343749999999999 14.999999999999996,-2.8124999999999987 15.468749999999996,-2.8124999999999987 15.937499999999996,-2.8124999999999987 15.937499999999996,-3.2812499999999982 15.937499999999996,-3.749999999999998 15.468749999999996,-3.749999999999998 14.999999999999996,-3.749999999999998 14.999999999999996,-4.218749999999997 14.999999999999996,-4.687499999999997 15.468749999999996,-4.687499999999997 15.937499999999996,-4.687499999999997 15.937499999999996,-4.218749999999997 15.937499999999996,-3.749999999999998 16.406249999999996,-3.749999999999998 16.874999999999996,-3.749999999999998 16.874999999999996,-3.2812499999999982 16.874999999999996,-2.8124999999999987 16.406249999999996,-2.8124999999999987 15.937499999999996,-2.8124999999999987 15.937499999999996,-2.343749999999999 15.937499999999996,-1.8749999999999996 16.406249999999996,-1.8749999999999998 16.874999999999996,-1.875 16.874999999999996,-2.3437499999999996 16.874999999999996,-2.812499999999999 17.343749999999996,-2.812499999999999 17.812499999999996,-2.812499999999999 17.812499999999996,-2.3437499999999996 17.812499999999996,-1.875 18.281249999999996,-1.8750000000000002 18.749999999999996,-1.8750000000000004 18.749999999999996,-2.34375 18.749999999999996,-2.8124999999999996 19.218749999999996,-2.8124999999999996" stroke="#000" fill="none" stroke-linecap="round" stroke-linejoin="round"/><polyline points="19.218749999999996,-2.8124999999999996 19.687499999999996,-2.8124999999999996 19.687499999999996,-3.281249999999999 19.687499999999996,-3.7499999999999987 19.218749999999996,-3.7499999999999987 18.749999999999996,-3.7499999999999987 18.749999999999996,-4.218749999999998 18.749999999999996,-4.687499999999998 19.218749999999996,-4.687499999999998 19.687499999999996,-4.687499999999998 19.687499999999996,-4.218749999999998 19.687499999999996,-3.7499999999999987 20.156249999999996,-3.7499999999999987 20.624999999999996,-3.7499999999999987 20.624999999999996,-3.281249999999999 20.624999999999996,-2.8124999999999996 20.156249999999996,-2.8124999999999996 19.687499999999996,-2.8124999999999996 19.687499999999996,-2.34375 19.687499999999996,-1.8750000000000004 20.156249999999996,-1.8750000000000007 20.624999999999996,-1.8750000000000009 20.624999999999996,-1.4062500000000013 20.624999999999996,-0.9375000000000017 20.156249999999996,-0.9375000000000014 19.687499999999996,-0.9375000000000012 19.687499999999996,-1.4062500000000009 19.687499999999996,-1.8750000000000004 19.218749999999996,-1.8750000000000002 18.749999999999996,-1.875 18.749999999999996,-1.4062500000000004 18.749999999999996,-0.9375000000000008 18.281249999999996,-0.9375000000000006 17.812499999999996,-0.9375000000000003 17.812499999999996,-0.46875000000000067 17.812499999999996,-9.992007221626409e-16 18.281249999999996,-1.114011359582705e-15 18.749999999999996,-1.2288219970027693e-15 18.749999999999996,-0.4687500000000009 18.749999999999996,-0.9375000000000006 19.218749999999996,-0.9375000000000007 19.687499999999996,-0.9375000000000008 19.687499999999996,-0.4687500000000011" stroke="#000" fill="none" stroke-linecap="round" stroke-linejoin="round"/><polyline points="19.687499999999996,-0.4687500000000011 19.687499999999996,-1.4432899320127035e-15 20.156249999999996,-1.5581005694327677e-15 20.624999999999996,-1.672911206852832e-15 20.624999999999996,0.468749999999998 20.624999999999996,0.9374999999999977 20.156249999999996,0.9374999999999979 19.687499999999996,0.9374999999999981 19.687499999999996,1.4062499999999978 19.687499999999996,1.8749999999999973 20.156249999999996,1.8749999999999971 20.624999999999996,1.874999999999997 20.624999999999996,1.4062499999999973 20.624999999999996,0.9374999999999977 21.093749999999996,0.9374999999999976 21.562499999999996,0.9374999999999974 21.562499999999996,1.4062499999999971 21.562499999999996,1.874999999999997 22.031249999999996,1.8749999999999967 22.499999999999996,1.8749999999999964 22.499999999999996,1.406249999999997 22.499999999999996,0.9374999999999972 22.968749999999996,0.9374999999999971 23.437499999999996,0.937499999999997 23.437499999999996,0.46874999999999734 23.437499999999996,-2.3314683517128287e-15 22.968749999999996,-2.2740630330027966e-15 22.499999999999996,-2.2166577142927645e-15 22.499999999999996,-0.4687500000000019 22.499999999999996,-0.9375000000000016 22.968749999999996,-0.9375000000000017 23.437499999999996,-0.9375000000000018 23.437499999999996,-0.4687500000000021 23.437499999999996,-2.4424906541753444e-15 23.906249999999996,-2.5573012915954086e-15 24.374999999999996,-2.6721119290154728e-15 24.374999999999996,0.468749999999997 24.374999999999996,0.9374999999999967 23.906249999999996,0.9374999999999969 23.437499999999996,0.9374999999999971 23.437499999999996,1.406249999999997 23.437499999999996,1.8749999999999964 23.906249999999996,1.8749999999999962" stroke="#000" fill="none" stroke-linecap="round" stroke-linejoin="round"/><polyline points="23.906249999999996,1.8749999999999962 24.374999999999996,1.874999999999996 24.374999999999996,2.3437499999999956 24.374999999999996,2.812499999999995 23.906249999999996,2.812499999999995 23.437499999999996,2.812499999999995 23.437499999999996,2.3437499999999956 23.437499999999996,1.874999999999996 22.968749999999996,1.8749999999999962 22.499999999999996,1.8749999999999964 22.499999999999996,2.343749999999996 22.499999999999996,2.8124999999999956 22.031249999999996,2.8124999999999956 21.562499999999996,2.8124999999999956 21.562499999999996,3.281249999999995 21.562499999999996,3.7499999999999947 22.031249999999996,3.7499999999999947 22.499999999999996,3.7499999999999947 22.499999999999996,4.218749999999995 22.499999999999996,4.687499999999995 22.031249999999996,4.687499999999995 21.562499999999996,4.687499999999995 21.562499999999996,4.218749999999995 21.562499999999996,3.749999999999995 21.093749999999996,3.749999999999995 20.624999999999996,3.749999999999995 20.624999999999996,3.2812499999999956 20.624999999999996,2.812499999999996 21.093749999999996,2.8124999999999956 21.562499999999996,2.812499999999995 21.562499999999996,2.3437499999999956 21.562499999999996,1.874999999999996 21.093749999999996,1.8749999999999962 20.624999999999996,1.8749999999999964 20.624999999999996,2.343749999999996 20.624999999999996,2.8124999999999956 20.156249999999996,2.8124999999999956 19.687499999999996,2.8124999999999956 19.687499999999996,2.343749999999996 19.687499999999996,1.8749999999999964 19.218749999999996,1.8749999999999967 18.749999999999996,1.874999999999997 18.749999999999996,2.3437499999999964" stroke="#000" fill="none" stroke-linecap="round" stroke-linejoin="round"/><polyline points="18.749999999999996,2.3437499999999964 18.749999999999996,2.812499999999996 18.281249999999996,2.812499999999996 17.812499999999996,2.812499999999996 17.812499999999996,3.2812499999999956 17.812499999999996,3.749999999999995 18.281249999999996,3.749999999999995 18.749999999999996,3.749999999999995 18.749999999999996,3.2812499999999956 18.749999999999996,2.812499999999996 19.218749999999996,2.812499999999996 19.687499999999996,2.812499999999996 19.687499999999996,3.2812499999999956 19.687499999999996,3.749999999999995 20.156249999999996,3.749999999999995 20.624999999999996,3.749999999999995 20.624999999999996,4.218749999999995 20.624999999999996,4.687499999999995 20.156249999999996,4.687499999999995 19.687499999999996,4.687499999999995 19.687499999999996,5.156249999999995 19.687499999999996,5.624999999999995 20.156249999999996,5.624999999999995 20.624999999999996,5.624999999999995 20.624999999999996,6.093749999999995 20.624999999999996,6.562499999999995 20.156249999999996,6.562499999999995 19.687499999999996,6.562499999999995 19.687499999999996,6.093749999999995 19.687499999999996,5.624999999999995 19.218749999999996,5.624999999999995 18.749999999999996,5.624999999999995 18.749999999999996,6.093749999999995 18.749999999999996,6.562499999999995 18.281249999999996,6.562499999999995 17.812499999999996,6.562499999999995 17.812499999999996,7.031249999999995 17.812499999999996,7.499999999999995 18.281249999999996,7.499999999999995 18.749999999999996,7.499999999999995 18.749999999999996,7.031249999999995 18.749999999999996,6.562499999999995 19.218749999999996,6.562499999999995" stroke="#000" fill="none" stroke-linecap="round" stroke-linejoin="round"/><polyline points="19.218749999999996,6.562499999999995 19.687499999999996,6.562499999999995 19.687499999999996,7.031249999999995 19.687499999999996,7.499999999999995 20.156249999999996,7.499999999999995 20.624999999999996,7.499999999999995 20.624999999999996,7.968749999999995 20.624999999999996,8.437499999999995 20.156249999999996,8.437499999999995 19.687499999999996,8.437499999999995 19.687499999999996,8.906249999999995 19.687499999999996,9.374999999999995 20.156249999999996,9.374999999999995 20.624999999999996,9.374999999999995 20.624999999999996,8.906249999999995 20.624999999999996,8.437499999999995 21.093749999999996,8.437499999999995 21.562499999999996,8.437499999999995 21.562499999999996,8.906249999999995 21.562499999999996,9.374999999999995 22.031249999999996,9.374999999999995 22.499999999999996,9.374999999999995 22.499999999999996,8.906249999999995 22.499999999999996,8.437499999999995 22.968749999999996,8.437499999999995 23.437499999999996,8.437499999999995 23.437499999999996,7.968749999999995 23.437499999999996,7.499999999999995 22.968749999999996,7.499999999999995 22.499999999999996,7.499999999999995 22.499999999999996,7.968749999999995 22.499999999999996,8.437499999999995 22.031249999999996,8.437499999999995 21.562499999999996,8.437499999999995 21.562499999999996,7.968749999999995 21.562499999999996,7.499999999999995 21.093749999999996,7.499999999999995 20.624999999999996,7.499999999999995 20.624999999999996,7.031249999999995 20.624999999999996,6.562499999999995 21.093749999999996,6.562499999999995 21.562499999999996,6.562499999999995 21.562499999999996,6.093749999999995" stroke="#000" fill="none" stroke-linecap="round" stroke-linejoin="round"/><polyline points="21.562499999999996,6.093749999999995 21.562499999999996,5.624999999999995 21.093749999999996,5.624999999999995 20.624999999999996,5.624999999999995 20.624999999999996,5.156249999999995 20.624999999999996,4.687499999999995 21.093749999999996,4.687499999999995 21.562499999999996,4.687499999999995 21.562499999999996,5.156249999999995 21.562499999999996,5.624999999999995 22.031249999999996,5.624999999999995 22.499999999999996,5.624999999999995 22.499999999999996,5.156249999999995 22.499999999999996,4.687499999999995 22.968749999999996,4.687499999999995 23.437499999999996,4.687499999999995 23.437499999999996,4.218749999999995 23.437499999999996,3.749999999999995 22.968749999999996,3.749999999999995 22.499999999999996,3.749999999999995 22.499999999999996,3.2812499999999956 22.499999999999996,2.812499999999996 22.968749999999996,2.812499999999996 23.437499999999996,2.812499999999996 23.437499999999996,3.2812499999999956 23.437499999999996,3.749999999999995 23.906249999999996,3.749999999999995 24.374999999999996,3.749999999999995 24.374999999999996,4.218749999999995 24.374999999999996,4.687499999999995 23.906249999999996,4.687499999999995 23.437499999999996,4.687499999999995 23.437499999999996,5.156249999999995 23.437499999999996,5.624999999999995 23.906249999999996,5.624999999999995 24.374999999999996,5.624999999999995 24.374999999999996,5.156249999999995 24.374999999999996,4.687499999999995 24.843749999999996,4.687499999999995 25.312499999999996,4.687499999999995 25.312499999999996,5.156249999999995 25.312499999999996,5.624999999999995 25.781249999999996,5.624999999999995" stroke="#000" fill="none" stroke-linecap="round" stroke-linejoin="round"/><polyline points="25.781249999999996,5.624999999999995 26.249999999999996,5.624999999999995 26.249999999999996,5.156249999999995 26.249999999999996,4.687499999999995 26.718749999999996,4.687499999999995 27.187499999999996,4.687499999999995 27.187499999999996,4.218749999999995 27.187499999999996,3.749999999999995 26.718749999999996,3.749999999999995 26.249999999999996,3.749999999999995 26.249999999999996,3.2812499999999956 26.249999999999996,2.812499999999996 26.718749999999996,2.812499999999996 27.187499999999996,2.812499999999996 27.187499999999996,3.2812499999999956 27.187499999999996,3.749999999999995 27.656249999999996,3.749999999999995 28.124999999999996,3.749999999999995 28.124999999999996,4.218749999999995 28.124999999999996,4.687499999999995 27.656249999999996,4.687499999999995 27.187499999999996,4.687499999999995 27.187499999999996,5.156249999999995 27.187499999999996,5.624999999999995 27.656249999999996,5.624999999999995 28.124999999999996,5.624999999999995 28.124999999999996,6.093749999999995 28.124999999999996,6.562499999999995 27.656249999999996,6.562499999999995 27.187499999999996,6.562499999999995 27.187499999999996,6.093749999999995 27.187499999999996,5.624999999999995 26.718749999999996,5.624999999999995 26.249999999999996,5.624999999999995 26.249999999999996,6.093749999999995 26.249999999999996,6.562499999999995 25.781249999999996,6.562499999999995 25.312499999999996,6.562499999999995 25.312499999999996,7.031249999999995 25.312499999999996,7.499999999999995 25.781249999999996,7.499999999999995 26.249999999999996,7.499999999999995 26.249999999999996,7.031249999999995" stroke="#000" fill="none" stroke-linecap="round" stroke-linejoin="round"/><polyline points="26.249999999999996,7.031249999999995 26.249999999999996,6.562499999999995 26.718749999999996,6.562499999999995 27.187499999999996,6.562499999999995 27.187499999999996,7.031249999999995 27.187499999999996,7.499999999999995 27.656249999999996,7.499999999999995 28.124999999999996,7.499999999999995 28.124999999999996,7.968749999999995 28.124999999999996,8.437499999999995 27.656249999999996,8.437499999999995 27.187499999999996,8.437499999999995 27.187499999999996,8.906249999999995 27.187499999999996,9.374999999999995 27.656249999999996,9.374999999999995 28.124999999999996,9.374999999999995 28.124999999999996,8.906249999999995 28.124999999999996,8.437499999999995 28.593749999999996,8.437499999999995 29.062499999999996,8.437499999999995 29.062499999999996,8.906249999999995 29.062499999999996,9.374999999999995 29.531249999999996,9.374999999999995 29.999999999999996,9.374999999999995 29.999999999999996,8.906249999999995 29.999999999999996,8.437499999999995 30.468749999999996,8.437499999999995 30.937499999999996,8.437499999999995 30.937499999999996,7.968749999999995 30.937499999999996,7.499999999999995 30.468749999999996,7.499999999999995 29.999999999999996,7.499999999999995 29.999999999999996,7.968749999999995 29.999999999999996,8.437499999999995 29.531249999999996,8.437499999999995 29.062499999999996,8.437499999999995 29.062499999999996,7.968749999999995 29.062499999999996,7.499999999999995 28.593749999999996,7.499999999999995 28.124999999999996,7.499999999999995 28.124999999999996,7.031249999999995 28.124999999999996,6.562499999999995 28.593749999999996,6.562499999999995" stroke="#000" fill="none" stroke-linecap="round" stroke-linejoin="round"/><polyline points="28.593749999999996,6.562499999999995 29.062499999999996,6.562499999999995 29.062499999999996,6.093749999999995 29.062499999999996,5.624999999999995 28.593749999999996,5.624999999999995 28.124999999999996,5.624999999999995 28.124999999999996,5.156249999999995 28.124999999999996,4.687499999999995 28.593749999999996,4.687499999999995 29.062499999999996,4.687499999999995 29.062499999999996,5.156249999999995 29.062499999999996,5.624999999999995 29.531249999999996,5.624999999999995 29.999999999999996,5.624999999999995 29.999999999999996,5.156249999999995 29.999999999999996,4.687499999999995 30.468749999999996,4.687499999999995 30.937499999999996,4.687499999999995 30.937499999999996,4.218749999999995 30.937499999999996,3.749999999999995 30.468749999999996,3.749999999999995 29.999999999999996,3.749999999999995 29.999999999999996,3.2812499999999956 29.999999999999996,2.812499999999996 30.468749999999996,2.812499999999996 30.937499999999996,2.812499999999996 30.937499999999996,3.2812499999999956 30.937499999999996,3.749999999999995 31.406249999999996,3.749999999999995 31.874999999999996,3.749999999999995 31.874999999999996,4.218749999999995 31.874999999999996,4.687499999999995 31.406249999999996,4.687499999999995 30.937499999999996,4.687499999999995 30.937499999999996,5.156249999999995 30.937499999999996,5.624999999999995 31.406249999999996,5.624999999999995 31.874999999999996,5.624999999999995 31.874999999999996,5.156249999999995 31.874999999999996,4.687499999999995 32.34374999999999,4.687499999999995 32.81249999999999,4.687499999999995 32.81249999999999,5.156249999999995" stroke="#000" fill="none" stroke-linecap="round" stroke-linejoin="round"/><polyline points="32.81249999999999,5.156249999999995 32.81249999999999,5.624999999999995 33.28124999999999,5.624999999999995 33.74999999999999,5.624999999999995 33.74999999999999,5.156249999999995 33.74999999999999,4.687499999999995 34.21874999999999,4.687499999999995 34.68749999999999,4.687499999999995 34.68749999999999,4.218749999999995 34.68749999999999,3.749999999999995 34.21874999999999,3.749999999999995 33.74999999999999,3.749999999999995 33.74999999999999,4.218749999999995 33.74999999999999,4.687499999999995 33.28124999999999,4.687499999999995 32.81249999999999,4.687499999999995 32.81249999999999,4.218749999999995 32.81249999999999,3.749999999999995 32.34374999999999,3.749999999999995 31.874999999999993,3.749999999999995 31.874999999999993,3.2812499999999956 31.874999999999993,2.812499999999996 32.34374999999999,2.812499999999996 32.81249999999999,2.812499999999996 32.81249999999999,2.3437499999999964 32.81249999999999,1.874999999999997 32.34374999999999,1.874999999999997 31.874999999999993,1.874999999999997 31.874999999999993,1.4062499999999973 31.874999999999993,0.9374999999999977 32.34374999999999,0.9374999999999976 32.81249999999999,0.9374999999999974 32.81249999999999,1.4062499999999971 32.81249999999999,1.874999999999997 33.28124999999999,1.8749999999999967 33.74999999999999,1.8749999999999964 33.74999999999999,1.406249999999997 33.74999999999999,0.9374999999999972 34.21874999999999,0.9374999999999971 34.68749999999999,0.937499999999997 34.68749999999999,0.46874999999999734 34.68749999999999,-2.3314683517128287e-15 34.21874999999999,-2.2740630330027966e-15" stroke="#000" fill="none" stroke-linecap="round" stroke-linejoin="round"/><polyline points="34.21874999999999,-2.2740630330027966e-15 33.74999999999999,-2.2166577142927645e-15 33.74999999999999,0.46874999999999745 33.74999999999999,0.9374999999999971 33.28124999999999,0.9374999999999972 32.81249999999999,0.9374999999999973 32.81249999999999,0.46874999999999767 32.81249999999999,-1.9984014443252818e-15 32.34374999999999,-1.9409961256152497e-15 31.874999999999993,-1.8835908069052176e-15 31.874999999999993,-0.46875000000000155 31.874999999999993,-0.9375000000000012 32.34374999999999,-0.9375000000000013 32.81249999999999,-0.9375000000000014 32.81249999999999,-1.406250000000001 32.81249999999999,-1.8750000000000009 32.34374999999999,-1.8750000000000009 31.874999999999993,-1.8750000000000009 31.874999999999993,-1.4062500000000013 31.874999999999993,-0.9375000000000017 31.406249999999993,-0.9375000000000016 30.937499999999993,-0.9375000000000014 30.937499999999993,-1.406250000000001 30.937499999999993,-1.8750000000000009 30.468749999999993,-1.8750000000000009 29.999999999999993,-1.8750000000000009 29.999999999999993,-1.4062500000000013 29.999999999999993,-0.9375000000000017 29.531249999999993,-0.9375000000000016 29.062499999999993,-0.9375000000000014 29.062499999999993,-0.4687500000000018 29.062499999999993,-2.1094237467877974e-15 29.531249999999993,-2.1094237467877974e-15 29.999999999999993,-2.1094237467877974e-15 29.999999999999993,-2.1094237467877974e-15" stroke="#000" fill="none" stroke-linecap="round" stroke-linejoin="round"/></svg>