<?xml version="1.0" ?><!DOCTYPE svg  PUBLIC '-//W3C//DTD SVG 1.1//EN'  'http://www.w3.org/Graphics/SVG/1.1/DTD/svg11.dtd'><svg xmlns="http://www.w3.org/2000/svg" width="259.000" height="388.000" viewBox="-174.000 -303.000 259.000 388.000"><line x1="0.0" y1="0.0" x2="0.0" y2="0.0" stroke="none" fill="none" stroke-width="2.0" stroke-linecap="round"/><polyline points="0.0,0.0 9.0,-8.999999999999998 11.752823399122818,-10.839377789258258 15.0,-11.485281374238568 18.247176600877182,-10.839377789258256 21.0,-8.999999999999996 29.999999999999996,1.7763568394002505e-15 38.99999999999999,9.0 40.83937778925825,11.752823399122818 41.48528137423856,15.0 40.83937778925825,18.247176600877182 38.99999999999999,21.0 29.999999999999993,29.999999999999993 14.999999999999996,44.999999999999986 0.0,59.99999999999998 -8.999999999999998,68.99999999999997 -11.752823399122816,70.83937778925824 -14.999999999999996,71.48528137423855 -18.247176600877175,70.83937778925824 -20.999999999999993,68.99999999999997 -29.999999999999986,59.99999999999997 -38.99999999999998,50.99999999999997 -41.752823399122796,49.160622210741714 -44.99999999999998,48.514718625761404 -48.24717660087716,49.160622210741714 -50.99999999999998,50.99999999999997 -59.99999999999997,59.99999999999997 -68.99999999999997,68.99999999999997 -71.75282339912279,70.83937778925824 -74.99999999999997,71.48528137423855 -78.24717660087715,70.83937778925824 -80.99999999999997,68.99999999999997 -89.99999999999997,59.99999999999997 -98.99999999999997,50.99999999999997 -100.83937778925824,48.247176600877154 -101.48528137423855,44.99999999999997 -100.83937778925824,41.75282339912279 -98.99999999999997,38.99999999999997 -89.99999999999997,29.999999999999975 -80.99999999999997,20.99999999999998 -79.1606222107417,18.24717660087716 -78.51471862576139,14.99999999999998 -79.1606222107417,11.7528233991228" stroke="#ff6b6b" fill="none" stroke-width="2.5" stroke-linecap="round" stroke-linejoin="round"/><text x="8.0" y="-12" fill="#ff6b6b" stroke-width="0.0" font-family="Times New Roman" font-size="12.0pt">R</text><text x="37.99999999999999" y="6" fill="#ff6b6b" stroke-width="0.0" font-family="Times New Roman" font-size="12.0pt">r</text><text x="13.999999999999996" y="42" fill="#ff6b6b" stroke-width="0.0" font-family="Times New Roman" font-size="12.0pt">S</text><text x="-9.999999999999998" y="66" fill="#ff6b6b" stroke-width="0.0" font-family="Times New Roman" font-size="12.0pt">R</text><text x="-39.99999999999998" y="48" fill="#ff6b6b" stroke-width="0.0" font-family="Times New Roman" font-size="12.0pt">l</text><text x="-69.99999999999997" y="66" fill="#ff6b6b" stroke-width="0.0" font-family="Times New Roman" font-size="12.0pt">R</text><text x="-99.99999999999997" y="48" fill="#ff6b6b" stroke-width="0.0" font-family="Times New Roman" font-size="12.0pt">r</text><text x="-81.99999999999997" y="18" fill="#ff6b6b" stroke-width="0.0" font-family="Times New Roman" font-size="12.0pt">L</text><polyline points="-79.1606222107417,11.7528233991228 -80.99999999999997,8.999999999999982 -89.99999999999997,-1.4210854715202004e-14 -98.99999999999997,-9.00000000000001 -101.75282339912279,-10.839377789258268 -104.99999999999997,-11.485281374238578 -108.24717660087715,-10.839377789258268 -110.99999999999997,-9.00000000000001 -119.99999999999997,-1.4210854715202004e-14 -128.99999999999997,8.999999999999982 -131.75282339912278,10.83937778925824 -134.99999999999994,11.48528137423855 -138.2471766008771,10.83937778925824 -140.99999999999991,8.999999999999982 -149.99999999999991,-1.4210854715202004e-14 -158.99999999999991,-9.00000000000001 -160.83937778925818,-11.752823399122828 -161.4852813742385,-15.000000000000009 -160.83937778925818,-18.24717660087719 -158.99999999999991,-21.000000000000007 -149.99999999999991,-30.000000000000004 -134.99999999999991,-45.0 -119.99999999999991,-59.99999999999999 -104.99999999999991,-74.99999999999999 -89.99999999999991,-89.99999999999999 -80.99999999999991,-98.99999999999999 -79.16062221074165,-101.7528233991228 -78.51471862576133,-104.99999999999999 -79.16062221074165,-108.24717660087717 -80.99999999999991,-110.99999999999999 -89.99999999999991,-119.99999999999999 -98.99999999999991,-128.99999999999997 -101.75282339912273,-130.83937778925824 -104.99999999999991,-131.48528137423855 -108.2471766008771,-130.83937778925824 -110.99999999999991,-128.99999999999997 -119.99999999999991,-119.99999999999997 -128.99999999999991,-110.99999999999997 -131.75282339912272,-109.1606222107417 -134.9999999999999,-108.51471862576139 -138.24717660087705,-109.1606222107417 -140.99999999999986,-110.99999999999997 -149.99999999999986,-119.99999999999997" stroke="#ff6b6b" fill="none" stroke-width="2.5" stroke-linecap="round" stroke-linejoin="round"/><text x="-99.99999999999997" y="-12" fill="#ff6b6b" stroke-width="0.0" font-family="Times New Roman" font-size="12.0pt">l</text><text x="-129.99999999999997" y="6" fill="#ff6b6b" stroke-width="0.0" font-family="Times New Roman" font-size="12.0pt">R</text><text x="-159.99999999999991" y="-12" fill="#ff6b6b" stroke-width="0.0" font-family="Times New Roman" font-size="12.0pt">r</text><text x="-135.99999999999991" y="-48" fill="#ff6b6b" stroke-width="0.0" font-family="Times New Roman" font-size="12.0pt">S</text><text x="-105.99999999999991" y="-78" fill="#ff6b6b" stroke-width="0.0" font-family="Times New Roman" font-size="12.0pt">S</text><text x="-81.99999999999991" y="-102" fill="#ff6b6b" stroke-width="0.0" font-family="Times New Roman" font-size="12.0pt">L</text><text x="-99.99999999999991" y="-132" fill="#ff6b6b" stroke-width="0.0" font-family="Times New Roman" font-size="12.0pt">l</text><text x="-129.99999999999991" y="-114" fill="#ff6b6b" stroke-width="0.0" font-family="Times New Roman" font-size="12.0pt">R</text><polyline points="-149.99999999999986,-119.99999999999997 -158.99999999999986,-128.99999999999997 -160.83937778925812,-131.75282339912278 -161.48528137423844,-134.99999999999994 -160.83937778925812,-138.2471766008771 -158.99999999999986,-140.99999999999991 -149.99999999999986,-149.99999999999991 -134.99999999999986,-164.99999999999991 -119.99999999999986,-179.99999999999991 -110.99999999999986,-188.99999999999991 -108.24717660087704,-190.83937778925818 -104.99999999999986,-191.4852813742385 -101.75282339912268,-190.83937778925818 -98.99999999999986,-188.99999999999991 -89.99999999999986,-179.99999999999991 -80.99999999999986,-170.99999999999991 -78.24717660087704,-169.16062221074165 -74.99999999999986,-168.51471862576133 -71.75282339912268,-169.16062221074165 -68.99999999999986,-170.99999999999991 -59.99999999999986,-179.99999999999991 -50.99999999999986,-188.99999999999991 -48.24717660087704,-190.83937778925818 -44.99999999999986,-191.4852813742385 -41.752823399122676,-190.83937778925818 -38.99999999999986,-188.99999999999991 -29.99999999999986,-179.99999999999991 -20.999999999999865,-170.99999999999991 -18.247176600877047,-169.16062221074165 -14.999999999999867,-168.51471862576133 -11.752823399122686,-169.16062221074165 -8.999999999999869,-170.99999999999991 1.2789769243681803e-13,-179.99999999999991 15.000000000000123,-194.99999999999991 30.000000000000117,-209.99999999999991 39.000000000000114,-218.99999999999991 40.83937778925837,-221.75282339912272 41.48528137423868,-224.9999999999999 40.83937778925837,-228.24717660087705 39.000000000000114,-230.99999999999986 30.000000000000117,-239.99999999999986 21.00000000000012,-248.99999999999986 18.247176600877303,-250.83937778925812" stroke="#ff6b6b" fill="none" stroke-width="2.5" stroke-linecap="round" stroke-linejoin="round"/><text x="-159.99999999999986" y="-132" fill="#ff6b6b" stroke-width="0.0" font-family="Times New Roman" font-size="12.0pt">r</text><text x="-135.99999999999986" y="-168" fill="#ff6b6b" stroke-width="0.0" font-family="Times New Roman" font-size="12.0pt">S</text><text x="-111.99999999999986" y="-192" fill="#ff6b6b" stroke-width="0.0" font-family="Times New Roman" font-size="12.0pt">R</text><text x="-81.99999999999986" y="-174" fill="#ff6b6b" stroke-width="0.0" font-family="Times New Roman" font-size="12.0pt">l</text><text x="-51.99999999999986" y="-192" fill="#ff6b6b" stroke-width="0.0" font-family="Times New Roman" font-size="12.0pt">R</text><text x="-21.999999999999865" y="-174" fill="#ff6b6b" stroke-width="0.0" font-family="Times New Roman" font-size="12.0pt">l</text><text x="14.000000000000123" y="-198" fill="#ff6b6b" stroke-width="0.0" font-family="Times New Roman" font-size="12.0pt">S</text><text x="38.000000000000114" y="-222" fill="#ff6b6b" stroke-width="0.0" font-family="Times New Roman" font-size="12.0pt">L</text><text x="20.00000000000012" y="-252" fill="#ff6b6b" stroke-width="0.0" font-family="Times New Roman" font-size="12.0pt">l</text><polyline points="18.247176600877303,-250.83937778925812 15.000000000000123,-251.48528137423844 11.752823399122942,-250.83937778925812 9.000000000000124,-248.99999999999986 1.2789769243681803e-13,-239.99999999999986" stroke="#ff6b6b" fill="none" stroke-width="2.5" stroke-linecap="round" stroke-linejoin="round"/><polyline points="0.0,0.0 8.999999999999996,8.999999999999995 10.839377789258254,11.75282339912281 11.485281374238566,14.999999999999991 10.839377789258256,18.24717660087717 8.999999999999998,20.99999999999999 3.552713678800501e-15,29.999999999999986 -8.999999999999991,38.999999999999986 -11.752823399122807,40.83937778925824 -14.999999999999988,41.485281374238554 -18.247176600877168,40.83937778925824 -20.999999999999986,38.999999999999986 -29.999999999999982,29.999999999999993 -44.99999999999998,15.0 -59.99999999999997,7.105427357601002e-15 -68.99999999999997,-8.999999999999988 -70.83937778925824,-11.752823399122803 -71.48528137423855,-14.999999999999984 -70.83937778925824,-18.247176600877165 -68.99999999999997,-20.999999999999982 -59.99999999999998,-29.99999999999998 -50.999999999999986,-38.99999999999997 -49.16062221074173,-41.75282339912279 -48.51471862576142,-44.99999999999997 -49.16062221074173,-48.247176600877154 -50.999999999999986,-50.99999999999997 -59.999999999999986,-59.999999999999964 -68.99999999999999,-68.99999999999996 -70.83937778925825,-71.75282339912278 -71.48528137423857,-74.99999999999996 -70.83937778925825,-78.24717660087714 -68.99999999999999,-80.99999999999996 -59.999999999999986,-89.99999999999996 -50.999999999999986,-98.99999999999996 -48.24717660087717,-100.83937778925822 -44.999999999999986,-101.48528137423854 -41.7528233991228,-100.83937778925822 -38.999999999999986,-98.99999999999996 -29.99999999999999,-89.99999999999996 -20.999999999999993,-80.99999999999996 -18.247176600877175,-79.16062221074169 -14.999999999999995,-78.51471862576138 -11.752823399122814,-79.16062221074169" stroke="#1e90ff" fill="none" stroke-width="2.5" stroke-linecap="round" stroke-linejoin="round"/><text x="7.9999999999999964" y="6" fill="#1e90ff" stroke-width="0.0" font-family="Times New Roman" font-size="12.0pt">R</text><text x="-9.999999999999991" y="36" fill="#1e90ff" stroke-width="0.0" font-family="Times New Roman" font-size="12.0pt">r</text><text x="-45.99999999999998" y="12" fill="#1e90ff" stroke-width="0.0" font-family="Times New Roman" font-size="12.0pt">S</text><text x="-69.99999999999997" y="-12" fill="#1e90ff" stroke-width="0.0" font-family="Times New Roman" font-size="12.0pt">R</text><text x="-51.999999999999986" y="-42" fill="#1e90ff" stroke-width="0.0" font-family="Times New Roman" font-size="12.0pt">l</text><text x="-69.99999999999999" y="-72" fill="#1e90ff" stroke-width="0.0" font-family="Times New Roman" font-size="12.0pt">R</text><text x="-51.999999999999986" y="-102" fill="#1e90ff" stroke-width="0.0" font-family="Times New Roman" font-size="12.0pt">r</text><text x="-21.999999999999993" y="-84" fill="#1e90ff" stroke-width="0.0" font-family="Times New Roman" font-size="12.0pt">L</text><polyline points="-11.752823399122814,-79.16062221074169 -8.999999999999996,-80.99999999999996 0.0,-89.99999999999996 8.999999999999996,-98.99999999999996 10.839377789258254,-101.75282339912278 11.485281374238564,-104.99999999999996 10.839377789258254,-108.24717660087714 8.999999999999996,-110.99999999999996 0.0,-119.99999999999996 -8.999999999999996,-128.99999999999994 -10.839377789258254,-131.75282339912275 -11.485281374238564,-134.99999999999991 -10.839377789258254,-138.24717660087708 -8.999999999999996,-140.9999999999999 0.0,-149.9999999999999 8.999999999999996,-158.9999999999999 11.752823399122814,-160.83937778925815 14.999999999999995,-161.48528137423847 18.247176600877175,-160.83937778925815 20.999999999999993,-158.9999999999999 29.99999999999999,-149.9999999999999 38.999999999999986,-140.9999999999999 41.7528233991228,-139.16062221074162 44.999999999999986,-138.5147186257613 48.24717660087717,-139.16062221074162 50.999999999999986,-140.9999999999999 59.999999999999986,-149.9999999999999 68.99999999999999,-158.9999999999999 70.83937778925825,-161.7528233991227 71.48528137423857,-164.99999999999986 70.83937778925825,-168.24717660087703 68.99999999999999,-170.99999999999983 59.999999999999986,-179.99999999999983 50.999999999999986,-188.99999999999983 49.16062221074173,-191.75282339912263 48.51471862576142,-194.9999999999998 49.16062221074173,-198.24717660087697 50.999999999999986,-200.99999999999977 59.999999999999986,-209.99999999999977 68.99999999999999,-218.99999999999977 70.83937778925825,-221.75282339912258 71.48528137423857,-224.99999999999974 70.83937778925825,-228.2471766008769" stroke="#1e90ff" fill="none" stroke-width="2.5" stroke-linecap="round" stroke-linejoin="round"/><text x="7.9999999999999964" y="-102" fill="#1e90ff" stroke-width="0.0" font-family="Times New Roman" font-size="12.0pt">l</text><text x="-9.999999999999996" y="-132" fill="#1e90ff" stroke-width="0.0" font-family="Times New Roman" font-size="12.0pt">R</text><text x="7.9999999999999964" y="-162" fill="#1e90ff" stroke-width="0.0" font-family="Times New Roman" font-size="12.0pt">r</text><text x="37.999999999999986" y="-144" fill="#1e90ff" stroke-width="0.0" font-family="Times New Roman" font-size="12.0pt">L</text><text x="67.99999999999999" y="-162" fill="#1e90ff" stroke-width="0.0" font-family="Times New Roman" font-size="12.0pt">l</text><text x="49.999999999999986" y="-192" fill="#1e90ff" stroke-width="0.0" font-family="Times New Roman" font-size="12.0pt">R</text><text x="67.99999999999999" y="-222" fill="#1e90ff" stroke-width="0.0" font-family="Times New Roman" font-size="12.0pt">l</text><polyline points="70.83937778925825,-228.2471766008769 68.99999999999999,-230.99999999999972 59.999999999999986,-239.99999999999972 44.99999999999999,-254.99999999999972 30.0,-269.9999999999997 21.000000000000004,-278.9999999999997 18.247176600877186,-280.839377789258 15.000000000000005,-281.4852813742383 11.752823399122825,-280.839377789258 9.000000000000007,-278.9999999999997 1.0658141036401503e-14,-269.9999999999997 -8.999999999999986,-260.9999999999997 -10.839377789258243,-258.2471766008769 -11.485281374238554,-254.99999999999974 -10.839377789258243,-251.75282339912258 -8.999999999999986,-248.99999999999977 1.0658141036401503e-14,-239.99999999999977" stroke="#1e90ff" fill="none" stroke-width="2.5" stroke-linecap="round" stroke-linejoin="round"/><text x="43.99999999999999" y="-258" fill="#1e90ff" stroke-width="0.0" font-family="Times New Roman" font-size="12.0pt">S</text><text x="20.000000000000004" y="-282" fill="#1e90ff" stroke-width="0.0" font-family="Times New Roman" font-size="12.0pt">L</text><text x="-9.999999999999986" y="-264" fill="#1e90ff" stroke-width="0.0" font-family="Times New Roman" font-size="12.0pt">l</text><polyline points="0.0,0.0 5.999999999999997,3.3306690738754696e-16 14.999999999999993,8.326672684688674e-16 23.99999999999999,1.3322676295501878e-15 26.296100594190527,0.4567228049322807 28.242640687119273,1.7573593128807155 29.54327719506771,3.7038994058094614 29.99999999999999,5.999999999999999 29.99999999999999,14.999999999999996 29.99999999999999,23.999999999999993 29.54327719506771,26.29610059419053 28.242640687119273,28.242640687119277 26.296100594190527,29.543277195067713 23.99999999999999,29.999999999999993 14.999999999999993,29.999999999999993 5.9999999999999964,29.999999999999993 3.7038994058094588,30.456722804932273 1.757359312880713,31.75735931288071 0.45672280493227824,33.70389940580945 -1.0547118733938987e-15,35.999999999999986 -1.0547118733938987e-15,44.999999999999986 -1.0547118733938987e-15,53.999999999999986 -0.4567228049322803,56.29610059419052 -1.757359312880715,58.24264068711926 -3.7038994058094605,59.543277195067695 -5.999999999999998,59.99999999999997 -14.999999999999995,59.99999999999997 -23.999999999999993,59.99999999999997 -26.29610059419053,59.543277195067695 -28.242640687119277,58.24264068711926 -29.543277195067713,56.29610059419052 -29.999999999999993,53.999999999999986 -29.999999999999993,44.999999999999986 -29.999999999999993,35.999999999999986 -30.456722804932273,33.70389940580945 -31.75735931288071,31.757359312880705 -33.70389940580945,30.45672280493227 -35.999999999999986,29.99999999999999 -44.999999999999986,29.99999999999999 -53.999999999999986,29.99999999999999 -56.29610059419052,30.45672280493227 -58.24264068711926,31.757359312880705 -59.543277195067695,33.70389940580945" stroke="#000" fill="none" stroke-width="2.5" stroke-linecap="round" stroke-linejoin="round"/><polyline points="-59.543277195067695,33.70389940580945 -59.99999999999997,35.999999999999986 -59.99999999999997,44.999999999999986 -59.99999999999997,53.999999999999986 -60.45672280493225,56.29610059419052 -61.75735931288068,58.24264068711926 -63.70389940580942,59.543277195067695 -65.99999999999996,59.99999999999997 -74.99999999999996,59.99999999999997 -83.99999999999996,59.99999999999997 -86.29610059419049,59.543277195067695 -88.24264068711923,58.24264068711926 -89.54327719506767,56.29610059419052 -89.99999999999996,53.999999999999986 -89.99999999999996,44.999999999999986 -89.99999999999996,35.999999999999986 -89.54327719506767,33.70389940580945 -88.24264068711923,31.757359312880705 -86.29610059419049,30.45672280493227 -83.99999999999996,29.99999999999999 -74.99999999999996,29.99999999999999 -65.99999999999996,29.99999999999999 -63.70389940580942,29.54327719506771 -61.75735931288068,28.242640687119273 -60.45672280493225,26.296100594190527 -59.99999999999997,23.99999999999999 -59.99999999999997,14.999999999999993 -59.99999999999997,5.9999999999999964 -60.45672280493225,3.7038994058094588 -61.75735931288068,1.757359312880713 -63.70389940580942,0.45672280493227824 -65.99999999999996,-1.0547118733938987e-15 -74.99999999999996,-1.0547118733938987e-15 -83.99999999999996,-1.0547118733938987e-15 -86.29610059419049,-0.4567228049322803 -88.24264068711923,-1.757359312880715 -89.54327719506767,-3.7038994058094605 -89.99999999999996,-5.999999999999998 -89.99999999999996,-14.999999999999995 -89.99999999999996,-23.999999999999993 -90.45672280493224,-26.29610059419053 -91.75735931288068,-28.242640687119277 -93.70389940580942,-29.543277195067713" stroke="#000" fill="none" stroke-width="2.5" stroke-linecap="round" stroke-linejoin="round"/><polyline points="-93.70389940580942,-29.543277195067713 -95.99999999999996,-29.999999999999993 -104.99999999999996,-29.999999999999993 -113.99999999999996,-29.999999999999993 -116.29610059419049,-29.543277195067713 -118.24264068711923,-28.242640687119277 -119.54327719506767,-26.29610059419053 -119.99999999999996,-23.999999999999993 -119.99999999999996,-14.999999999999996 -119.99999999999996,-6.0 -120.45672280493224,-3.7038994058094623 -121.75735931288068,-1.7573593128807166 -123.70389940580942,-0.4567228049322818 -125.99999999999996,-2.4980018054066022e-15 -134.99999999999994,-2.4980018054066022e-15 -143.99999999999994,-2.4980018054066022e-15 -146.29610059419048,-0.45672280493228173 -148.24264068711923,-1.7573593128807166 -149.54327719506767,-3.7038994058094623 -149.99999999999994,-6.0 -149.99999999999994,-14.999999999999996 -149.99999999999994,-23.999999999999993 -149.54327719506767,-26.29610059419053 -148.24264068711923,-28.242640687119277 -146.29610059419048,-29.543277195067713 -143.99999999999994,-29.999999999999993 -134.99999999999994,-29.999999999999993 -125.99999999999994,-29.999999999999993 -123.70389940580941,-30.456722804932273 -121.75735931288067,-31.75735931288071 -120.45672280493223,-33.70389940580945 -119.99999999999994,-35.999999999999986 -119.99999999999994,-44.999999999999986 -119.99999999999994,-53.999999999999986 -119.54327719506766,-56.29610059419052 -118.24264068711922,-58.24264068711926 -116.29610059419048,-59.543277195067695 -113.99999999999994,-59.99999999999997 -104.99999999999994,-59.99999999999997 -95.99999999999994,-59.99999999999997 -93.70389940580941,-59.543277195067695 -91.75735931288067,-58.24264068711926 -90.45672280493223,-56.29610059419052" stroke="#000" fill="none" stroke-width="2.5" stroke-linecap="round" stroke-linejoin="round"/><polyline points="-90.45672280493223,-56.29610059419052 -89.99999999999994,-53.999999999999986 -89.99999999999994,-44.999999999999986 -89.99999999999994,-35.999999999999986 -89.54327719506766,-33.70389940580945 -88.24264068711922,-31.757359312880705 -86.29610059419048,-30.45672280493227 -83.99999999999994,-29.99999999999999 -74.99999999999994,-29.99999999999999 -65.99999999999994,-29.99999999999999 -63.70389940580941,-30.45672280493227 -61.757359312880666,-31.757359312880705 -60.456722804932234,-33.70389940580945 -59.99999999999996,-35.999999999999986 -59.99999999999996,-44.999999999999986 -59.99999999999996,-53.999999999999986 -60.456722804932234,-56.29610059419052 -61.757359312880666,-58.24264068711926 -63.70389940580941,-59.543277195067695 -65.99999999999994,-59.99999999999997 -74.99999999999994,-59.99999999999997 -83.99999999999994,-59.99999999999997 -86.29610059419048,-60.45672280493225 -88.24264068711922,-61.75735931288068 -89.54327719506766,-63.70389940580942 -89.99999999999994,-65.99999999999996 -89.99999999999994,-74.99999999999996 -89.99999999999994,-83.99999999999996 -89.54327719506766,-86.29610059419049 -88.24264068711922,-88.24264068711923 -86.29610059419048,-89.54327719506767 -83.99999999999994,-89.99999999999996 -74.99999999999994,-89.99999999999996 -65.99999999999994,-89.99999999999996 -63.70389940580941,-90.45672280493224 -61.757359312880666,-91.75735931288068 -60.456722804932234,-93.70389940580942 -59.99999999999996,-95.99999999999996 -59.99999999999996,-104.99999999999996 -59.99999999999996,-113.99999999999996 -60.456722804932234,-116.29610059419049 -61.757359312880666,-118.24264068711923 -63.70389940580941,-119.54327719506767" stroke="#000" fill="none" stroke-width="2.5" stroke-linecap="round" stroke-linejoin="round"/><polyline points="-63.70389940580941,-119.54327719506767 -65.99999999999994,-119.99999999999996 -74.99999999999994,-119.99999999999996 -83.99999999999994,-119.99999999999996 -86.29610059419048,-120.45672280493224 -88.24264068711922,-121.75735931288068 -89.54327719506766,-123.70389940580942 -89.99999999999994,-125.99999999999996 -89.99999999999994,-134.99999999999994 -89.99999999999994,-143.99999999999994 -90.45672280493223,-146.29610059419048 -91.75735931288067,-148.24264068711923 -93.70389940580941,-149.54327719506767 -95.99999999999994,-149.99999999999994 -104.99999999999994,-149.99999999999994 -113.99999999999994,-149.99999999999994 -116.29610059419048,-149.54327719506767 -118.24264068711922,-148.24264068711923 -119.54327719506766,-146.29610059419048 -119.99999999999994,-143.99999999999994 -119.99999999999994,-134.99999999999994 -119.99999999999994,-125.99999999999994 -120.45672280493223,-123.70389940580941 -121.75735931288067,-121.75735931288067 -123.70389940580941,-120.45672280493223 -125.99999999999994,-119.99999999999994 -134.99999999999994,-119.99999999999994 -143.99999999999994,-119.99999999999994 -146.29610059419048,-120.45672280493223 -148.24264068711923,-121.75735931288067 -149.54327719506767,-123.70389940580941 -149.99999999999994,-125.99999999999994 -149.99999999999994,-134.99999999999994 -149.99999999999994,-143.99999999999994 -149.54327719506767,-146.29610059419048 -148.24264068711923,-148.24264068711923 -146.29610059419048,-149.54327719506767 -143.99999999999994,-149.99999999999994 -134.99999999999994,-149.99999999999994 -125.99999999999994,-149.99999999999994 -123.70389940580941,-150.4567228049322 -121.75735931288067,-151.75735931288065 -120.45672280493223,-153.7038994058094" stroke="#000" fill="none" stroke-width="2.5" stroke-linecap="round" stroke-linejoin="round"/><polyline points="-120.45672280493223,-153.7038994058094 -119.99999999999994,-155.99999999999994 -119.99999999999994,-164.99999999999994 -119.99999999999994,-173.99999999999994 -119.54327719506766,-176.29610059419048 -118.24264068711922,-178.24264068711923 -116.29610059419048,-179.54327719506767 -113.99999999999994,-179.99999999999994 -104.99999999999994,-179.99999999999994 -95.99999999999994,-179.99999999999994 -93.70389940580941,-179.54327719506767 -91.75735931288067,-178.24264068711923 -90.45672280493223,-176.29610059419048 -89.99999999999994,-173.99999999999994 -89.99999999999994,-164.99999999999994 -89.99999999999994,-155.99999999999994 -89.54327719506766,-153.7038994058094 -88.24264068711922,-151.75735931288065 -86.29610059419048,-150.4567228049322 -83.99999999999994,-149.99999999999994 -74.99999999999994,-149.99999999999994 -65.99999999999994,-149.99999999999994 -63.70389940580941,-150.4567228049322 -61.757359312880666,-151.75735931288065 -60.456722804932234,-153.7038994058094 -59.99999999999996,-155.99999999999994 -59.99999999999996,-164.99999999999994 -59.99999999999996,-173.99999999999994 -59.54327719506768,-176.29610059419048 -58.24264068711925,-178.24264068711923 -56.296100594190506,-179.54327719506767 -53.99999999999997,-179.99999999999994 -44.99999999999997,-179.99999999999994 -35.99999999999997,-179.99999999999994 -33.70389940580944,-179.54327719506767 -31.75735931288069,-178.24264068711923 -30.456722804932255,-176.29610059419048 -29.999999999999975,-173.99999999999994 -29.999999999999975,-164.99999999999994 -29.999999999999975,-155.99999999999994 -30.456722804932255,-153.7038994058094 -31.75735931288069,-151.75735931288065 -33.70389940580944,-150.4567228049322" stroke="#000" fill="none" stroke-width="2.5" stroke-linecap="round" stroke-linejoin="round"/><polyline points="-33.70389940580944,-150.4567228049322 -35.99999999999997,-149.99999999999994 -44.99999999999997,-149.99999999999994 -53.99999999999997,-149.99999999999994 -56.296100594190506,-149.54327719506767 -58.24264068711925,-148.24264068711923 -59.54327719506768,-146.29610059419048 -59.99999999999996,-143.99999999999994 -59.99999999999996,-134.99999999999994 -59.99999999999996,-125.99999999999994 -59.54327719506768,-123.70389940580941 -58.24264068711925,-121.75735931288067 -56.296100594190506,-120.45672280493223 -53.99999999999997,-119.99999999999994 -44.99999999999997,-119.99999999999994 -35.99999999999997,-119.99999999999994 -33.70389940580944,-119.54327719506766 -31.75735931288069,-118.24264068711922 -30.456722804932255,-116.29610059419048 -29.999999999999975,-113.99999999999994 -29.999999999999975,-104.99999999999994 -29.999999999999975,-95.99999999999994 -29.543277195067695,-93.70389940580941 -28.24264068711926,-91.75735931288067 -26.296100594190513,-90.45672280493223 -23.999999999999975,-89.99999999999994 -14.999999999999979,-89.99999999999994 -5.999999999999982,-89.99999999999994 -3.7038994058094445,-90.45672280493223 -1.7573593128806988,-91.75735931288067 -0.456722804932264,-93.70389940580941 1.5265566588595902e-14,-95.99999999999994 1.5265566588595902e-14,-104.99999999999994 1.5265566588595902e-14,-113.99999999999994 -0.45672280493226397,-116.29610059419048 -1.7573593128806988,-118.24264068711922 -3.7038994058094445,-119.54327719506766 -5.999999999999982,-119.99999999999994 -14.999999999999979,-119.99999999999994 -23.999999999999975,-119.99999999999994 -26.296100594190513,-120.45672280493223 -28.24264068711926,-121.75735931288067 -29.543277195067695,-123.70389940580941" stroke="#000" fill="none" stroke-width="2.5" stroke-linecap="round" stroke-linejoin="round"/><polyline points="-29.543277195067695,-123.70389940580941 -29.999999999999975,-125.99999999999994 -29.999999999999975,-134.99999999999994 -29.999999999999975,-143.99999999999994 -29.543277195067695,-146.29610059419048 -28.24264068711926,-148.24264068711923 -26.296100594190513,-149.54327719506767 -23.999999999999975,-149.99999999999994 -14.999999999999979,-149.99999999999994 -5.999999999999982,-149.99999999999994 -3.7038994058094445,-150.4567228049322 -1.7573593128806988,-151.75735931288065 -0.456722804932264,-153.7038994058094 1.5265566588595902e-14,-155.99999999999994 1.5265566588595902e-14,-164.99999999999994 1.5265566588595902e-14,-173.99999999999994 0.4567228049322945,-176.29610059419048 1.7573593128807292,-178.24264068711923 3.7038994058094747,-179.54327719506767 6.000000000000012,-179.99999999999994 15.000000000000009,-179.99999999999994 24.000000000000007,-179.99999999999994 26.296100594190545,-179.54327719506767 28.24264068711929,-178.24264068711923 29.543277195067727,-176.29610059419048 30.000000000000007,-173.99999999999994 30.000000000000007,-164.99999999999994 30.000000000000007,-155.99999999999994 30.456722804932287,-153.7038994058094 31.757359312880723,-151.75735931288065 33.703899405809466,-150.4567228049322 36.0,-149.99999999999994 45.0,-149.99999999999994 54.0,-149.99999999999994 56.296100594190534,-150.4567228049322 58.24264068711928,-151.75735931288065 59.54327719506771,-153.7038994058094 59.999999999999986,-155.99999999999994 59.999999999999986,-164.99999999999994 59.999999999999986,-173.99999999999994 59.54327719506771,-176.29610059419048 58.24264068711928,-178.24264068711923 56.296100594190534,-179.54327719506767" stroke="#000" fill="none" stroke-width="2.5" stroke-linecap="round" stroke-linejoin="round"/><polyline points="56.296100594190534,-179.54327719506767 54.0,-179.99999999999994 45.0,-179.99999999999994 36.0,-179.99999999999994 33.703899405809466,-180.4567228049322 31.75735931288072,-181.75735931288065 30.456722804932284,-183.7038994058094 30.000000000000004,-185.99999999999994 30.000000000000004,-194.99999999999994 30.000000000000004,-203.99999999999994 30.456722804932284,-206.29610059419048 31.75735931288072,-208.24264068711923 33.703899405809466,-209.54327719506767 36.0,-209.99999999999994 45.0,-209.99999999999994 54.0,-209.99999999999994 56.296100594190534,-210.4567228049322 58.24264068711928,-211.75735931288065 59.54327719506771,-213.7038994058094 59.999999999999986,-215.99999999999994 59.999999999999986,-224.99999999999994 59.999999999999986,-233.99999999999994 59.54327719506771,-236.29610059419048 58.24264068711928,-238.24264068711923 56.296100594190534,-239.54327719506767 54.0,-239.99999999999994 45.0,-239.99999999999994 36.0,-239.99999999999994 33.703899405809466,-240.4567228049322 31.75735931288072,-241.75735931288065 30.456722804932284,-243.7038994058094 30.000000000000004,-245.99999999999994 30.000000000000004,-254.99999999999994 30.000000000000004,-263.99999999999994 29.543277195067724,-266.2961005941905 28.242640687119287,-268.2426406871192 26.29610059419054,-269.5432771950676 24.000000000000004,-269.9999999999999 15.000000000000007,-269.9999999999999 6.000000000000011,-269.9999999999999 3.703899405809473,-269.5432771950676 1.7573593128807272,-268.2426406871192 0.45672280493229245,-266.2961005941905" stroke="#000" fill="none" stroke-width="2.5" stroke-linecap="round" stroke-linejoin="round"/><polyline points="0.45672280493229245,-266.2961005941905 1.3156142841808105e-14,-263.99999999999994 1.3156142841808105e-14,-254.99999999999994 1.3156142841808105e-14,-245.99999999999994 1.3156142841808105e-14,-239.99999999999994" stroke="#000" fill="none" stroke-width="2.5" stroke-linecap="round" stroke-linejoin="round"/><polygon points="1.3156142841808105e-14,-239.99999999999994 5.000000000000013,-248.99999999999994 1.3156142841808105e-14,-246.99999999999994 -4.999999999999987,-248.99999999999994" stroke="#000" fill="#000" fill-rule="evenodd" stroke-linejoin="round"/></svg>