<?xml version="1.0" ?><!DOCTYPE svg  PUBLIC '-//W3C//DTD SVG 1.1//EN'  'http://www.w3.org/Graphics/SVG/1.1/DTD/svg11.dtd'><svg xmlns="http://www.w3.org/2000/svg" width="69.000" height="77.000" viewBox="-14.000 -33.000 69.000 77.000"><line x1="0.0" y1="0.0" x2="0.0" y2="0.0" stroke="none" fill="none" stroke-width="2.0" stroke-linecap="round"/><polyline points="0.0,0.0 9.0,-8.999999999999998 11.752823399122818,-10.839377789258258 15.0,-11.485281374238568 18.247176600877182,-10.839377789258256 21.0,-8.999999999999996 29.999999999999996,1.7763568394002505e-15 38.99999999999999,9.0 40.83937778925825,11.752823399122818 41.48528137423856,15.0 40.83937778925825,18.247176600877182 38.99999999999999,21.0 29.999999999999993,29.999999999999993" stroke="#ff6b6b" fill="none" stroke-width="2.5" stroke-linecap="round" stroke-linejoin="round"/><text x="8.0" y="-12" fill="#ff6b6b" stroke-width="0.0" font-family="Times New Roman" font-size="12.0pt">R</text><text x="37.99999999999999" y="6" fill="#ff6b6b" stroke-width="0.0" font-family="Times New Roman" font-size="12.0pt">r</text><polyline points="0.0,0.0 14.999999999999993,14.999999999999995 29.999999999999986,29.99999999999999" stroke="#1e90ff" fill="none" stroke-width="2.5" stroke-linecap="round" stroke-linejoin="round"/><text x="13.999999999999993" y="12" fill="#1e90ff" stroke-width="0.0" font-family="Times New Roman" font-size="12.0pt">S</text><polyline points="0.0,0.0 5.999999999999997,9.992007221626409e-16 14.999999999999993,2.4980018054066022e-15 23.99999999999999,3.9968028886505635e-15 26.296100594190527,0.4567228049322836 28.242640687119273,1.7573593128807186 29.54327719506771,3.703899405809464 29.99999999999999,6.000000000000002 29.99999999999999,14.999999999999996 29.99999999999999,23.999999999999993 29.99999999999999,29.99999999999999" stroke="#000" fill="none" stroke-width="2.5" stroke-linecap="round" stroke-linejoin="round"/><polygon points="29.99999999999999,29.99999999999999 34.99999999999999,20.999999999999993 29.99999999999999,22.99999999999999 24.999999999999993,20.999999999999986" stroke="#000" fill="#000" fill-rule="evenodd" stroke-linejoin="round"/></svg>