<?xml version="1.0" ?><!DOCTYPE svg  PUBLIC '-//W3C//DTD SVG 1.1//EN'  'http://www.w3.org/Graphics/SVG/1.1/DTD/svg11.dtd'><svg xmlns="http://www.w3.org/2000/svg" width="64.000" height="57.000" viewBox="-20.000 -35.000 64.000 57.000"><line x1="0.0" y1="0.0" x2="0.0" y2="0.0" stroke="none" fill="none" stroke-width="2.0" stroke-linecap="round"/><polygon points="0.0,0.0 0.0,0.0 0.0,0.0" fill="none" fill-rule="evenodd" stroke-linejoin="round"/><polyline points="0.0,0.0 -7.499999999999998,-7.499999999999999 8.881784197001252e-16,-14.999999999999996 7.5,-22.499999999999993 14.999999999999998,-14.999999999999993 22.499999999999996,-7.499999999999994 29.999999999999993,5.329070518200751e-15" stroke="#ff6b6b" fill="none" stroke-width="3.0" stroke-linecap="round" stroke-linejoin="round"/><polyline points="0.0,0.0 7.500000000000001,-7.499999999999997 14.999999999999998,3.552713678800501e-15 22.499999999999996,7.500000000000004 29.999999999999996,7.105427357601002e-15" stroke="#1e90ff" fill="none" stroke-width="3.0" stroke-linecap="round" stroke-linejoin="round"/><polyline points="0.0,0.0 0.0,-0.0 2.124577086617992e-15,-7.499999999999998 4.249154173235984e-15,-14.999999999999996 7.500000000000003,-14.999999999999995 15.0,-14.999999999999993 14.999999999999998,-7.499999999999995 14.999999999999996,3.552713678800501e-15 22.499999999999993,5.218048215738236e-15 29.999999999999993,6.8833827526759706e-15 29.999999999999993,6.8833827526759706e-15" stroke="#000" fill="none" stroke-linecap="round" stroke-linejoin="round"/></svg>