<?xml version="1.0" ?><!DOCTYPE svg  PUBLIC '-//W3C//DTD SVG 1.1//EN'  'http://www.w3.org/Graphics/SVG/1.1/DTD/svg11.dtd'><svg xmlns="http://www.w3.org/2000/svg" width="79.000" height="107.000" viewBox="-24.000 -33.000 79.000 107.000"><line x1="0.0" y1="0.0" x2="0.0" y2="0.0" stroke="none" fill="none" stroke-width="2.0" stroke-linecap="round"/><polyline points="0.0,0.0 9.0,-8.999999999999998 11.752823399122818,-10.839377789258258 15.0,-11.485281374238568 18.247176600877182,-10.839377789258256 21.0,-8.999999999999996 29.999999999999996,1.7763568394002505e-15 38.99999999999999,9.0 40.83937778925825,11.752823399122818 41.48528137423856,15.0 40.83937778925825,18.247176600877182 38.99999999999999,21.0 29.999999999999993,29.999999999999993 14.999999999999996,44.999999999999986 0.0,59.99999999999998" stroke="#ff6b6b" fill="none" stroke-width="2.5" stroke-linecap="round" stroke-linejoin="round"/><text x="8.0" y="-12" fill="#ff6b6b" stroke-width="0.0" font-family="Times New Roman" font-size="12.0pt">R</text><text x="37.99999999999999" y="6" fill="#ff6b6b" stroke-width="0.0" font-family="Times New Roman" font-size="12.0pt">r</text><text x="13.999999999999996" y="42" fill="#ff6b6b" stroke-width="0.0" font-family="Times New Roman" font-size="12.0pt">S</text><polyline points="0.0,0.0 8.999999999999995,8.999999999999996 10.839377789258252,11.752823399122814 11.485281374238562,14.999999999999995 10.83937778925825,18.247176600877175 8.999999999999991,20.999999999999993 -5.329070518200751e-15,29.999999999999986 -9.000000000000002,38.99999999999998 -10.839377789258261,41.752823399122796 -11.485281374238573,44.99999999999998 -10.839377789258263,48.24717660087716 -9.000000000000005,50.99999999999998 -8.881784197001252e-15,59.99999999999997" stroke="#1e90ff" fill="none" stroke-width="2.5" stroke-linecap="round" stroke-linejoin="round"/><text x="7.999999999999995" y="6" fill="#1e90ff" stroke-width="0.0" font-family="Times New Roman" font-size="12.0pt">R</text><text x="-10.000000000000002" y="36" fill="#1e90ff" stroke-width="0.0" font-family="Times New Roman" font-size="12.0pt">l</text><polyline points="0.0,0.0 5.999999999999997,3.3306690738754696e-16 14.999999999999993,8.326672684688674e-16 23.99999999999999,1.3322676295501878e-15 26.296100594190527,0.4567228049322807 28.242640687119273,1.7573593128807155 29.54327719506771,3.7038994058094614 29.99999999999999,5.999999999999999 29.99999999999999,14.999999999999996 29.99999999999999,23.999999999999993 29.54327719506771,26.29610059419053 28.242640687119273,28.242640687119277 26.296100594190527,29.543277195067713 23.99999999999999,29.999999999999993 14.999999999999993,29.999999999999993 5.9999999999999964,29.999999999999993 3.7038994058094588,30.456722804932273 1.757359312880713,31.75735931288071 0.45672280493227824,33.70389940580945 -1.0547118733938987e-15,35.999999999999986 -1.0547118733938987e-15,44.999999999999986 -1.0547118733938987e-15,53.999999999999986 -1.0547118733938987e-15,59.999999999999986" stroke="#000" fill="none" stroke-width="2.5" stroke-linecap="round" stroke-linejoin="round"/><polygon points="-1.0547118733938987e-15,59.999999999999986 4.999999999999999,50.999999999999986 -1.0547118733938987e-15,52.999999999999986 -5.000000000000001,50.999999999999986" stroke="#000" fill="#000" fill-rule="evenodd" stroke-linejoin="round"/></svg>