<?xml version="1.0" ?><!DOCTYPE svg  PUBLIC '-//W3C//DTD SVG 1.1//EN'  'http://www.w3.org/Graphics/SVG/1.1/DTD/svg11.dtd'><svg xmlns="http://www.w3.org/2000/svg" width="128.000" height="98.000" viewBox="-81.000 -24.000 128.000 98.000"><line x1="0.0" y1="0.0" x2="0.0" y2="0.0" stroke="none" fill="none" stroke-width="2.0" stroke-linecap="round"/><polyline points="0.0,0.0 6.0,-0.0 15.0,-0.0 24.0,-0.0 26.296100594190538,0.4567228049322794 28.242640687119284,1.7573593128807146 29.54327719506772,3.7038994058094605 30.0,5.999999999999998 30.0,14.999999999999995 30.0,23.999999999999993 29.54327719506772,26.29610059419053 28.242640687119284,28.242640687119277 26.296100594190538,29.543277195067713 24.0,29.999999999999993 15.000000000000004,29.999999999999993 6.000000000000007,29.999999999999993 3.7038994058094694,30.456722804932273 1.7573593128807237,31.75735931288071 0.4567228049322887,33.70389940580945 9.270362255620057e-15,35.999999999999986 8.770761894538737e-15,44.999999999999986 8.271161533457416e-15,53.999999999999986 -0.4567228049322711,56.29610059419052 -1.757359312880706,58.24264068711926 -3.7038994058094517,59.543277195067695 -5.999999999999989,59.99999999999997 -14.999999999999986,59.99999999999997 -23.999999999999982,59.99999999999997 -26.29610059419052,59.543277195067695 -28.242640687119266,58.24264068711926 -29.543277195067702,56.29610059419052 -29.999999999999982,53.999999999999986 -29.999999999999982,44.999999999999986 -29.999999999999982,35.999999999999986 -30.456722804932262,33.70389940580945 -31.7573593128807,31.757359312880705 -33.703899405809445,30.45672280493227 -35.999999999999986,29.99999999999999 -44.999999999999986,29.99999999999999 -53.999999999999986,29.99999999999999 -56.29610059419052,30.45672280493227 -58.24264068711926,31.757359312880705 -59.543277195067695,33.70389940580945" stroke="#000" fill="none" stroke-width="2.5" stroke-linecap="round" stroke-linejoin="round"/><text x="14.0" y="-3" fill="#000" stroke-width="0.0" text-anchor="middle" font-family="Times New Roman" font-size="12.0pt">A</text><text x="23.0" y="-3" fill="#000" stroke-width="0.0" font-family="Times New Roman" font-size="12.0pt">+</text><text x="29.0" y="12" fill="#000" stroke-width="0.0" text-anchor="end" font-family="Times New Roman" font-size="12.0pt">B</text><text x="29.0" y="21" fill="#000" stroke-width="0.0" font-family="Times New Roman" font-size="12.0pt">+</text><text x="14.000000000000004" y="27" fill="#000" stroke-width="0.0" text-anchor="middle" font-family="Times New Roman" font-size="12.0pt">A</text><text x="5.000000000000007" y="27" fill="#000" stroke-width="0.0" font-family="Times New Roman" font-size="12.0pt">-</text><text x="-0.9999999999999912" y="42" fill="#000" stroke-width="0.0" text-anchor="end" font-family="Times New Roman" font-size="12.0pt">B</text><text x="-0.9999999999999918" y="51" fill="#000" stroke-width="0.0" font-family="Times New Roman" font-size="12.0pt">+</text><text x="-15.999999999999986" y="57" fill="#000" stroke-width="0.0" text-anchor="middle" font-family="Times New Roman" font-size="12.0pt">A</text><text x="-24.999999999999982" y="57" fill="#000" stroke-width="0.0" font-family="Times New Roman" font-size="12.0pt">+</text><text x="-30.999999999999982" y="42" fill="#000" stroke-width="0.0" text-anchor="end" font-family="Times New Roman" font-size="12.0pt">B</text><text x="-30.999999999999982" y="33" fill="#000" stroke-width="0.0" font-family="Times New Roman" font-size="12.0pt">-</text><text x="-45.999999999999986" y="27" fill="#000" stroke-width="0.0" text-anchor="middle" font-family="Times New Roman" font-size="12.0pt">A</text><text x="-54.999999999999986" y="27" fill="#000" stroke-width="0.0" font-family="Times New Roman" font-size="12.0pt">-</text><polyline points="-59.543277195067695,33.70389940580945 -59.99999999999997,35.999999999999986 -59.99999999999997,44.999999999999986 -59.99999999999997,53.999999999999986 -59.99999999999997,59.999999999999986" stroke="#000" fill="none" stroke-width="2.5" stroke-linecap="round" stroke-linejoin="round"/><text x="-60.99999999999997" y="42" fill="#000" stroke-width="0.0" text-anchor="end" font-family="Times New Roman" font-size="12.0pt">B</text><polygon points="-59.99999999999997,59.999999999999986 -54.99999999999997,50.999999999999986 -59.99999999999997,52.999999999999986 -64.99999999999997,50.999999999999986" stroke="#000" fill="#000" fill-rule="evenodd" stroke-linejoin="round"/></svg>