<?xml version="1.0" ?><!DOCTYPE svg  PUBLIC '-//W3C//DTD SVG 1.1//EN'  'http://www.w3.org/Graphics/SVG/1.1/DTD/svg11.dtd'><svg xmlns="http://www.w3.org/2000/svg" width="65.000" height="49.000" viewBox="-21.000 -28.000 65.000 49.000"><line x1="0.0" y1="0.0" x2="0.0" y2="0.0" stroke="none" fill="none" stroke-width="2.0" stroke-linecap="round"/><polygon points="0.0,0.0 0.0,0.0 0.0,0.0" fill="none" fill-rule="evenodd" stroke-linejoin="round"/><polyline points="0.0,0.0 -7.499999999999998,9.184850993605146e-16 -7.5,-7.499999999999997 -7.500000000000002,-14.999999999999996 -3.552713678800501e-15,-14.999999999999998 7.499999999999995,-15.0 14.999999999999993,-15.000000000000002 22.499999999999993,-15.000000000000004 22.499999999999996,-7.500000000000005 22.5,-7.105427357601002e-15 30.0,-8.94239755632203e-15" stroke="#ff6b6b" fill="none" stroke-width="3.0" stroke-linecap="round" stroke-linejoin="round"/><polyline points="0.0,0.0 -1.377727649040772e-15,-7.499999999999998 7.4999999999999964,-7.5 14.999999999999995,-7.500000000000002 14.999999999999996,-3.552713678800501e-15 14.999999999999998,7.499999999999995 22.499999999999996,7.499999999999993 29.999999999999993,7.499999999999991 29.999999999999993,-7.105427357601002e-15" stroke="#1e90ff" fill="none" stroke-width="3.0" stroke-linecap="round" stroke-linejoin="round"/><polyline points="0.0,0.0 0.0,-0.0 -3.7499999999999996,-3.749999999999998 -7.499999999999999,-7.499999999999996 -3.7500000000000013,-11.249999999999995 -3.552713678800501e-15,-14.999999999999995 3.749999999999996,-11.249999999999996 7.499999999999996,-7.499999999999998 11.249999999999993,-11.249999999999998 14.999999999999991,-14.999999999999998 18.74999999999999,-11.25 22.49999999999999,-7.500000000000002 18.749999999999993,-3.750000000000002 14.999999999999995,-2.6645352591003757e-15 18.749999999999993,3.749999999999995 22.499999999999993,7.499999999999993 26.24999999999999,3.7499999999999933 29.999999999999986,-6.217248937900877e-15 29.999999999999986,-6.217248937900877e-15" stroke="#000" fill="none" stroke-linecap="round" stroke-linejoin="round"/></svg>