<?xml version="1.0" ?><!DOCTYPE svg  PUBLIC '-//W3C//DTD SVG 1.1//EN'  'http://www.w3.org/Graphics/SVG/1.1/DTD/svg11.dtd'><svg xmlns="http://www.w3.org/2000/svg" width="139.000" height="118.000" viewBox="-84.000 -33.000 139.000 118.000"><line x1="0.0" y1="0.0" x2="0.0" y2="0.0" stroke="none" fill="none" stroke-width="2.0" stroke-linecap="round"/><polyline points="0.0,0.0 9.0,-8.999999999999998 11.752823399122818,-10.839377789258258 15.0,-11.485281374238568 18.247176600877182,-10.839377789258256 21.0,-8.999999999999996 29.999999999999996,1.7763568394002505e-15 38.99999999999999,9.0 40.83937778925825,11.752823399122818 41.48528137423856,15.0 40.83937778925825,18.247176600877182 38.99999999999999,21.0 29.999999999999993,29.999999999999993 14.999999999999996,44.999999999999986 0.0,59.99999999999998 -8.999999999999998,68.99999999999997 -11.752823399122816,70.83937778925824 -14.999999999999996,71.48528137423855 -18.247176600877175,70.83937778925824 -20.999999999999993,68.99999999999997 -29.999999999999986,59.99999999999997 -38.99999999999998,50.99999999999997 -41.752823399122796,49.160622210741714 -44.99999999999998,48.514718625761404 -48.24717660087716,49.160622210741714 -50.99999999999998,50.99999999999997 -59.99999999999997,59.99999999999997" stroke="#ff6b6b" fill="none" stroke-width="2.5" stroke-linecap="round" stroke-linejoin="round"/><text x="8.0" y="-12" fill="#ff6b6b" stroke-width="0.0" font-family="Times New Roman" font-size="12.0pt">R</text><text x="37.99999999999999" y="6" fill="#ff6b6b" stroke-width="0.0" font-family="Times New Roman" font-size="12.0pt">r</text><text x="13.999999999999996" y="42" fill="#ff6b6b" stroke-width="0.0" font-family="Times New Roman" font-size="12.0pt">S</text><text x="-9.999999999999998" y="66" fill="#ff6b6b" stroke-width="0.0" font-family="Times New Roman" font-size="12.0pt">R</text><text x="-39.99999999999998" y="48" fill="#ff6b6b" stroke-width="0.0" font-family="Times New Roman" font-size="12.0pt">l</text><polyline points="0.0,0.0 8.999999999999996,8.999999999999995 10.839377789258254,11.75282339912281 11.485281374238566,14.999999999999991 10.839377789258256,18.24717660087717 8.999999999999998,20.99999999999999 3.552713678800501e-15,29.999999999999986 -8.999999999999991,38.999999999999986 -11.752823399122807,40.83937778925824 -14.999999999999988,41.485281374238554 -18.247176600877168,40.83937778925824 -20.999999999999986,38.999999999999986 -29.999999999999982,29.999999999999993 -38.99999999999998,21.0 -41.752823399122796,19.160622210741742 -44.99999999999998,18.514718625761432 -48.24717660087716,19.160622210741742 -50.99999999999998,21.0 -59.99999999999997,29.999999999999996 -68.99999999999997,38.99999999999999 -70.83937778925824,41.75282339912281 -71.48528137423855,44.99999999999999 -70.83937778925824,48.247176600877175 -68.99999999999997,50.99999999999999 -59.99999999999998,59.999999999999986" stroke="#1e90ff" fill="none" stroke-width="2.5" stroke-linecap="round" stroke-linejoin="round"/><text x="7.9999999999999964" y="6" fill="#1e90ff" stroke-width="0.0" font-family="Times New Roman" font-size="12.0pt">R</text><text x="-9.999999999999991" y="36" fill="#1e90ff" stroke-width="0.0" font-family="Times New Roman" font-size="12.0pt">r</text><text x="-39.99999999999998" y="18" fill="#1e90ff" stroke-width="0.0" font-family="Times New Roman" font-size="12.0pt">L</text><text x="-69.99999999999997" y="36" fill="#1e90ff" stroke-width="0.0" font-family="Times New Roman" font-size="12.0pt">l</text><polyline points="0.0,0.0 5.9999999999999964,-0.0 14.999999999999991,-0.0 23.999999999999986,-0.0 26.296100594190523,0.45672280493227907 28.24264068711927,1.7573593128807137 29.543277195067706,3.7038994058094588 29.999999999999986,5.9999999999999964 29.999999999999986,14.999999999999993 29.999999999999986,23.99999999999999 29.543277195067706,26.296100594190527 28.24264068711927,28.242640687119273 26.296100594190523,29.54327719506771 23.999999999999986,29.99999999999999 14.99999999999999,29.99999999999999 5.999999999999993,29.99999999999999 3.703899405809455,30.45672280493227 1.7573593128807097,31.757359312880705 0.45672280493227535,33.70389940580945 -3.4416913763379853e-15,35.999999999999986 -1.6930901125533637e-15,44.99999999999998 5.551115123125783e-17,53.99999999999997 -0.4567228049322786,56.296100594190506 -1.757359312880713,58.24264068711925 -3.7038994058094583,59.54327719506768 -5.9999999999999964,59.99999999999996 -14.999999999999993,59.99999999999996 -23.99999999999999,59.99999999999996 -26.296100594190527,59.54327719506768 -28.242640687119273,58.24264068711925 -29.54327719506771,56.296100594190506 -29.99999999999999,53.99999999999997 -29.99999999999999,44.99999999999997 -29.99999999999999,35.99999999999997 -30.45672280493227,33.70389940580944 -31.757359312880705,31.75735931288069 -33.70389940580945,30.456722804932255 -35.999999999999986,29.999999999999975 -44.999999999999986,29.999999999999975 -53.999999999999986,29.999999999999975 -56.29610059419052,30.456722804932255 -58.24264068711926,31.75735931288069 -59.543277195067695,33.70389940580944" stroke="#000" fill="none" stroke-width="2.5" stroke-linecap="round" stroke-linejoin="round"/><polyline points="-59.543277195067695,33.70389940580944 -59.99999999999997,35.99999999999997 -59.99999999999997,44.99999999999997 -59.99999999999997,53.99999999999997 -59.99999999999997,59.99999999999997" stroke="#000" fill="none" stroke-width="2.5" stroke-linecap="round" stroke-linejoin="round"/><polygon points="-59.99999999999997,59.99999999999997 -54.99999999999997,50.99999999999997 -59.99999999999997,52.99999999999997 -64.99999999999997,50.99999999999997" stroke="#000" fill="#000" fill-rule="evenodd" stroke-linejoin="round"/></svg>