<?xml version="1.0" ?><!DOCTYPE svg  PUBLIC '-//W3C//DTD SVG 1.1//EN'  'http://www.w3.org/Graphics/SVG/1.1/DTD/svg11.dtd'><svg xmlns="http://www.w3.org/2000/svg" width="188.000" height="128.000" viewBox="-141.000 -54.000 188.000 128.000"><line x1="0.0" y1="0.0" x2="0.0" y2="0.0" stroke="none" fill="none" stroke-width="2.0" stroke-linecap="round"/><polyline points="0.0,0.0 6.0,-0.0 15.0,-0.0 24.0,-0.0 26.296100594190538,0.4567228049322794 28.242640687119284,1.7573593128807146 29.54327719506772,3.7038994058094605 30.0,5.999999999999998 30.0,14.999999999999995 30.0,23.999999999999993 29.54327719506772,26.29610059419053 28.242640687119284,28.242640687119277 26.296100594190538,29.543277195067713 24.0,29.999999999999993 15.000000000000004,29.999999999999993 6.000000000000007,29.999999999999993 3.7038994058094694,30.456722804932273 1.7573593128807237,31.75735931288071 0.4567228049322887,33.70389940580945 9.270362255620057e-15,35.999999999999986 8.770761894538737e-15,44.999999999999986 8.271161533457416e-15,53.999999999999986 -0.4567228049322711,56.29610059419052 -1.757359312880706,58.24264068711926 -3.7038994058094517,59.543277195067695 -5.999999999999989,59.99999999999997 -14.999999999999986,59.99999999999997 -23.999999999999982,59.99999999999997 -26.29610059419052,59.543277195067695 -28.242640687119266,58.24264068711926 -29.543277195067702,56.29610059419052 -29.999999999999982,53.999999999999986 -29.999999999999982,44.999999999999986 -29.999999999999982,35.999999999999986 -30.456722804932262,33.70389940580945 -31.7573593128807,31.757359312880705 -33.703899405809445,30.45672280493227 -35.999999999999986,29.99999999999999 -44.999999999999986,29.99999999999999 -53.999999999999986,29.99999999999999 -56.29610059419052,30.45672280493227 -58.24264068711926,31.757359312880705 -59.543277195067695,33.70389940580945" stroke="#000" fill="none" stroke-width="2.5" stroke-linecap="round" stroke-linejoin="round"/><text x="14.0" y="-3" fill="#000" stroke-width="0.0" text-anchor="middle" font-family="Times New Roman" font-size="12.0pt">A</text><text x="23.0" y="-3" fill="#000" stroke-width="0.0" font-family="Times New Roman" font-size="12.0pt">+</text><text x="29.0" y="12" fill="#000" stroke-width="0.0" text-anchor="end" font-family="Times New Roman" font-size="12.0pt">B</text><text x="29.0" y="21" fill="#000" stroke-width="0.0" font-family="Times New Roman" font-size="12.0pt">+</text><text x="14.000000000000004" y="27" fill="#000" stroke-width="0.0" text-anchor="middle" font-family="Times New Roman" font-size="12.0pt">A</text><text x="5.000000000000007" y="27" fill="#000" stroke-width="0.0" font-family="Times New Roman" font-size="12.0pt">-</text><text x="-0.9999999999999912" y="42" fill="#000" stroke-width="0.0" text-anchor="end" font-family="Times New Roman" font-size="12.0pt">B</text><text x="-0.9999999999999918" y="51" fill="#000" stroke-width="0.0" font-family="Times New Roman" font-size="12.0pt">+</text><text x="-15.999999999999986" y="57" fill="#000" stroke-width="0.0" text-anchor="middle" font-family="Times New Roman" font-size="12.0pt">A</text><text x="-24.999999999999982" y="57" fill="#000" stroke-width="0.0" font-family="Times New Roman" font-size="12.0pt">+</text><text x="-30.999999999999982" y="42" fill="#000" stroke-width="0.0" text-anchor="end" font-family="Times New Roman" font-size="12.0pt">B</text><text x="-30.999999999999982" y="33" fill="#000" stroke-width="0.0" font-family="Times New Roman" font-size="12.0pt">-</text><text x="-45.999999999999986" y="27" fill="#000" stroke-width="0.0" text-anchor="middle" font-family="Times New Roman" font-size="12.0pt">A</text><text x="-54.999999999999986" y="27" fill="#000" stroke-width="0.0" font-family="Times New Roman" font-size="12.0pt">-</text><polyline points="-59.543277195067695,33.70389940580945 -59.99999999999997,35.999999999999986 -59.99999999999997,44.999999999999986 -59.99999999999997,53.999999999999986 -60.45672280493225,56.29610059419052 -61.75735931288068,58.24264068711926 -63.70389940580942,59.543277195067695 -65.99999999999996,59.99999999999997 -74.99999999999996,59.99999999999997 -83.99999999999996,59.99999999999997 -86.29610059419049,59.543277195067695 -88.24264068711923,58.24264068711926 -89.54327719506767,56.29610059419052 -89.99999999999996,53.999999999999986 -89.99999999999996,44.999999999999986 -89.99999999999996,35.999999999999986 -89.54327719506767,33.70389940580945 -88.24264068711923,31.757359312880705 -86.29610059419049,30.45672280493227 -83.99999999999996,29.99999999999999 -74.99999999999996,29.99999999999999 -65.99999999999996,29.99999999999999 -63.70389940580942,29.54327719506771 -61.75735931288068,28.242640687119273 -60.45672280493225,26.296100594190527 -59.99999999999997,23.99999999999999 -59.99999999999997,14.999999999999993 -59.99999999999997,5.9999999999999964 -60.45672280493225,3.7038994058094588 -61.75735931288068,1.757359312880713 -63.70389940580942,0.45672280493227824 -65.99999999999996,-1.0547118733938987e-15 -74.99999999999996,-1.0547118733938987e-15 -83.99999999999996,-1.0547118733938987e-15 -86.29610059419049,-0.4567228049322803 -88.24264068711923,-1.757359312880715 -89.54327719506767,-3.7038994058094605 -89.99999999999996,-5.999999999999998 -89.99999999999996,-14.999999999999995 -89.99999999999996,-23.999999999999993 -90.45672280493224,-26.29610059419053 -91.75735931288068,-28.242640687119277 -93.70389940580942,-29.543277195067713" stroke="#000" fill="none" stroke-width="2.5" stroke-linecap="round" stroke-linejoin="round"/><text x="-60.99999999999997" y="42" fill="#000" stroke-width="0.0" text-anchor="end" font-family="Times New Roman" font-size="12.0pt">B</text><text x="-60.99999999999997" y="51" fill="#000" stroke-width="0.0" font-family="Times New Roman" font-size="12.0pt">+</text><text x="-75.99999999999996" y="57" fill="#000" stroke-width="0.0" text-anchor="middle" font-family="Times New Roman" font-size="12.0pt">A</text><text x="-84.99999999999996" y="57" fill="#000" stroke-width="0.0" font-family="Times New Roman" font-size="12.0pt">+</text><text x="-90.99999999999996" y="42" fill="#000" stroke-width="0.0" text-anchor="end" font-family="Times New Roman" font-size="12.0pt">B</text><text x="-90.99999999999996" y="33" fill="#000" stroke-width="0.0" font-family="Times New Roman" font-size="12.0pt">+</text><text x="-75.99999999999996" y="27" fill="#000" stroke-width="0.0" text-anchor="middle" font-family="Times New Roman" font-size="12.0pt">A</text><text x="-66.99999999999996" y="27" fill="#000" stroke-width="0.0" font-family="Times New Roman" font-size="12.0pt">-</text><text x="-60.99999999999997" y="12" fill="#000" stroke-width="0.0" text-anchor="end" font-family="Times New Roman" font-size="12.0pt">B</text><text x="-60.99999999999997" y="3" fill="#000" stroke-width="0.0" font-family="Times New Roman" font-size="12.0pt">-</text><text x="-75.99999999999996" y="-3" fill="#000" stroke-width="0.0" text-anchor="middle" font-family="Times New Roman" font-size="12.0pt">A</text><text x="-84.99999999999996" y="-3" fill="#000" stroke-width="0.0" font-family="Times New Roman" font-size="12.0pt">+</text><text x="-90.99999999999996" y="-18" fill="#000" stroke-width="0.0" text-anchor="end" font-family="Times New Roman" font-size="12.0pt">B</text><text x="-90.99999999999996" y="-27" fill="#000" stroke-width="0.0" font-family="Times New Roman" font-size="12.0pt">-</text><polyline points="-93.70389940580942,-29.543277195067713 -95.99999999999996,-29.999999999999993 -104.99999999999996,-29.999999999999993 -113.99999999999996,-29.999999999999993 -116.29610059419049,-29.543277195067713 -118.24264068711923,-28.242640687119277 -119.54327719506767,-26.29610059419053 -119.99999999999996,-23.999999999999993 -119.99999999999996,-14.999999999999996 -119.99999999999996,-6.0 -119.99999999999996,-2.6645352591003757e-15" stroke="#000" fill="none" stroke-width="2.5" stroke-linecap="round" stroke-linejoin="round"/><text x="-105.99999999999996" y="-33" fill="#000" stroke-width="0.0" text-anchor="middle" font-family="Times New Roman" font-size="12.0pt">A</text><text x="-114.99999999999996" y="-33" fill="#000" stroke-width="0.0" font-family="Times New Roman" font-size="12.0pt">-</text><text x="-120.99999999999996" y="-18" fill="#000" stroke-width="0.0" text-anchor="end" font-family="Times New Roman" font-size="12.0pt">B</text><polygon points="-119.99999999999996,-2.6645352591003757e-15 -114.99999999999996,-9.000000000000004 -119.99999999999996,-7.000000000000003 -124.99999999999996,-9.000000000000004" stroke="#000" fill="#000" fill-rule="evenodd" stroke-linejoin="round"/></svg>