<?xml version="1.0" ?><!DOCTYPE svg  PUBLIC '-//W3C//DTD SVG 1.1//EN'  'http://www.w3.org/Graphics/SVG/1.1/DTD/svg11.dtd'><svg xmlns="http://www.w3.org/2000/svg" width="64.000" height="49.000" viewBox="-18.000 -30.000 64.000 49.000"><line x1="0.0" y1="0.0" x2="0.0" y2="0.0" stroke="none" fill="none" stroke-width="2.0" stroke-linecap="round"/><polygon points="0.0,0.0 0.0,0.0 0.0,0.0" fill="none" fill-rule="evenodd" stroke-linejoin="round"/><polyline points="0.0,0.0 0.0,-0.0 -1.874999999999999,1.8749999999999993 -3.749999999999998,3.7499999999999987 -5.624999999999997,1.8749999999999998 -7.4999999999999964,8.881784197001252e-16 -5.624999999999997,-1.8749999999999984 -3.7499999999999982,-3.749999999999998 -5.624999999999997,-5.6249999999999964 -7.4999999999999964,-7.499999999999996 -5.624999999999997,-9.374999999999995 -3.7499999999999982,-11.249999999999995 -1.874999999999999,-9.374999999999996 4.440892098500626e-16,-7.499999999999997 1.8749999999999993,-9.374999999999996 3.7499999999999982,-11.249999999999996 1.874999999999999,-13.124999999999995 -4.440892098500626e-16,-14.999999999999993 1.8749999999999984,-16.874999999999993 3.7499999999999973,-18.749999999999993 5.6249999999999964,-16.874999999999993 7.499999999999996,-14.999999999999995 5.6249999999999964,-13.124999999999995 3.7499999999999973,-11.249999999999995 5.6249999999999964,-9.374999999999996 7.499999999999996,-7.499999999999997 9.374999999999995,-9.374999999999996 11.249999999999993,-11.249999999999996 13.124999999999993,-9.374999999999998 14.999999999999993,-7.499999999999999 16.874999999999993,-9.374999999999998 18.749999999999993,-11.249999999999998 16.874999999999993,-13.124999999999996 14.999999999999993,-14.999999999999995 16.874999999999993,-16.874999999999993 18.749999999999993,-18.749999999999993 20.624999999999993,-16.874999999999993 22.499999999999993,-14.999999999999995 20.624999999999993,-13.124999999999995 18.749999999999993,-11.249999999999995 20.624999999999993,-9.374999999999996 22.499999999999993,-7.499999999999997 20.624999999999993,-5.624999999999998" stroke="#000" fill="none" stroke-linecap="round" stroke-linejoin="round"/><polyline points="20.624999999999993,-5.624999999999998 18.749999999999993,-3.749999999999999 16.874999999999993,-5.624999999999998 14.999999999999993,-7.499999999999997 13.124999999999995,-5.624999999999998 11.249999999999996,-3.749999999999999 13.124999999999996,-1.8750000000000002 14.999999999999996,-1.3322676295501878e-15 16.874999999999996,-1.8750000000000007 18.749999999999996,-3.75 20.624999999999996,-1.875000000000001 22.499999999999996,-2.220446049250313e-15 20.624999999999996,1.8749999999999971 18.749999999999996,3.7499999999999964 20.624999999999996,5.624999999999996 22.499999999999996,7.499999999999995 24.374999999999996,5.624999999999996 26.249999999999996,3.7499999999999964 28.124999999999996,5.624999999999996 29.999999999999996,7.499999999999995 31.874999999999996,5.624999999999996 33.74999999999999,3.7499999999999964 31.874999999999993,1.8749999999999976 29.999999999999993,-1.3322676295501878e-15 29.999999999999993,-1.3322676295501878e-15" stroke="#000" fill="none" stroke-linecap="round" stroke-linejoin="round"/></svg>