<?xml version="1.0" ?><!DOCTYPE svg  PUBLIC '-//W3C//DTD SVG 1.1//EN'  'http://www.w3.org/Graphics/SVG/1.1/DTD/svg11.dtd'><svg xmlns="http://www.w3.org/2000/svg" width="69.000" height="53.000" viewBox="-21.000 -32.000 69.000 53.000"><line x1="0.0" y1="0.0" x2="0.0" y2="0.0" stroke="none" fill="none" stroke-width="2.0" stroke-linecap="round"/><polygon points="0.0,0.0 0.0,0.0 0.0,0.0" fill="none" fill-rule="evenodd" stroke-linejoin="round"/><polyline points="0.0,0.0 2.2962127484012865e-16,3.7499999999999987 -3.7499999999999982,3.749999999999999 -7.4999999999999964,3.7499999999999996 -7.499999999999997,8.881784197001252e-16 -7.499999999999998,-3.749999999999998 -7.499999999999999,-7.4999999999999964 -7.5,-11.249999999999995 -3.7500000000000013,-11.249999999999996 -2.6645352591003757e-15,-11.249999999999998 -3.3533990836207617e-15,-14.999999999999996 -4.042262908141148e-15,-18.749999999999996 3.7499999999999947,-18.749999999999996 7.499999999999993,-18.749999999999996 7.499999999999994,-14.999999999999998 7.499999999999995,-11.25 11.249999999999993,-11.250000000000002 14.999999999999991,-11.250000000000004 14.999999999999991,-15.000000000000002 14.999999999999991,-18.75 18.74999999999999,-18.75 22.49999999999999,-18.75 22.49999999999999,-15.000000000000002 22.49999999999999,-11.250000000000004 22.49999999999999,-7.500000000000005 22.49999999999999,-3.7500000000000067 22.49999999999999,-7.993605777301127e-15 22.49999999999999,3.7499999999999907 26.24999999999999,3.74999999999999 29.99999999999999,3.749999999999989 29.99999999999999,-9.769962616701378e-15" stroke="#ff6b6b" fill="none" stroke-width="3.0" stroke-linecap="round" stroke-linejoin="round"/><polyline points="0.0,0.0 -3.7499999999999987,1.3777276490407718e-15 -3.7500000000000004,-3.7499999999999973 -3.750000000000002,-7.4999999999999964 -3.552713678800501e-15,-7.499999999999998 3.749999999999995,-7.5 7.499999999999994,-7.500000000000002 11.249999999999993,-7.5000000000000036 11.249999999999995,-3.750000000000005 11.249999999999996,-6.217248937900877e-15 14.999999999999995,-8.054219136621905e-15 18.749999999999993,-9.891189335342934e-15 18.749999999999996,3.749999999999989 18.75,7.499999999999988 22.5,7.499999999999986 26.25,7.499999999999984 30.0,7.499999999999982 33.75,7.4999999999999805 33.75,3.749999999999982 33.75,-1.687538997430238e-14 30.0,-1.549766232526161e-14" stroke="#1e90ff" fill="none" stroke-width="3.0" stroke-linecap="round" stroke-linejoin="round"/><polyline points="0.0,0.0 0.0,-0.0 -1.874999999999998,1.8750000000000002 -3.749999999999996,3.7500000000000004 -5.6249999999999964,1.8750000000000024 -7.4999999999999964,4.440892098500626e-15 -5.624999999999998,-1.8749999999999958 -3.75,-3.749999999999996 -5.625,-5.624999999999994 -7.5,-7.499999999999992 -5.625000000000002,-9.374999999999993 -3.7500000000000036,-11.249999999999993 -1.8750000000000033,-9.374999999999995 -3.1086244689504383e-15,-7.4999999999999964 1.874999999999995,-9.374999999999996 3.749999999999993,-11.249999999999996 1.8749999999999927,-13.124999999999995 -7.549516567451064e-15,-14.999999999999993 1.8749999999999905,-16.874999999999993 3.7499999999999885,-18.749999999999993 5.6249999999999885,-16.874999999999996 7.4999999999999885,-14.999999999999998 5.62499999999999,-13.124999999999998 3.749999999999992,-11.249999999999998 5.624999999999992,-9.375 7.499999999999992,-7.500000000000002 9.37499999999999,-9.375000000000002 11.249999999999988,-11.250000000000002 13.124999999999988,-9.375000000000004 14.999999999999988,-7.500000000000005 16.874999999999986,-9.375000000000005 18.749999999999982,-11.250000000000005 16.874999999999982,-13.125000000000004 14.999999999999982,-15.000000000000002 16.87499999999998,-16.875000000000004 18.749999999999975,-18.750000000000004 20.624999999999975,-16.875000000000007 22.499999999999975,-15.000000000000009 20.62499999999998,-13.125000000000009 18.749999999999982,-11.250000000000009 20.624999999999982,-9.37500000000001 22.499999999999982,-7.500000000000012 20.624999999999986,-5.625000000000012" stroke="#000" fill="none" stroke-linecap="round" stroke-linejoin="round"/><polyline points="20.624999999999986,-5.625000000000012 18.74999999999999,-3.7500000000000124 16.87499999999999,-5.625000000000011 14.99999999999999,-7.500000000000009 13.124999999999991,-5.625000000000009 11.249999999999993,-3.750000000000009 13.124999999999993,-1.8750000000000109 14.999999999999993,-1.2878587085651816e-14 16.87499999999999,-1.875000000000013 18.749999999999986,-3.7500000000000133 20.624999999999986,-1.8750000000000153 22.499999999999986,-1.7319479184152442e-14 20.62499999999999,1.874999999999983 18.749999999999993,3.749999999999983 20.624999999999993,5.624999999999981 22.499999999999993,7.49999999999998 24.37499999999999,5.62499999999998 26.249999999999986,3.7499999999999796 28.124999999999986,5.624999999999978 29.999999999999986,7.499999999999976 31.874999999999982,5.624999999999976 33.74999999999998,3.749999999999976 31.87499999999998,1.874999999999978 29.99999999999998,-1.9984014443252818e-14 29.99999999999998,-1.9984014443252818e-14" stroke="#000" fill="none" stroke-linecap="round" stroke-linejoin="round"/></svg>