<?xml version="1.0" ?><!DOCTYPE svg  PUBLIC '-//W3C//DTD SVG 1.1//EN'  'http://www.w3.org/Graphics/SVG/1.1/DTD/svg11.dtd'><svg xmlns="http://www.w3.org/2000/svg" width="199.000" height="148.000" viewBox="-144.000 -63.000 199.000 148.000"><line x1="0.0" y1="0.0" x2="0.0" y2="0.0" stroke="none" fill="none" stroke-width="2.0" stroke-linecap="round"/><polyline points="0.0,0.0 9.0,-8.999999999999998 11.752823399122818,-10.839377789258258 15.0,-11.485281374238568 18.247176600877182,-10.839377789258256 21.0,-8.999999999999996 29.999999999999996,1.7763568394002505e-15 38.99999999999999,9.0 40.83937778925825,11.752823399122818 41.48528137423856,15.0 40.83937778925825,18.247176600877182 38.99999999999999,21.0 29.999999999999993,29.999999999999993 14.999999999999996,44.999999999999986 0.0,59.99999999999998 -8.999999999999998,68.99999999999997 -11.752823399122816,70.83937778925824 -14.999999999999996,71.48528137423855 -18.247176600877175,70.83937778925824 -20.999999999999993,68.99999999999997 -29.999999999999986,59.99999999999997 -38.99999999999998,50.99999999999997 -41.752823399122796,49.160622210741714 -44.99999999999998,48.514718625761404 -48.24717660087716,49.160622210741714 -50.99999999999998,50.99999999999997 -59.99999999999997,59.99999999999997 -68.99999999999997,68.99999999999997 -71.75282339912279,70.83937778925824 -74.99999999999997,71.48528137423855 -78.24717660087715,70.83937778925824 -80.99999999999997,68.99999999999997 -89.99999999999997,59.99999999999997 -98.99999999999997,50.99999999999997 -100.83937778925824,48.247176600877154 -101.48528137423855,44.99999999999997 -100.83937778925824,41.75282339912279 -98.99999999999997,38.99999999999997 -89.99999999999997,29.999999999999975 -80.99999999999997,20.99999999999998 -79.1606222107417,18.24717660087716 -78.51471862576139,14.99999999999998 -79.1606222107417,11.7528233991228" stroke="#ff6b6b" fill="none" stroke-width="2.5" stroke-linecap="round" stroke-linejoin="round"/><text x="8.0" y="-12" fill="#ff6b6b" stroke-width="0.0" font-family="Times New Roman" font-size="12.0pt">R</text><text x="37.99999999999999" y="6" fill="#ff6b6b" stroke-width="0.0" font-family="Times New Roman" font-size="12.0pt">r</text><text x="13.999999999999996" y="42" fill="#ff6b6b" stroke-width="0.0" font-family="Times New Roman" font-size="12.0pt">S</text><text x="-9.999999999999998" y="66" fill="#ff6b6b" stroke-width="0.0" font-family="Times New Roman" font-size="12.0pt">R</text><text x="-39.99999999999998" y="48" fill="#ff6b6b" stroke-width="0.0" font-family="Times New Roman" font-size="12.0pt">l</text><text x="-69.99999999999997" y="66" fill="#ff6b6b" stroke-width="0.0" font-family="Times New Roman" font-size="12.0pt">R</text><text x="-99.99999999999997" y="48" fill="#ff6b6b" stroke-width="0.0" font-family="Times New Roman" font-size="12.0pt">r</text><text x="-81.99999999999997" y="18" fill="#ff6b6b" stroke-width="0.0" font-family="Times New Roman" font-size="12.0pt">L</text><polyline points="-79.1606222107417,11.7528233991228 -80.99999999999997,8.999999999999982 -89.99999999999997,-1.4210854715202004e-14 -98.99999999999997,-9.00000000000001 -101.75282339912279,-10.839377789258268 -104.99999999999997,-11.485281374238578 -108.24717660087715,-10.839377789258268 -110.99999999999997,-9.00000000000001 -119.99999999999997,-1.4210854715202004e-14" stroke="#ff6b6b" fill="none" stroke-width="2.5" stroke-linecap="round" stroke-linejoin="round"/><text x="-99.99999999999997" y="-12" fill="#ff6b6b" stroke-width="0.0" font-family="Times New Roman" font-size="12.0pt">l</text><polyline points="0.0,0.0 8.999999999999996,8.999999999999995 10.839377789258254,11.75282339912281 11.485281374238566,14.999999999999991 10.839377789258256,18.24717660087717 8.999999999999998,20.99999999999999 3.552713678800501e-15,29.999999999999986 -8.999999999999991,38.999999999999986 -11.752823399122807,40.83937778925824 -14.999999999999988,41.485281374238554 -18.247176600877168,40.83937778925824 -20.999999999999986,38.999999999999986 -29.999999999999982,29.999999999999993 -44.99999999999998,15.0 -59.99999999999997,7.105427357601002e-15 -74.99999999999997,-14.999999999999986 -89.99999999999997,-29.99999999999998 -98.99999999999997,-38.99999999999997 -101.75282339912279,-40.83937778925823 -104.99999999999997,-41.48528137423854 -108.24717660087715,-40.83937778925823 -110.99999999999997,-38.99999999999997 -119.99999999999997,-29.999999999999975 -128.99999999999997,-20.99999999999998 -130.83937778925824,-18.24717660087716 -131.48528137423855,-14.999999999999982 -130.83937778925824,-11.752823399122803 -128.99999999999997,-8.999999999999988 -119.99999999999997,5.329070518200751e-15" stroke="#1e90ff" fill="none" stroke-width="2.5" stroke-linecap="round" stroke-linejoin="round"/><text x="7.9999999999999964" y="6" fill="#1e90ff" stroke-width="0.0" font-family="Times New Roman" font-size="12.0pt">R</text><text x="-9.999999999999991" y="36" fill="#1e90ff" stroke-width="0.0" font-family="Times New Roman" font-size="12.0pt">r</text><text x="-45.99999999999998" y="12" fill="#1e90ff" stroke-width="0.0" font-family="Times New Roman" font-size="12.0pt">S</text><text x="-75.99999999999997" y="-18" fill="#1e90ff" stroke-width="0.0" font-family="Times New Roman" font-size="12.0pt">S</text><text x="-99.99999999999997" y="-42" fill="#1e90ff" stroke-width="0.0" font-family="Times New Roman" font-size="12.0pt">L</text><text x="-129.99999999999997" y="-24" fill="#1e90ff" stroke-width="0.0" font-family="Times New Roman" font-size="12.0pt">l</text><polyline points="0.0,0.0 5.9999999999999964,-0.0 14.999999999999991,-0.0 23.999999999999986,-0.0 26.296100594190523,0.45672280493227907 28.24264068711927,1.7573593128807137 29.543277195067706,3.7038994058094588 29.999999999999986,5.9999999999999964 29.999999999999986,14.999999999999993 29.999999999999986,23.99999999999999 29.543277195067706,26.296100594190527 28.24264068711927,28.242640687119273 26.296100594190523,29.54327719506771 23.999999999999986,29.99999999999999 14.99999999999999,29.99999999999999 5.999999999999993,29.99999999999999 3.703899405809455,30.45672280493227 1.7573593128807097,31.757359312880705 0.45672280493227535,33.70389940580945 -3.4416913763379853e-15,35.999999999999986 -1.6930901125533637e-15,44.99999999999998 5.551115123125783e-17,53.99999999999997 -0.4567228049322786,56.296100594190506 -1.757359312880713,58.24264068711925 -3.7038994058094583,59.54327719506768 -5.9999999999999964,59.99999999999996 -14.999999999999993,59.99999999999996 -23.99999999999999,59.99999999999996 -26.296100594190527,59.54327719506768 -28.242640687119273,58.24264068711925 -29.54327719506771,56.296100594190506 -29.99999999999999,53.99999999999997 -29.99999999999999,44.99999999999997 -29.99999999999999,35.99999999999997 -30.45672280493227,33.70389940580944 -31.757359312880705,31.75735931288069 -33.70389940580945,30.456722804932255 -35.999999999999986,29.999999999999975 -44.999999999999986,29.999999999999975 -53.999999999999986,29.999999999999975 -56.29610059419052,30.456722804932255 -58.24264068711926,31.75735931288069 -59.543277195067695,33.70389940580944" stroke="#000" fill="none" stroke-width="2.5" stroke-linecap="round" stroke-linejoin="round"/><polyline points="-59.543277195067695,33.70389940580944 -59.99999999999997,35.99999999999997 -59.99999999999997,44.99999999999997 -59.99999999999997,53.99999999999997 -60.45672280493225,56.296100594190506 -61.75735931288068,58.24264068711925 -63.70389940580942,59.54327719506768 -65.99999999999996,59.99999999999996 -74.99999999999996,59.99999999999996 -83.99999999999996,59.99999999999996 -86.29610059419049,59.54327719506768 -88.24264068711923,58.24264068711925 -89.54327719506767,56.296100594190506 -89.99999999999996,53.99999999999997 -89.99999999999996,44.99999999999997 -89.99999999999996,35.99999999999997 -89.54327719506767,33.70389940580944 -88.24264068711923,31.75735931288069 -86.29610059419049,30.456722804932255 -83.99999999999996,29.999999999999975 -74.99999999999996,29.999999999999975 -65.99999999999996,29.999999999999975 -63.70389940580942,29.543277195067695 -61.75735931288068,28.24264068711926 -60.45672280493225,26.296100594190513 -59.99999999999997,23.999999999999975 -59.99999999999997,14.999999999999979 -59.99999999999997,5.999999999999982 -60.45672280493225,3.7038994058094445 -61.75735931288068,1.7573593128806988 -63.70389940580942,0.456722804932264 -65.99999999999996,-1.5265566588595902e-14 -74.99999999999996,-1.5265566588595902e-14 -83.99999999999996,-1.5265566588595902e-14 -86.29610059419049,-0.4567228049322945 -88.24264068711923,-1.7573593128807292 -89.54327719506767,-3.7038994058094747 -89.99999999999996,-6.000000000000012 -89.99999999999996,-15.000000000000009 -89.99999999999996,-24.000000000000007 -90.45672280493224,-26.296100594190545 -91.75735931288068,-28.24264068711929 -93.70389940580942,-29.543277195067727" stroke="#000" fill="none" stroke-width="2.5" stroke-linecap="round" stroke-linejoin="round"/><polyline points="-93.70389940580942,-29.543277195067727 -95.99999999999996,-30.000000000000007 -104.99999999999996,-30.000000000000007 -113.99999999999996,-30.000000000000007 -116.29610059419049,-29.543277195067727 -118.24264068711923,-28.24264068711929 -119.54327719506767,-26.296100594190545 -119.99999999999996,-24.000000000000007 -119.99999999999996,-15.00000000000001 -119.99999999999996,-6.000000000000014 -119.99999999999996,-1.687538997430238e-14" stroke="#000" fill="none" stroke-width="2.5" stroke-linecap="round" stroke-linejoin="round"/><polygon points="-119.99999999999996,-1.687538997430238e-14 -114.99999999999996,-9.000000000000018 -119.99999999999996,-7.000000000000017 -124.99999999999996,-9.000000000000018" stroke="#000" fill="#000" fill-rule="evenodd" stroke-linejoin="round"/></svg>