<?xml version="1.0" ?><!DOCTYPE svg  PUBLIC '-//W3C//DTD SVG 1.1//EN'  'http://www.w3.org/Graphics/SVG/1.1/DTD/svg11.dtd'><svg xmlns="http://www.w3.org/2000/svg" width="66.000" height="51.000" viewBox="-20.000 -30.000 66.000 51.000"><line x1="0.0" y1="0.0" x2="0.0" y2="0.0" stroke="none" fill="none" stroke-width="2.0" stroke-linecap="round"/><polygon points="0.0,0.0 0.0,0.0 0.0,0.0" fill="none" fill-rule="evenodd" stroke-linejoin="round"/><polyline points="0.0,0.0 0.0,-0.0 0.9374999999999997,0.9374999999999994 1.8749999999999993,1.874999999999999 0.9374999999999999,2.8124999999999987 4.440892098500626e-16,3.7499999999999982 -0.9374999999999992,2.8124999999999987 -1.874999999999999,1.8749999999999991 -2.8124999999999982,2.8124999999999987 -3.749999999999998,3.7499999999999982 -4.687499999999997,2.8124999999999987 -5.624999999999997,1.8749999999999991 -4.687499999999998,0.9374999999999994 -3.7499999999999987,-2.220446049250313e-16 -4.687499999999998,-0.9374999999999997 -5.624999999999998,-1.8749999999999991 -6.562499999999997,-0.9374999999999994 -7.4999999999999964,2.220446049250313e-16 -8.437499999999996,-0.9374999999999992 -9.374999999999996,-1.8749999999999987 -8.437499999999996,-2.8124999999999982 -7.499999999999997,-3.749999999999998 -6.562499999999997,-2.8124999999999982 -5.624999999999997,-1.8749999999999987 -4.687499999999998,-2.8124999999999982 -3.7499999999999987,-3.749999999999998 -4.687499999999998,-4.687499999999997 -5.624999999999998,-5.6249999999999964 -4.687499999999999,-6.5624999999999964 -3.7499999999999996,-7.4999999999999964 -4.687499999999999,-8.437499999999996 -5.624999999999999,-9.374999999999996 -6.562499999999998,-8.437499999999996 -7.499999999999997,-7.4999999999999964 -8.437499999999996,-8.437499999999996 -9.374999999999996,-9.374999999999996 -8.437499999999996,-10.312499999999996 -7.499999999999997,-11.249999999999996 -6.562499999999997,-10.312499999999996 -5.624999999999997,-9.374999999999996 -4.687499999999998,-10.312499999999996 -3.7499999999999987,-11.249999999999996 -2.812499999999999,-10.312499999999996" stroke="#000" fill="none" stroke-linecap="round" stroke-linejoin="round"/><polyline points="-2.812499999999999,-10.312499999999996 -1.8749999999999996,-9.374999999999996 -2.812499999999999,-8.437499999999996 -3.7499999999999987,-7.4999999999999964 -2.812499999999999,-6.562499999999997 -1.8749999999999996,-5.624999999999998 -0.9375000000000001,-6.562499999999998 -6.661338147750939e-16,-7.499999999999998 -0.9375000000000003,-8.437499999999998 -1.875,-9.374999999999998 -0.9375000000000006,-10.312499999999998 -1.1102230246251565e-15,-11.249999999999998 0.9374999999999986,-10.312499999999998 1.8749999999999982,-9.374999999999998 2.812499999999998,-10.312499999999998 3.7499999999999973,-11.249999999999998 2.812499999999998,-12.187499999999998 1.8749999999999982,-13.124999999999998 2.812499999999998,-14.062499999999998 3.7499999999999973,-14.999999999999998 2.812499999999998,-15.937499999999998 1.8749999999999982,-16.874999999999996 0.9374999999999988,-15.937499999999996 -6.661338147750939e-16,-14.999999999999996 -0.9375000000000003,-15.937499999999996 -1.875,-16.874999999999996 -0.9375000000000006,-17.812499999999996 -1.1102230246251565e-15,-18.749999999999996 0.9374999999999986,-17.812499999999996 1.8749999999999982,-16.874999999999996 2.812499999999998,-17.812499999999996 3.7499999999999973,-18.749999999999996 4.687499999999997,-17.812499999999996 5.624999999999997,-16.874999999999996 4.687499999999998,-15.937499999999996 3.7499999999999987,-14.999999999999996 4.687499999999998,-14.062499999999996 5.624999999999998,-13.124999999999996 6.562499999999997,-14.062499999999996 7.4999999999999964,-14.999999999999996 8.437499999999996,-14.062499999999996 9.374999999999996,-13.124999999999996 8.437499999999996,-12.187499999999996" stroke="#000" fill="none" stroke-linecap="round" stroke-linejoin="round"/><polyline points="8.437499999999996,-12.187499999999996 7.499999999999997,-11.249999999999996 6.562499999999997,-12.187499999999996 5.624999999999997,-13.124999999999996 4.687499999999998,-12.187499999999996 3.7499999999999987,-11.249999999999996 4.687499999999998,-10.312499999999996 5.624999999999998,-9.374999999999996 4.687499999999999,-8.437499999999996 3.7499999999999996,-7.4999999999999964 4.687499999999999,-6.562499999999997 5.624999999999999,-5.624999999999998 6.562499999999998,-6.562499999999998 7.499999999999997,-7.499999999999998 6.562499999999997,-8.437499999999998 5.624999999999997,-9.374999999999998 6.5624999999999964,-10.312499999999998 7.499999999999996,-11.249999999999998 8.437499999999995,-10.312499999999998 9.374999999999995,-9.374999999999998 10.312499999999995,-10.312499999999998 11.249999999999995,-11.249999999999998 12.187499999999995,-10.312499999999998 13.124999999999995,-9.374999999999998 12.187499999999995,-8.437499999999998 11.249999999999995,-7.499999999999998 12.187499999999995,-6.562499999999999 13.124999999999995,-5.625 14.062499999999995,-6.5625 14.999999999999995,-7.5 14.062499999999995,-8.4375 13.124999999999995,-9.375 14.062499999999995,-10.3125 14.999999999999995,-11.25 15.937499999999995,-10.3125 16.874999999999993,-9.375 17.812499999999993,-10.3125 18.749999999999993,-11.25 17.812499999999993,-12.1875 16.874999999999993,-13.125 17.812499999999993,-14.0625 18.749999999999993,-15.0 17.812499999999993,-15.9375" stroke="#000" fill="none" stroke-linecap="round" stroke-linejoin="round"/><polyline points="17.812499999999993,-15.9375 16.874999999999993,-16.875 15.937499999999993,-15.9375 14.999999999999993,-15.0 14.062499999999993,-15.9375 13.124999999999993,-16.875 14.062499999999993,-17.8125 14.999999999999993,-18.75 15.937499999999993,-17.8125 16.874999999999993,-16.875 17.812499999999993,-17.8125 18.749999999999993,-18.75 19.687499999999993,-17.8125 20.624999999999993,-16.875 19.687499999999993,-15.9375 18.749999999999993,-15.0 19.687499999999993,-14.0625 20.624999999999993,-13.125 21.562499999999993,-14.0625 22.499999999999993,-15.0 23.437499999999993,-14.0625 24.374999999999993,-13.125 23.437499999999993,-12.1875 22.499999999999993,-11.25 21.562499999999993,-12.1875 20.624999999999993,-13.125 19.687499999999993,-12.1875 18.749999999999993,-11.25 19.687499999999993,-10.3125 20.624999999999993,-9.375 19.687499999999993,-8.4375 18.749999999999993,-7.5 19.687499999999993,-6.562500000000001 20.624999999999993,-5.625000000000002 21.562499999999993,-6.562500000000002 22.499999999999993,-7.500000000000002 23.437499999999993,-6.562500000000003 24.374999999999993,-5.6250000000000036 23.437499999999993,-4.6875000000000036 22.499999999999993,-3.750000000000004 21.562499999999993,-4.6875000000000036 20.624999999999993,-5.625000000000003 19.687499999999993,-4.687500000000003" stroke="#000" fill="none" stroke-linecap="round" stroke-linejoin="round"/><polyline points="19.687499999999993,-4.687500000000003 18.749999999999993,-3.750000000000003 17.812499999999993,-4.687500000000003 16.874999999999993,-5.625000000000002 17.812499999999993,-6.562500000000002 18.749999999999993,-7.500000000000002 17.812499999999993,-8.437500000000002 16.874999999999993,-9.375000000000002 15.937499999999993,-8.437500000000002 14.999999999999993,-7.500000000000002 15.937499999999993,-6.562500000000003 16.874999999999993,-5.6250000000000036 15.937499999999993,-4.6875000000000036 14.999999999999993,-3.750000000000004 14.062499999999993,-4.6875000000000036 13.124999999999993,-5.625000000000003 12.187499999999993,-4.687500000000003 11.249999999999993,-3.750000000000003 12.187499999999993,-2.8125000000000036 13.124999999999993,-1.875000000000004 12.187499999999993,-0.9375000000000043 11.249999999999993,-4.6629367034256575e-15 12.187499999999993,0.9374999999999948 13.124999999999993,1.8749999999999942 14.062499999999993,0.9374999999999946 14.999999999999993,-5.10702591327572e-15 14.062499999999993,-0.9375000000000046 13.124999999999993,-1.875000000000004 14.062499999999993,-2.8125000000000036 14.999999999999993,-3.750000000000003 15.937499999999993,-2.8125000000000036 16.874999999999993,-1.875000000000004 17.812499999999993,-2.8125000000000036 18.749999999999993,-3.750000000000003 19.687499999999993,-2.8125000000000036 20.624999999999993,-1.875000000000004 19.687499999999993,-0.9375000000000043 18.749999999999993,-4.6629367034256575e-15 19.687499999999993,0.9374999999999948 20.624999999999993,1.8749999999999942 21.562499999999993,0.9374999999999946 22.499999999999993,-5.10702591327572e-15 23.437499999999993,0.9374999999999943" stroke="#000" fill="none" stroke-linecap="round" stroke-linejoin="round"/><polyline points="23.437499999999993,0.9374999999999943 24.374999999999993,1.8749999999999938 23.437499999999993,2.8124999999999933 22.499999999999993,3.749999999999993 21.562499999999993,2.8124999999999933 20.624999999999993,1.8749999999999938 19.687499999999993,2.8124999999999933 18.749999999999993,3.749999999999993 19.687499999999993,4.687499999999992 20.624999999999993,5.624999999999991 19.687499999999993,6.562499999999991 18.749999999999993,7.499999999999991 19.687499999999993,8.437499999999991 20.624999999999993,9.374999999999991 21.562499999999993,8.437499999999991 22.499999999999993,7.499999999999991 21.562499999999993,6.562499999999992 20.624999999999993,5.624999999999993 21.562499999999993,4.687499999999993 22.499999999999993,3.7499999999999933 23.437499999999993,4.687499999999993 24.374999999999993,5.624999999999992 25.312499999999993,4.687499999999992 26.249999999999993,3.7499999999999925 27.187499999999993,4.687499999999992 28.124999999999993,5.624999999999991 27.187499999999993,6.562499999999991 26.249999999999993,7.499999999999991 27.187499999999993,8.437499999999991 28.124999999999993,9.374999999999991 29.062499999999993,8.437499999999991 29.999999999999993,7.499999999999991 29.062499999999993,6.562499999999992 28.124999999999993,5.624999999999993 29.062499999999993,4.687499999999993 29.999999999999993,3.7499999999999933 30.937499999999993,4.687499999999993 31.874999999999993,5.624999999999992 32.81249999999999,4.687499999999992 33.74999999999999,3.7499999999999925 32.81249999999999,2.812499999999993 31.874999999999993,1.8749999999999933 32.81249999999999,0.9374999999999937" stroke="#000" fill="none" stroke-linecap="round" stroke-linejoin="round"/><polyline points="32.81249999999999,0.9374999999999937 33.74999999999999,-5.995204332975845e-15 32.81249999999999,-0.9375000000000054 31.874999999999993,-1.8750000000000049 30.937499999999993,-0.9375000000000052 29.999999999999993,-5.551115123125783e-15 29.999999999999993,-5.551115123125783e-15" stroke="#000" fill="none" stroke-linecap="round" stroke-linejoin="round"/></svg>