<?xml version="1.0" ?><!DOCTYPE svg  PUBLIC '-//W3C//DTD SVG 1.1//EN'  'http://www.w3.org/Graphics/SVG/1.1/DTD/svg11.dtd'><svg xmlns="http://www.w3.org/2000/svg" width="70.000" height="55.000" viewBox="-22.000 -32.000 70.000 55.000"><line x1="0.0" y1="0.0" x2="0.0" y2="0.0" stroke="none" fill="none" stroke-width="2.0" stroke-linecap="round"/><polygon points="0.0,0.0 0.0,0.0 0.0,0.0" fill="none" fill-rule="evenodd" stroke-linejoin="round"/><polyline points="0.0,0.0 1.8749999999999993,-0.0 1.8749999999999996,1.8749999999999993 1.8749999999999998,3.7499999999999987 4.440892098500626e-16,3.749999999999999 -1.874999999999999,3.7499999999999996 -3.7499999999999982,3.75 -5.624999999999997,3.7500000000000004 -5.624999999999997,1.875000000000001 -5.624999999999997,1.7763568394002505e-15 -7.4999999999999964,2.005978114240379e-15 -9.374999999999996,2.2355993890805073e-15 -9.374999999999996,-1.8749999999999971 -9.374999999999996,-3.7499999999999964 -7.499999999999997,-3.749999999999997 -5.624999999999998,-3.7499999999999973 -5.624999999999998,-5.6249999999999964 -5.624999999999998,-7.499999999999996 -7.499999999999997,-7.499999999999996 -9.374999999999996,-7.499999999999996 -9.374999999999996,-9.374999999999995 -9.374999999999996,-11.249999999999995 -7.499999999999997,-11.249999999999995 -5.624999999999998,-11.249999999999995 -3.749999999999999,-11.249999999999995 -1.8749999999999998,-11.249999999999995 -4.440892098500626e-16,-11.249999999999995 1.874999999999999,-11.249999999999995 1.8749999999999984,-13.124999999999995 1.874999999999998,-14.999999999999995 -1.3322676295501878e-15,-14.999999999999995 -1.8750000000000007,-14.999999999999995 -1.875000000000001,-16.874999999999993 -1.8750000000000016,-18.749999999999993 -2.220446049250313e-15,-18.749999999999993 1.8749999999999971,-18.749999999999993 3.7499999999999964,-18.749999999999993 5.624999999999996,-18.749999999999993 5.6249999999999964,-16.874999999999993 5.624999999999997,-14.999999999999993 7.4999999999999964,-14.999999999999993 9.374999999999996,-14.999999999999993 9.374999999999996,-13.124999999999993" stroke="#ff6b6b" fill="none" stroke-width="3.0" stroke-linecap="round" stroke-linejoin="round"/><polyline points="9.374999999999996,-13.124999999999993 9.374999999999996,-11.249999999999993 11.249999999999996,-11.249999999999993 13.124999999999996,-11.249999999999993 14.999999999999996,-11.249999999999993 16.874999999999996,-11.249999999999993 16.874999999999996,-13.124999999999993 16.874999999999996,-14.999999999999993 14.999999999999996,-14.999999999999993 13.124999999999996,-14.999999999999993 13.124999999999996,-16.874999999999993 13.124999999999996,-18.749999999999993 14.999999999999996,-18.749999999999993 16.874999999999996,-18.749999999999993 18.749999999999996,-18.749999999999993 20.624999999999996,-18.749999999999993 20.624999999999996,-16.874999999999993 20.624999999999996,-14.999999999999993 22.499999999999996,-14.999999999999993 24.374999999999996,-14.999999999999993 24.374999999999996,-13.124999999999993 24.374999999999996,-11.249999999999993 22.499999999999996,-11.249999999999993 20.624999999999996,-11.249999999999993 20.624999999999996,-9.374999999999993 20.624999999999996,-7.499999999999994 22.499999999999996,-7.499999999999995 24.374999999999996,-7.499999999999996 24.374999999999996,-5.6249999999999964 24.374999999999996,-3.7499999999999973 22.499999999999996,-3.7499999999999964 20.624999999999996,-3.7499999999999956 20.624999999999996,-1.8749999999999962 20.624999999999996,3.1086244689504383e-15 22.499999999999996,2.649381919270181e-15 24.374999999999996,2.190139369589924e-15 24.374999999999996,1.8750000000000016 24.374999999999996,3.750000000000001 26.249999999999996,3.7500000000000004 28.124999999999996,3.75 29.999999999999996,3.7499999999999996 31.874999999999996,3.749999999999999 31.874999999999996,1.8749999999999998" stroke="#ff6b6b" fill="none" stroke-width="3.0" stroke-linecap="round" stroke-linejoin="round"/><polyline points="31.874999999999996,1.8749999999999998 31.874999999999996,4.440892098500626e-16 29.999999999999996,6.737104846901912e-16" stroke="#ff6b6b" fill="none" stroke-width="3.0" stroke-linecap="round" stroke-linejoin="round"/><polyline points="0.0,0.0 5.740531871003215e-16,1.8749999999999993 -1.8749999999999987,1.875 -3.7499999999999982,1.8750000000000007 -3.749999999999999,1.3322676295501878e-15 -3.75,-1.874999999999998 -3.750000000000001,-3.7499999999999973 -3.7500000000000018,-5.6249999999999964 -1.8750000000000024,-5.624999999999997 -3.1086244689504383e-15,-5.624999999999998 -3.9122989308908885e-15,-7.499999999999997 -4.715973392831339e-15,-9.374999999999996 1.8749999999999947,-9.374999999999998 3.749999999999994,-9.375 3.7499999999999947,-7.500000000000001 3.7499999999999956,-5.625000000000002 5.624999999999995,-5.625000000000003 7.499999999999994,-5.6250000000000036 7.499999999999993,-7.500000000000003 7.499999999999992,-9.375000000000002 9.374999999999991,-9.375000000000004 11.249999999999991,-9.375000000000005 11.249999999999993,-7.500000000000006 11.249999999999995,-5.625000000000007 11.249999999999996,-3.750000000000008 11.249999999999998,-1.8750000000000087 11.25,-9.325873406851315e-15 11.250000000000002,1.87499999999999 13.125000000000002,1.8749999999999891 15.000000000000002,1.8749999999999882 15.000000000000002,-1.1102230246251565e-14 15.000000000000002,-1.8750000000000104 16.875,-1.8750000000000113 18.75,-1.8750000000000122 18.75,-1.2878587085651816e-14 18.75,1.8749999999999865 18.75,3.749999999999986 18.75,5.624999999999985 18.75,7.499999999999984 18.75,9.374999999999984 20.625,9.374999999999982 22.5,9.37499999999998 22.5,7.499999999999981" stroke="#1e90ff" fill="none" stroke-width="3.0" stroke-linecap="round" stroke-linejoin="round"/><polyline points="22.5,7.499999999999981 22.5,5.624999999999982 24.375,5.624999999999981 26.25,5.6249999999999805 26.25,7.49999999999998 26.25,9.374999999999979 28.125,9.374999999999977 30.0,9.374999999999975 30.0,7.499999999999976 30.0,5.624999999999977 31.875,5.624999999999976 33.75,5.624999999999975 33.75,3.749999999999976 33.75,1.8749999999999767 33.75,-2.2648549702353193e-14 33.75,-1.875000000000022 31.875,-1.8750000000000213 30.0,-1.8750000000000207 30.0,-2.1316282072803006e-14" stroke="#1e90ff" fill="none" stroke-width="3.0" stroke-linecap="round" stroke-linejoin="round"/><polyline points="0.0,0.0 0.0,-0.0 0.9374999999999999,0.9374999999999992 1.8749999999999998,1.8749999999999984 0.9375000000000006,2.8124999999999982 1.3322676295501878e-15,3.7499999999999982 -0.9374999999999986,2.812499999999999 -1.8749999999999984,1.875 -2.812499999999998,2.8125 -3.749999999999997,3.75 -4.6874999999999964,2.812500000000001 -5.6249999999999964,1.8750000000000018 -4.687499999999997,0.9375000000000019 -3.7499999999999982,1.9984014443252818e-15 -4.687499999999998,-0.9374999999999972 -5.624999999999998,-1.8749999999999964 -6.562499999999997,-0.9374999999999966 -7.4999999999999964,3.3306690738754696e-15 -8.437499999999996,-0.9374999999999959 -9.374999999999996,-1.8749999999999951 -8.437499999999996,-2.812499999999995 -7.499999999999997,-3.749999999999995 -6.562499999999997,-2.812499999999996 -5.624999999999997,-1.874999999999997 -4.687499999999998,-2.812499999999997 -3.749999999999999,-3.749999999999997 -4.687499999999999,-4.6874999999999964 -5.624999999999999,-5.624999999999996 -4.6875,-6.562499999999996 -3.750000000000001,-7.499999999999996 -4.687500000000001,-8.437499999999995 -5.625000000000001,-9.374999999999995 -6.5625,-8.437499999999995 -7.499999999999999,-7.499999999999995 -8.437499999999998,-8.437499999999995 -9.374999999999998,-9.374999999999995 -8.437499999999998,-10.312499999999995 -7.499999999999999,-11.249999999999995 -6.562499999999999,-10.312499999999995 -5.624999999999999,-9.374999999999995 -4.6875,-10.312499999999995 -3.750000000000001,-11.249999999999995 -2.812500000000001,-10.312499999999995" stroke="#000" fill="none" stroke-linecap="round" stroke-linejoin="round"/><polyline points="-2.812500000000001,-10.312499999999995 -1.8750000000000009,-9.374999999999995 -2.8125,-8.437499999999995 -3.749999999999999,-7.499999999999995 -2.812499999999999,-6.562499999999996 -1.8749999999999991,-5.6249999999999964 -0.9374999999999999,-6.5624999999999964 -6.661338147750939e-16,-7.4999999999999964 -0.9375000000000006,-8.437499999999996 -1.8750000000000004,-9.374999999999996 -0.9375000000000012,-10.312499999999996 -1.9984014443252818e-15,-11.249999999999996 0.9374999999999979,-10.312499999999996 1.8749999999999978,-9.374999999999996 2.812499999999997,-10.312499999999996 3.749999999999996,-11.249999999999996 2.812499999999996,-12.187499999999996 1.874999999999996,-13.124999999999996 2.812499999999995,-14.062499999999996 3.7499999999999942,-14.999999999999996 2.8124999999999942,-15.937499999999996 1.8749999999999942,-16.874999999999996 0.937499999999995,-15.937499999999996 -4.218847493575595e-15,-14.999999999999996 -0.9375000000000041,-15.937499999999996 -1.875000000000004,-16.874999999999996 -0.9375000000000048,-17.812499999999996 -5.551115123125783e-15,-18.749999999999996 0.9374999999999943,-17.812499999999996 1.8749999999999942,-16.874999999999996 2.8124999999999933,-17.812499999999996 3.7499999999999925,-18.749999999999996 4.687499999999992,-17.812499999999996 5.624999999999992,-16.874999999999996 4.687499999999993,-15.937499999999996 3.749999999999994,-14.999999999999996 4.687499999999994,-14.062499999999996 5.624999999999994,-13.124999999999996 6.562499999999993,-14.062499999999996 7.499999999999992,-14.999999999999996 8.437499999999991,-14.062499999999996 9.374999999999991,-13.124999999999996 8.437499999999991,-12.187499999999996" stroke="#000" fill="none" stroke-linecap="round" stroke-linejoin="round"/><polyline points="8.437499999999991,-12.187499999999996 7.499999999999992,-11.249999999999996 6.562499999999992,-12.187499999999996 5.624999999999992,-13.124999999999996 4.687499999999993,-12.187499999999996 3.749999999999994,-11.249999999999996 4.687499999999994,-10.312499999999996 5.624999999999994,-9.374999999999996 4.687499999999995,-8.437499999999996 3.7499999999999956,-7.4999999999999964 4.687499999999996,-6.562499999999997 5.624999999999996,-5.624999999999998 6.562499999999995,-6.562499999999998 7.499999999999994,-7.499999999999998 6.562499999999994,-8.437499999999998 5.624999999999994,-9.374999999999998 6.562499999999993,-10.312499999999998 7.499999999999992,-11.249999999999998 8.437499999999991,-10.312499999999998 9.374999999999991,-9.374999999999998 10.312499999999991,-10.312499999999998 11.249999999999991,-11.249999999999998 12.187499999999991,-10.312499999999998 13.124999999999991,-9.374999999999998 12.187499999999991,-8.437499999999998 11.249999999999991,-7.499999999999998 12.187499999999991,-6.562499999999999 13.124999999999991,-5.625 14.062499999999991,-6.5625 14.999999999999991,-7.5 14.062499999999991,-8.4375 13.124999999999991,-9.375 14.062499999999991,-10.3125 14.999999999999991,-11.25 15.937499999999991,-10.3125 16.87499999999999,-9.375 17.81249999999999,-10.3125 18.74999999999999,-11.25 17.81249999999999,-12.1875 16.87499999999999,-13.125 17.81249999999999,-14.0625 18.74999999999999,-15.0 17.81249999999999,-15.9375" stroke="#000" fill="none" stroke-linecap="round" stroke-linejoin="round"/><polyline points="17.81249999999999,-15.9375 16.87499999999999,-16.875 15.93749999999999,-15.9375 14.99999999999999,-15.0 14.06249999999999,-15.9375 13.12499999999999,-16.875 14.06249999999999,-17.8125 14.99999999999999,-18.75 15.93749999999999,-17.8125 16.87499999999999,-16.875 17.81249999999999,-17.8125 18.74999999999999,-18.75 19.68749999999999,-17.8125 20.62499999999999,-16.875 19.68749999999999,-15.9375 18.74999999999999,-15.0 19.68749999999999,-14.0625 20.62499999999999,-13.125 21.56249999999999,-14.0625 22.49999999999999,-15.0 23.43749999999999,-14.0625 24.37499999999999,-13.125 23.43749999999999,-12.1875 22.49999999999999,-11.25 21.56249999999999,-12.1875 20.62499999999999,-13.125 19.68749999999999,-12.1875 18.74999999999999,-11.25 19.68749999999999,-10.3125 20.62499999999999,-9.375 19.68749999999999,-8.4375 18.74999999999999,-7.5 19.68749999999999,-6.562500000000001 20.62499999999999,-5.625000000000002 21.56249999999999,-6.562500000000002 22.49999999999999,-7.500000000000002 23.43749999999999,-6.562500000000003 24.37499999999999,-5.6250000000000036 23.43749999999999,-4.6875000000000036 22.49999999999999,-3.7500000000000036 21.56249999999999,-4.687500000000003 20.62499999999999,-5.625000000000002 19.68749999999999,-4.687500000000002" stroke="#000" fill="none" stroke-linecap="round" stroke-linejoin="round"/><polyline points="19.68749999999999,-4.687500000000002 18.74999999999999,-3.7500000000000018 17.81249999999999,-4.687500000000001 16.87499999999999,-5.625 17.81249999999999,-6.5625 18.74999999999999,-7.5 17.81249999999999,-8.4375 16.87499999999999,-9.375 15.93749999999999,-8.4375 14.99999999999999,-7.5 15.93749999999999,-6.562500000000001 16.87499999999999,-5.625000000000002 15.93749999999999,-4.687500000000002 14.99999999999999,-3.7500000000000018 14.06249999999999,-4.687500000000001 13.12499999999999,-5.625 12.18749999999999,-4.6875 11.24999999999999,-3.75 12.18749999999999,-2.812500000000001 13.12499999999999,-1.8750000000000018 12.18749999999999,-0.9375000000000019 11.24999999999999,-1.9984014443252818e-15 12.18749999999999,0.9374999999999972 13.12499999999999,1.8749999999999964 14.06249999999999,0.9374999999999966 14.99999999999999,-3.3306690738754696e-15 14.06249999999999,-0.9375000000000026 13.12499999999999,-1.8750000000000018 14.06249999999999,-2.8125000000000018 14.99999999999999,-3.7500000000000018 15.93749999999999,-2.8125000000000027 16.87499999999999,-1.8750000000000036 17.81249999999999,-2.8125000000000036 18.74999999999999,-3.7500000000000036 19.68749999999999,-2.8125000000000044 20.62499999999999,-1.8750000000000053 19.68749999999999,-0.9375000000000054 18.74999999999999,-5.551115123125783e-15 19.68749999999999,0.9374999999999937 20.62499999999999,1.874999999999993 21.56249999999999,0.937499999999993 22.49999999999999,-6.8833827526759706e-15 23.43749999999999,0.9374999999999923" stroke="#000" fill="none" stroke-linecap="round" stroke-linejoin="round"/><polyline points="23.43749999999999,0.9374999999999923 24.37499999999999,1.8749999999999916 23.43749999999999,2.8124999999999916 22.49999999999999,3.7499999999999916 21.56249999999999,2.8124999999999925 20.62499999999999,1.8749999999999933 19.68749999999999,2.8124999999999933 18.74999999999999,3.7499999999999933 19.68749999999999,4.687499999999993 20.62499999999999,5.624999999999992 19.68749999999999,6.562499999999992 18.74999999999999,7.499999999999992 19.68749999999999,8.437499999999991 20.62499999999999,9.374999999999991 21.56249999999999,8.437499999999991 22.49999999999999,7.499999999999991 21.56249999999999,6.562499999999992 20.62499999999999,5.624999999999993 21.56249999999999,4.687499999999993 22.49999999999999,3.749999999999993 23.43749999999999,4.687499999999992 24.37499999999999,5.624999999999991 25.31249999999999,4.687499999999991 26.24999999999999,3.749999999999991 27.18749999999999,4.68749999999999 28.12499999999999,5.624999999999989 27.18749999999999,6.562499999999989 26.24999999999999,7.499999999999989 27.18749999999999,8.43749999999999 28.12499999999999,9.37499999999999 29.06249999999999,8.43749999999999 29.99999999999999,7.499999999999989 29.06249999999999,6.56249999999999 28.12499999999999,5.624999999999991 29.06249999999999,4.687499999999991 29.99999999999999,3.749999999999991 30.93749999999999,4.68749999999999 31.87499999999999,5.624999999999989 32.812499999999986,4.687499999999989 33.749999999999986,3.7499999999999893 32.812499999999986,2.8124999999999902 31.874999999999986,1.8749999999999911 32.812499999999986,0.9374999999999912" stroke="#000" fill="none" stroke-linecap="round" stroke-linejoin="round"/><polyline points="32.812499999999986,0.9374999999999912 33.749999999999986,-8.659739592076221e-15 32.812499999999986,-0.9375000000000079 31.874999999999986,-1.875000000000007 30.937499999999986,-0.9375000000000072 29.999999999999986,-7.327471962526033e-15 29.999999999999986,-7.327471962526033e-15" stroke="#000" fill="none" stroke-linecap="round" stroke-linejoin="round"/></svg>