<?xml version="1.0" ?><!DOCTYPE svg  PUBLIC '-//W3C//DTD SVG 1.1//EN'  'http://www.w3.org/Graphics/SVG/1.1/DTD/svg11.dtd'><svg xmlns="http://www.w3.org/2000/svg" width="229.000" height="268.000" viewBox="-174.000 -183.000 229.000 268.000"><line x1="0.0" y1="0.0" x2="0.0" y2="0.0" stroke="none" fill="none" stroke-width="2.0" stroke-linecap="round"/><polyline points="0.0,0.0 9.0,-8.999999999999998 11.752823399122818,-10.839377789258258 15.0,-11.485281374238568 18.247176600877182,-10.839377789258256 21.0,-8.999999999999996 29.999999999999996,1.7763568394002505e-15 38.99999999999999,9.0 40.83937778925825,11.752823399122818 41.48528137423856,15.0 40.83937778925825,18.247176600877182 38.99999999999999,21.0 29.999999999999993,29.999999999999993 14.999999999999996,44.999999999999986 0.0,59.99999999999998 -8.999999999999998,68.99999999999997 -11.752823399122816,70.83937778925824 -14.999999999999996,71.48528137423855 -18.247176600877175,70.83937778925824 -20.999999999999993,68.99999999999997 -29.999999999999986,59.99999999999997 -38.99999999999998,50.99999999999997 -41.752823399122796,49.160622210741714 -44.99999999999998,48.514718625761404 -48.24717660087716,49.160622210741714 -50.99999999999998,50.99999999999997 -59.99999999999997,59.99999999999997 -68.99999999999997,68.99999999999997 -71.75282339912279,70.83937778925824 -74.99999999999997,71.48528137423855 -78.24717660087715,70.83937778925824 -80.99999999999997,68.99999999999997 -89.99999999999997,59.99999999999997 -98.99999999999997,50.99999999999997 -100.83937778925824,48.247176600877154 -101.48528137423855,44.99999999999997 -100.83937778925824,41.75282339912279 -98.99999999999997,38.99999999999997 -89.99999999999997,29.999999999999975 -80.99999999999997,20.99999999999998 -79.1606222107417,18.24717660087716 -78.51471862576139,14.99999999999998 -79.1606222107417,11.7528233991228" stroke="#ff6b6b" fill="none" stroke-width="2.5" stroke-linecap="round" stroke-linejoin="round"/><text x="8.0" y="-12" fill="#ff6b6b" stroke-width="0.0" font-family="Times New Roman" font-size="12.0pt">R</text><text x="37.99999999999999" y="6" fill="#ff6b6b" stroke-width="0.0" font-family="Times New Roman" font-size="12.0pt">r</text><text x="13.999999999999996" y="42" fill="#ff6b6b" stroke-width="0.0" font-family="Times New Roman" font-size="12.0pt">S</text><text x="-9.999999999999998" y="66" fill="#ff6b6b" stroke-width="0.0" font-family="Times New Roman" font-size="12.0pt">R</text><text x="-39.99999999999998" y="48" fill="#ff6b6b" stroke-width="0.0" font-family="Times New Roman" font-size="12.0pt">l</text><text x="-69.99999999999997" y="66" fill="#ff6b6b" stroke-width="0.0" font-family="Times New Roman" font-size="12.0pt">R</text><text x="-99.99999999999997" y="48" fill="#ff6b6b" stroke-width="0.0" font-family="Times New Roman" font-size="12.0pt">r</text><text x="-81.99999999999997" y="18" fill="#ff6b6b" stroke-width="0.0" font-family="Times New Roman" font-size="12.0pt">L</text><polyline points="-79.1606222107417,11.7528233991228 -80.99999999999997,8.999999999999982 -89.99999999999997,-1.4210854715202004e-14 -98.99999999999997,-9.00000000000001 -101.75282339912279,-10.839377789258268 -104.99999999999997,-11.485281374238578 -108.24717660087715,-10.839377789258268 -110.99999999999997,-9.00000000000001 -119.99999999999997,-1.4210854715202004e-14 -128.99999999999997,8.999999999999982 -131.75282339912278,10.83937778925824 -134.99999999999994,11.48528137423855 -138.2471766008771,10.83937778925824 -140.99999999999991,8.999999999999982 -149.99999999999991,-1.4210854715202004e-14 -158.99999999999991,-9.00000000000001 -160.83937778925818,-11.752823399122828 -161.4852813742385,-15.000000000000009 -160.83937778925818,-18.24717660087719 -158.99999999999991,-21.000000000000007 -149.99999999999991,-30.000000000000004 -134.99999999999991,-45.0 -119.99999999999991,-59.99999999999999 -104.99999999999991,-74.99999999999999 -89.99999999999991,-89.99999999999999 -80.99999999999991,-98.99999999999999 -79.16062221074165,-101.7528233991228 -78.51471862576133,-104.99999999999999 -79.16062221074165,-108.24717660087717 -80.99999999999991,-110.99999999999999 -89.99999999999991,-119.99999999999999 -98.99999999999991,-128.99999999999997 -101.75282339912273,-130.83937778925824 -104.99999999999991,-131.48528137423855 -108.2471766008771,-130.83937778925824 -110.99999999999991,-128.99999999999997 -119.99999999999991,-119.99999999999997" stroke="#ff6b6b" fill="none" stroke-width="2.5" stroke-linecap="round" stroke-linejoin="round"/><text x="-99.99999999999997" y="-12" fill="#ff6b6b" stroke-width="0.0" font-family="Times New Roman" font-size="12.0pt">l</text><text x="-129.99999999999997" y="6" fill="#ff6b6b" stroke-width="0.0" font-family="Times New Roman" font-size="12.0pt">R</text><text x="-159.99999999999991" y="-12" fill="#ff6b6b" stroke-width="0.0" font-family="Times New Roman" font-size="12.0pt">r</text><text x="-135.99999999999991" y="-48" fill="#ff6b6b" stroke-width="0.0" font-family="Times New Roman" font-size="12.0pt">S</text><text x="-105.99999999999991" y="-78" fill="#ff6b6b" stroke-width="0.0" font-family="Times New Roman" font-size="12.0pt">S</text><text x="-81.99999999999991" y="-102" fill="#ff6b6b" stroke-width="0.0" font-family="Times New Roman" font-size="12.0pt">L</text><text x="-99.99999999999991" y="-132" fill="#ff6b6b" stroke-width="0.0" font-family="Times New Roman" font-size="12.0pt">l</text><polyline points="0.0,0.0 8.999999999999996,8.999999999999995 10.839377789258254,11.75282339912281 11.485281374238566,14.999999999999991 10.839377789258256,18.24717660087717 8.999999999999998,20.99999999999999 3.552713678800501e-15,29.999999999999986 -8.999999999999991,38.999999999999986 -11.752823399122807,40.83937778925824 -14.999999999999988,41.485281374238554 -18.247176600877168,40.83937778925824 -20.999999999999986,38.999999999999986 -29.999999999999982,29.999999999999993 -44.99999999999998,15.0 -59.99999999999997,7.105427357601002e-15 -68.99999999999997,-8.999999999999988 -70.83937778925824,-11.752823399122803 -71.48528137423855,-14.999999999999984 -70.83937778925824,-18.247176600877165 -68.99999999999997,-20.999999999999982 -59.99999999999998,-29.99999999999998 -50.999999999999986,-38.99999999999997 -49.16062221074173,-41.75282339912279 -48.51471862576142,-44.99999999999997 -49.16062221074173,-48.247176600877154 -50.999999999999986,-50.99999999999997 -59.999999999999986,-59.999999999999964 -68.99999999999999,-68.99999999999996 -70.83937778925825,-71.75282339912278 -71.48528137423857,-74.99999999999996 -70.83937778925825,-78.24717660087714 -68.99999999999999,-80.99999999999996 -59.999999999999986,-89.99999999999996 -50.999999999999986,-98.99999999999996 -49.16062221074173,-101.75282339912278 -48.51471862576142,-104.99999999999996 -49.16062221074173,-108.24717660087714 -50.999999999999986,-110.99999999999996 -59.999999999999986,-119.99999999999996 -74.99999999999999,-134.99999999999994 -89.99999999999999,-149.99999999999994 -98.99999999999999,-158.99999999999994 -101.7528233991228,-160.8393777892582" stroke="#1e90ff" fill="none" stroke-width="2.5" stroke-linecap="round" stroke-linejoin="round"/><text x="7.9999999999999964" y="6" fill="#1e90ff" stroke-width="0.0" font-family="Times New Roman" font-size="12.0pt">R</text><text x="-9.999999999999991" y="36" fill="#1e90ff" stroke-width="0.0" font-family="Times New Roman" font-size="12.0pt">r</text><text x="-45.99999999999998" y="12" fill="#1e90ff" stroke-width="0.0" font-family="Times New Roman" font-size="12.0pt">S</text><text x="-69.99999999999997" y="-12" fill="#1e90ff" stroke-width="0.0" font-family="Times New Roman" font-size="12.0pt">R</text><text x="-51.999999999999986" y="-42" fill="#1e90ff" stroke-width="0.0" font-family="Times New Roman" font-size="12.0pt">l</text><text x="-69.99999999999999" y="-72" fill="#1e90ff" stroke-width="0.0" font-family="Times New Roman" font-size="12.0pt">R</text><text x="-51.999999999999986" y="-102" fill="#1e90ff" stroke-width="0.0" font-family="Times New Roman" font-size="12.0pt">l</text><text x="-75.99999999999999" y="-138" fill="#1e90ff" stroke-width="0.0" font-family="Times New Roman" font-size="12.0pt">S</text><text x="-99.99999999999999" y="-162" fill="#1e90ff" stroke-width="0.0" font-family="Times New Roman" font-size="12.0pt">L</text><polyline points="-101.7528233991228,-160.8393777892582 -104.99999999999999,-161.48528137423853 -108.24717660087717,-160.8393777892582 -110.99999999999999,-158.99999999999994 -119.99999999999999,-149.99999999999994 -128.99999999999997,-140.99999999999994 -130.83937778925824,-138.24717660087714 -131.48528137423855,-134.99999999999997 -130.83937778925824,-131.7528233991228 -128.99999999999997,-129.0 -119.99999999999997,-120.0" stroke="#1e90ff" fill="none" stroke-width="2.5" stroke-linecap="round" stroke-linejoin="round"/><text x="-129.99999999999997" y="-144" fill="#1e90ff" stroke-width="0.0" font-family="Times New Roman" font-size="12.0pt">l</text><polyline points="0.0,0.0 5.999999999999997,3.3306690738754696e-16 14.999999999999993,8.326672684688674e-16 23.99999999999999,1.3322676295501878e-15 26.296100594190527,0.4567228049322807 28.242640687119273,1.7573593128807155 29.54327719506771,3.7038994058094614 29.99999999999999,5.999999999999999 29.99999999999999,14.999999999999996 29.99999999999999,23.999999999999993 29.54327719506771,26.29610059419053 28.242640687119273,28.242640687119277 26.296100594190527,29.543277195067713 23.99999999999999,29.999999999999993 14.999999999999993,29.999999999999993 5.9999999999999964,29.999999999999993 3.7038994058094588,30.456722804932273 1.757359312880713,31.75735931288071 0.45672280493227824,33.70389940580945 -1.0547118733938987e-15,35.999999999999986 -1.0547118733938987e-15,44.999999999999986 -1.0547118733938987e-15,53.999999999999986 -0.4567228049322803,56.29610059419052 -1.757359312880715,58.24264068711926 -3.7038994058094605,59.543277195067695 -5.999999999999998,59.99999999999997 -14.999999999999995,59.99999999999997 -23.999999999999993,59.99999999999997 -26.29610059419053,59.543277195067695 -28.242640687119277,58.24264068711926 -29.543277195067713,56.29610059419052 -29.999999999999993,53.999999999999986 -29.999999999999993,44.999999999999986 -29.999999999999993,35.999999999999986 -30.456722804932273,33.70389940580945 -31.75735931288071,31.757359312880705 -33.70389940580945,30.45672280493227 -35.999999999999986,29.99999999999999 -44.999999999999986,29.99999999999999 -53.999999999999986,29.99999999999999 -56.29610059419052,30.45672280493227 -58.24264068711926,31.757359312880705 -59.543277195067695,33.70389940580945" stroke="#000" fill="none" stroke-width="2.5" stroke-linecap="round" stroke-linejoin="round"/><polyline points="-59.543277195067695,33.70389940580945 -59.99999999999997,35.999999999999986 -59.99999999999997,44.999999999999986 -59.99999999999997,53.999999999999986 -60.45672280493225,56.29610059419052 -61.75735931288068,58.24264068711926 -63.70389940580942,59.543277195067695 -65.99999999999996,59.99999999999997 -74.99999999999996,59.99999999999997 -83.99999999999996,59.99999999999997 -86.29610059419049,59.543277195067695 -88.24264068711923,58.24264068711926 -89.54327719506767,56.29610059419052 -89.99999999999996,53.999999999999986 -89.99999999999996,44.999999999999986 -89.99999999999996,35.999999999999986 -89.54327719506767,33.70389940580945 -88.24264068711923,31.757359312880705 -86.29610059419049,30.45672280493227 -83.99999999999996,29.99999999999999 -74.99999999999996,29.99999999999999 -65.99999999999996,29.99999999999999 -63.70389940580942,29.54327719506771 -61.75735931288068,28.242640687119273 -60.45672280493225,26.296100594190527 -59.99999999999997,23.99999999999999 -59.99999999999997,14.999999999999993 -59.99999999999997,5.9999999999999964 -60.45672280493225,3.7038994058094588 -61.75735931288068,1.757359312880713 -63.70389940580942,0.45672280493227824 -65.99999999999996,-1.0547118733938987e-15 -74.99999999999996,-1.0547118733938987e-15 -83.99999999999996,-1.0547118733938987e-15 -86.29610059419049,-0.4567228049322803 -88.24264068711923,-1.757359312880715 -89.54327719506767,-3.7038994058094605 -89.99999999999996,-5.999999999999998 -89.99999999999996,-14.999999999999995 -89.99999999999996,-23.999999999999993 -90.45672280493224,-26.29610059419053 -91.75735931288068,-28.242640687119277 -93.70389940580942,-29.543277195067713" stroke="#000" fill="none" stroke-width="2.5" stroke-linecap="round" stroke-linejoin="round"/><polyline points="-93.70389940580942,-29.543277195067713 -95.99999999999996,-29.999999999999993 -104.99999999999996,-29.999999999999993 -113.99999999999996,-29.999999999999993 -116.29610059419049,-29.543277195067713 -118.24264068711923,-28.242640687119277 -119.54327719506767,-26.29610059419053 -119.99999999999996,-23.999999999999993 -119.99999999999996,-14.999999999999996 -119.99999999999996,-6.0 -120.45672280493224,-3.7038994058094623 -121.75735931288068,-1.7573593128807166 -123.70389940580942,-0.4567228049322818 -125.99999999999996,-2.4980018054066022e-15 -134.99999999999994,-2.4980018054066022e-15 -143.99999999999994,-2.4980018054066022e-15 -146.29610059419048,-0.45672280493228173 -148.24264068711923,-1.7573593128807166 -149.54327719506767,-3.7038994058094623 -149.99999999999994,-6.0 -149.99999999999994,-14.999999999999996 -149.99999999999994,-23.999999999999993 -149.54327719506767,-26.29610059419053 -148.24264068711923,-28.242640687119277 -146.29610059419048,-29.543277195067713 -143.99999999999994,-29.999999999999993 -134.99999999999994,-29.999999999999993 -125.99999999999994,-29.999999999999993 -123.70389940580941,-30.456722804932273 -121.75735931288067,-31.75735931288071 -120.45672280493223,-33.70389940580945 -119.99999999999994,-35.999999999999986 -119.99999999999994,-44.999999999999986 -119.99999999999994,-53.999999999999986 -119.54327719506766,-56.29610059419052 -118.24264068711922,-58.24264068711926 -116.29610059419048,-59.543277195067695 -113.99999999999994,-59.99999999999997 -104.99999999999994,-59.99999999999997 -95.99999999999994,-59.99999999999997 -93.70389940580941,-59.543277195067695 -91.75735931288067,-58.24264068711926 -90.45672280493223,-56.29610059419052" stroke="#000" fill="none" stroke-width="2.5" stroke-linecap="round" stroke-linejoin="round"/><polyline points="-90.45672280493223,-56.29610059419052 -89.99999999999994,-53.999999999999986 -89.99999999999994,-44.999999999999986 -89.99999999999994,-35.999999999999986 -89.54327719506766,-33.70389940580945 -88.24264068711922,-31.757359312880705 -86.29610059419048,-30.45672280493227 -83.99999999999994,-29.99999999999999 -74.99999999999994,-29.99999999999999 -65.99999999999994,-29.99999999999999 -63.70389940580941,-30.45672280493227 -61.757359312880666,-31.757359312880705 -60.456722804932234,-33.70389940580945 -59.99999999999996,-35.999999999999986 -59.99999999999996,-44.999999999999986 -59.99999999999996,-53.999999999999986 -60.456722804932234,-56.29610059419052 -61.757359312880666,-58.24264068711926 -63.70389940580941,-59.543277195067695 -65.99999999999994,-59.99999999999997 -74.99999999999994,-59.99999999999997 -83.99999999999994,-59.99999999999997 -86.29610059419048,-60.45672280493225 -88.24264068711922,-61.75735931288068 -89.54327719506766,-63.70389940580942 -89.99999999999994,-65.99999999999996 -89.99999999999994,-74.99999999999996 -89.99999999999994,-83.99999999999996 -89.54327719506766,-86.29610059419049 -88.24264068711922,-88.24264068711923 -86.29610059419048,-89.54327719506767 -83.99999999999994,-89.99999999999996 -74.99999999999994,-89.99999999999996 -65.99999999999994,-89.99999999999996 -63.70389940580941,-90.45672280493224 -61.757359312880666,-91.75735931288068 -60.456722804932234,-93.70389940580942 -59.99999999999996,-95.99999999999996 -59.99999999999996,-104.99999999999996 -59.99999999999996,-113.99999999999996 -60.456722804932234,-116.29610059419049 -61.757359312880666,-118.24264068711923 -63.70389940580941,-119.54327719506767" stroke="#000" fill="none" stroke-width="2.5" stroke-linecap="round" stroke-linejoin="round"/><polyline points="-63.70389940580941,-119.54327719506767 -65.99999999999994,-119.99999999999996 -74.99999999999994,-119.99999999999996 -83.99999999999994,-119.99999999999996 -86.29610059419048,-120.45672280493224 -88.24264068711922,-121.75735931288068 -89.54327719506766,-123.70389940580942 -89.99999999999994,-125.99999999999996 -89.99999999999994,-134.99999999999994 -89.99999999999994,-143.99999999999994 -90.45672280493223,-146.29610059419048 -91.75735931288067,-148.24264068711923 -93.70389940580941,-149.54327719506767 -95.99999999999994,-149.99999999999994 -104.99999999999994,-149.99999999999994 -113.99999999999994,-149.99999999999994 -116.29610059419048,-149.54327719506767 -118.24264068711922,-148.24264068711923 -119.54327719506766,-146.29610059419048 -119.99999999999994,-143.99999999999994 -119.99999999999994,-134.99999999999994 -119.99999999999994,-125.99999999999994 -119.99999999999994,-119.99999999999994" stroke="#000" fill="none" stroke-width="2.5" stroke-linecap="round" stroke-linejoin="round"/><polygon points="-119.99999999999994,-119.99999999999994 -114.99999999999994,-128.99999999999994 -119.99999999999994,-126.99999999999994 -124.99999999999994,-128.99999999999994" stroke="#000" fill="#000" fill-rule="evenodd" stroke-linejoin="round"/></svg>