<?xml version="1.0" ?><!DOCTYPE svg  PUBLIC '-//W3C//DTD SVG 1.1//EN'  'http://www.w3.org/Graphics/SVG/1.1/DTD/svg11.dtd'><svg xmlns="http://www.w3.org/2000/svg" width="128.000" height="102.000" viewBox="-14.000 -31.000 128.000 102.000"><line x1="0.0" y1="0.0" x2="0.0" y2="0.0" stroke="none" fill="none" stroke-width="2.0" stroke-linecap="round"/><polyline points="0.0,0.0 19.23076923076923,-3.8461538461538516 38.46153846153846,-7.692307692307703 57.69230769230769,-11.538461538461554 76.92307692307692,-15.384615384615406 92.3076923076923,-18.46153846153849 94.3338266124735,-18.330866937632482 96.02317462994014,-17.204634925988056 96.92307692307692,-15.384615384615412 100.00000000000001,-2.6645352591003757e-14" stroke="#ff6b6b" fill="none" stroke-width="3.0" stroke-linecap="round" stroke-linejoin="round"/><polyline points="0.0,0.0 3.8461538461606546,19.230769230767876 7.692307692321309,38.46153846153575 10.769230769249834,53.84615384615005 11.669133062387253,55.66617338752238 13.358481079854291,56.792405399166206 15.38461538463554,56.9230769230715 30.769230769249845,53.84615384614298 50.00000000001772,49.999999999982336 69.2307692307856,46.15384615382169 84.6153846153999,43.07692307689317 86.43540415677224,42.17702078375576 87.56163616841607,40.48767276628872 87.69230769232136,38.46153846150747 84.61538461539286,23.076923076893166 81.53846153846435,7.692307692278861 81.66913306236964,5.666173387497613 82.79536507401347,3.976825370030574 84.6153846153858,3.0769230768931553 100.00000000000011,-3.5365932404829437e-11" stroke="#1e90ff" fill="none" stroke-width="3.0" stroke-linecap="round" stroke-linejoin="round"/><polyline points="0.0,0.0 2.3076923076933973,1.5384615384599083 11.538461538466985,7.692307692299541 20.769230769240572,13.846153846139174 21.716962159678932,14.924556760482108 21.998520162591035,16.332346775037443 21.53846153847406,17.69230769229248 15.38461538463443,26.92307692306607 9.230769230794799,36.15384615383966 8.770710606677826,37.513807071094696 9.052268609589929,38.921597085650035 10.00000000002829,39.999999999992966 19.23076923080188,46.153846153832596 28.46153846157547,52.30769230767223 29.821499378830506,52.7677509317892 31.22928939338584,52.4861929288771 32.30769230772877,51.53846153843874 38.46153846156841,42.30769230766515 44.61538461540805,33.07692307689156 45.07544323952502,31.716962159636523 44.79388523661292,30.309172145081188 43.84615384617456,29.230769230738254 34.61538461540097,23.076923076898613 25.38461538462738,16.92307692305897 24.43688399418902,15.844674008716037 24.155325991276918,14.4368839941607 24.615384615393893,13.076923076905663 30.76923076923353,3.8461538461320703 36.92307692307317,-5.384615384641522 38.001479837416106,-6.332346775079884 39.409269851971445,-6.613904777991986 40.76923076922648,-6.153846153875011 50.00000000000008,-3.537259374297719e-11 59.230769230773674,6.153846153804266 60.17850062121204,7.232249068147201 60.46005862412414,8.640039082702538 60.00000000000716,9.999999999957575 53.846153846167525,19.230769230731173 47.69230769232789,28.461538461504773 47.23224906821091,29.82149937875981 47.51380707112301,31.229289393315145 48.461538461561375,32.30769230765808 57.69230769233497,38.46153846149772" stroke="#000" fill="none" stroke-linecap="round" stroke-linejoin="round"/><polyline points="57.69230769233497,38.46153846149772 66.92307692310857,44.615384615337355 68.2830378403636,45.07544323945433 69.69082785491894,44.79388523654223 70.76923076926187,43.84615384610387 76.9230769231015,34.61538461533027 83.07692307694114,25.384615384556675 83.53698170105812,24.024654467301637 83.25542369814602,22.6168644527463 82.30769230770765,21.538461538403364 73.07692307693405,15.384615384563721 63.846153846160455,9.230769230724079 62.89842245572209,8.152366316381142 62.61686445280999,6.744576301825806 63.07692307692697,5.384615384570768 69.23076923076661,-3.8461538462028315 75.38461538460625,-13.076923076976431 76.46301829894918,-14.024654467414793 77.87080831350451,-14.306212470326896 79.23076923075955,-13.846153846209921 88.46153846153315,-7.6923076923702824 97.69230769230676,-1.538461538530644 100.00000000000016,-7.073408525570812e-11" stroke="#000" fill="none" stroke-linecap="round" stroke-linejoin="round"/><polygon points="100.00000000000016,-7.073408525570812e-11 95.28504833207924,-9.152553237783682 94.1756479396325,-3.8829013736432194 89.73804636983283,-0.8320502944013204" stroke="#000" fill="#000" fill-rule="evenodd" stroke-linejoin="round"/></svg>