<?xml version="1.0" ?><!DOCTYPE svg  PUBLIC '-//W3C//DTD SVG 1.1//EN'  'http://www.w3.org/Graphics/SVG/1.1/DTD/svg11.dtd'><svg xmlns="http://www.w3.org/2000/svg" width="135.000" height="109.000" viewBox="-19.000 -34.000 135.000 109.000"><line x1="0.0" y1="0.0" x2="0.0" y2="0.0" stroke="none" fill="none" stroke-width="2.0" stroke-linecap="round"/><polygon points="0.0,0.0 0.0,0.0 0.0,0.0" fill="none" fill-rule="evenodd" stroke-linejoin="round"/><polyline points="0.0,0.0 5.029585798816569,2.0710059171597632 10.059171597633139,4.1420118343195265 14.082840236686394,5.798816568047337 14.641291252870355,5.871149814457719 15.16109064286009,5.6545667352953295 15.50295857988166,5.207100591715976 17.15976331360947,1.1834319526627217 19.230769230769234,-3.8461538461538467 21.301775147928996,-8.875739644970416 22.958579881656807,-12.899408284023671 23.30044781867838,-13.346874427603025 23.820247208668114,-13.563457506765415 24.378698224852073,-13.491124260355033 28.40236686390533,-11.834319526627223 33.4319526627219,-9.76331360946746 38.46153846153847,-7.692307692307697 43.491124260355036,-5.621301775147934 48.520710059171606,-3.550295857988171 52.54437869822486,-1.8934911242603607 53.10282971440882,-1.8211578778499786 53.622629104398555,-2.0377409570123683 53.964497041420124,-2.4852071005917216 55.621301775147934,-6.508875739644976 57.6923076923077,-11.538461538461544 59.76331360946747,-16.568047337278113 61.42011834319528,-20.59171597633137 61.761986280216846,-21.039182119910723 62.28178567020658,-21.255765199073114 62.84023668639054,-21.183431952662733 66.8639053254438,-19.526627218934923 71.89349112426036,-17.45562130177516 76.92307692307693,-15.384615384615397 81.9526627218935,-13.313609467455635 86.98224852071007,-11.242603550295872 92.01183431952664,-9.171597633136109 97.04142011834321,-7.100591715976346 101.06508875739647,-5.443786982248536 101.51255490097581,-5.101919045226966 101.7291379801382,-4.58211965523723 101.65680473372782,-4.02366863905327 100.00000000000001,-1.3322676295501878e-14" stroke="#ff6b6b" fill="none" stroke-width="3.0" stroke-linecap="round" stroke-linejoin="round"/><polyline points="0.0,0.0 -2.071005917156209,5.029585798818033 -4.142011834312418,10.059171597636066 -5.7988165680373855,14.082840236690492 -5.871149814447373,14.641291252874504 -5.654566735284615,15.161090642864087 -5.207100591705021,15.502958579885341 -1.1834319526505945,17.15976331361031 3.8461538461674385,19.23076923076652 8.875739644985472,21.30177514792273 12.899408284039898,22.958579881647697 13.346874427619493,23.300447818668953 13.56345750678225,23.820247208658536 13.491124260372262,24.378698224842548 11.834319526647295,28.402366863896976 9.763313609491087,33.43195266271501 7.692307692334879,38.461538461533046 5.6213017751786705,43.49112426035108 3.5502958580224617,48.52071005916911 1.893491124297495,52.54437869822354 1.8211578778875077,53.10282971440755 2.037740957050265,53.62262910439713 2.4852071006298604,53.96449704141838 6.508875739684287,55.62130177514335 11.53846153850232,57.692307692299565 16.56804733732035,59.76331360945578 20.59171597637478,61.42011834318075 21.15016699255879,61.492451589590736 21.669966382548374,61.275868510427976 22.01183431956963,60.82840236684838 23.668639053294598,56.80473372779395 25.325443787019566,52.781065088739524 25.66731172404082,52.33359894515993 26.187111114030404,52.11701586599717 26.745562130214417,52.18934911240716 30.769230769268844,53.846153846132125 34.79289940832327,55.50295857985709 35.35135042450728,55.57529182626708 35.87114981449686,55.35870874710432 36.213017751518116,54.91124260352473 37.869822485243084,50.8875739644703 39.52662721896805,46.86390532541587 39.86849515598931,46.416439181836274" stroke="#1e90ff" fill="none" stroke-width="3.0" stroke-linecap="round" stroke-linejoin="round"/><polyline points="39.86849515598931,46.416439181836274 40.388294545978894,46.199856102673515 40.9467455621629,46.272189349083504 44.97041420121733,47.92899408280847 50.000000000035364,49.999999999964686 55.0295857988534,52.0710059171209 59.053254437907825,53.72781065084587 59.61170545409183,53.80014389725586 60.13150484408142,53.5835608180931 60.473372781102675,53.1360946745135 62.13017751482764,49.11242603545907 63.78698224855261,45.088757396404645 64.12885018557387,44.64129125282505 64.64864957556345,44.42470817366229 65.20710059174746,44.49704142007228 69.2307692308019,46.15384615379725 73.25443786985633,47.810650887522215 73.81288888604034,47.882984133932204 74.33268827602993,47.666401054769445 74.67455621305118,47.21893491118985 76.33136094677614,43.19526627213542 78.40236686393236,38.16568047331738 80.47337278108857,33.13609467449935 82.54437869824478,28.10650887568131 84.615384615401,23.076923076863274 86.68639053255721,18.047337278045237 88.75739644971343,13.0177514792272 90.82840236686964,7.988165680409164 92.89940828402585,2.9585798815911275 94.55621301775082,-1.0650887574633012 94.89808095477207,-1.5125549010428965 95.41788034476166,-1.7291379802056537 95.97633136094566,-1.6568047337956662 100.0000000000001,-7.069722585129057e-11" stroke="#1e90ff" fill="none" stroke-width="3.0" stroke-linecap="round" stroke-linejoin="round"/><polyline points="0.0,0.0 0.2958579881654448,0.7100591715977324 1.479289940827224,3.5502958579886617 2.662721893489003,6.390532544379591 2.715520996767763,6.78519958468007 2.563912841353968,7.1533908192560824 2.2485207100567157,7.396449704142767 -0.5917159763342141,8.579881656804547 -3.431952662725144,9.763313609466326 -3.7473447940223963,10.00637249435301 -3.898952949436192,10.374563728929024 -3.846153846157432,10.769230769229504 -2.662721893495653,13.609467455620434 -1.479289940833874,16.449704142011363 -1.2362310559471894,16.765096273308615 -0.8680398213711769,16.91670442872241 -0.4733727810706968,16.863905325443653 2.366863905320234,15.680473372781876 5.207100591711164,14.497041420120098 5.522492723008416,14.253982535233414 5.6741008784222124,13.8857913006574 5.621301775143452,13.491124260356921 4.437869822481675,10.650887573965989 3.2544378698198977,7.810650887575056 3.2016387665411377,7.415983847274576 3.3532469219549332,7.047792612698563 3.668639053252186,6.804733727811879 6.508875739643117,5.621301775150101 9.349112426034049,4.437869822488324 9.743779466334528,4.385070719209564 10.111970700910542,4.53667887462336 10.355029585797226,4.852071005920612 11.538461538459003,7.692307692311543 12.721893491120781,10.532544378702474 12.774692594399541,10.927211419002953 12.623084438985746,11.295402653578966 12.307692307688493,11.53846153846565 9.467455621297562,12.72189349112743 6.627218934906631,13.90532544378921 6.311826803609379,14.148384328675894 6.160218648195584,14.516575563251907 6.213017751474344,14.911242603552386 7.396449704136122,17.75147928994332" stroke="#000" fill="none" stroke-linecap="round" stroke-linejoin="round"/><polyline points="7.396449704136122,17.75147928994332 8.5798816567979,20.59171597633425 8.822940541684584,20.9071081076315 9.191131776260598,21.058716263045298 9.585798816561077,21.00591715976654 12.42603550295201,19.822485207104762 15.266272189342942,18.639053254442985 15.581664320640195,18.3959943695563 15.73327247605399,18.027803134980285 15.68047337277523,17.633136094679806 14.497041420113455,14.792899408288873 13.313609467451677,11.95266272189794 13.260810364172917,11.557995681597461 13.412418519586712,11.189804447021448 13.727810650883965,10.946745562134764 16.568047337274898,9.763313609472986 19.40828402366583,8.579881656811208 19.802951063966308,8.527082553532448 20.17114229854232,8.678690708946244 20.414201183429007,8.994082840243497 21.597633136090785,11.83431952663443 22.781065088752563,14.674556213025362 22.833864192031324,15.069223253325841 22.682256036617527,15.437414487901854 22.366863905320276,15.680473372788539 19.526627218929345,16.863905325450318 16.686390532538415,18.047337278112096 16.370998401241163,18.290396162998782 16.219390245827366,18.658587397574795 16.272189349106128,19.053254437875275 17.455621301767906,21.893491124266205 18.639053254429683,24.733727810657136 18.88211213931637,25.049119941954388 19.250303373892383,25.200728097368184 19.644970414192862,25.147928994089426 22.485207100583793,23.96449704142765 25.325443786974724,22.78106508876587 25.720110827275203,22.728265985487113 26.088302061851216,22.87987414090091 26.331360946737902,23.19526627219816 27.51479289939968,26.035502958589092 28.698224852061458,28.875739644980023 28.75102395534022,29.270406685280502" stroke="#000" fill="none" stroke-linecap="round" stroke-linejoin="round"/><polyline points="28.75102395534022,29.270406685280502 28.599415799926422,29.638597919856515 28.28402366862917,29.8816568047432 25.44378698223824,31.065088757404983 22.60355029584731,32.248520710066764 22.20888325554683,32.30131981334552 21.840692020970817,32.149711657931725 21.59763313608413,31.834319526634474 20.41420118342235,28.994082840243543 19.23076923076057,26.153846153852612 18.987710345873882,25.83845402255536 18.61951911129787,25.686845867141564 18.22485207099739,25.739644970420326 15.384615384606457,26.923076923082107 12.544378698215525,28.106508875743888 12.228986566918271,28.349567760630574 12.077378411504476,28.717758995206587 12.130177514783236,29.112426035507067 13.313609467445016,31.952662721898 14.497041420106795,34.79289940828893 14.74010030499348,35.10829153958618 15.108291539569493,35.25989969499998 15.502958579869974,35.20710059172122 18.343195266260906,34.023668639059444 21.18343195265184,32.84023668639767 21.57809899295232,32.78743758311891 21.946290227528333,32.939045738532705 22.18934911241502,33.25443786982996 23.372781065076797,36.09467455622089 24.556213017738575,38.93491124261182 24.609012121017336,39.3295782829123 24.45740396560354,39.69776951748831 24.142011834306288,39.940828402375 21.301775147915354,41.124260355036775 18.46153846152442,42.30769230769855 18.06687142122394,42.36049141097731 17.698680186647927,42.208883255563514 17.45562130176124,41.89349112426626 16.27218934909946,39.05325443787533 15.088757396437678,36.2130177514844 14.845698511550994,35.89762562018715 14.47750727697498,35.74601746477335 14.0828402366745,35.79881656805211" stroke="#000" fill="none" stroke-linecap="round" stroke-linejoin="round"/><polyline points="14.0828402366745,35.79881656805211 11.242603550283565,36.98224852071389 8.402366863892631,38.165680473375666 8.086974732595378,38.40873935826235 7.935366577181582,38.77693059283836 7.988165680460342,39.171597633138845 9.171597633122122,42.01183431952978 10.355029585783901,44.85207100592072 10.407828689062661,45.2467380462212 10.256220533648866,45.61492928079721 9.940828402351613,45.8579881656839 7.100591715960679,47.04142011834568 4.2603550295697445,48.224852071007454 3.944962898272492,48.46791095589414 3.7933547428586962,48.83610219047015 3.8461538461374563,49.23076923077063 5.029585798799236,52.07100591716157 6.213017751461015,54.91124260355251 6.456076636347699,55.22663473484976 6.824267870923713,55.37824289026356 7.218934911224193,55.3254437869848 10.059171597615128,54.14201183432302 12.899408284006064,52.958579881661244 13.214800415303317,52.71552099677456 13.366408570717113,52.34732976219855 13.313609467438352,51.952662721898065 12.130177514776573,49.11242603550713 10.946745562114794,46.27218934911619 10.893946458836034,45.877522308815706 11.045554614249829,45.5093310742397 11.360946745547082,45.26627218935301 14.201183431938018,44.08284023669123 17.041420118328954,42.899408284029455 17.436087158629434,42.8466091807507 17.804278393205447,42.998217336164494 18.047337278092133,43.313609467461745 19.230769230753914,46.15384615385268 20.414201183415695,48.99408284024362 20.467000286694457,49.388749880544104 20.31539213128066,49.75694111512012 19.99999999998341,50.00000000000681 17.15976331359247,51.183431952668585 14.319526627201535,52.36686390533036" stroke="#000" fill="none" stroke-linecap="round" stroke-linejoin="round"/><polyline points="14.319526627201535,52.36686390533036 14.004134495904282,52.60992279021705 13.852526340490487,52.978114024793065 13.905325443769247,53.37278106509355 15.088757396431028,56.213017751484486 16.27218934909281,59.053254437875424 16.515248233979495,59.368646569172675 16.88343946855551,59.52025472458647 17.278106508855988,59.467455621307714 20.118343195246926,58.284023668645936 22.958579881637863,57.10059171598416 23.27397201293512,56.85753283109747 23.425580168348915,56.489341596521456 23.372781065070157,56.09467455622097 22.18934911240838,53.254437869830035 21.005917159746602,50.4142011834391 20.953118056467844,50.019534143138614 21.10472621188164,49.6513429085626 21.420118343178896,49.40828402367591 24.260355029569833,48.22485207101413 27.10059171596077,47.041420118352356 27.49525875626125,46.9886210150736 27.863449990837264,47.140229170487395 28.10650887572395,47.455621301784646 29.28994082838573,50.295857988175584 30.473372781047512,53.13609467456652 30.7164316659342,53.45148680586377 31.08462290051021,53.60309496127757 31.47928994081069,53.55029585799881 34.319526627201626,52.366863905337034 37.15976331359256,51.18343195267526 37.475155444889815,50.94037306778857 37.62676360030361,50.572181833212554 37.57396449702485,50.17751479291207 36.390532544363076,47.33727810652113 35.2071005917013,44.497041420130195 34.96404170681461,44.18164928883294 34.5958504722386,44.03004113341915 34.20118343193812,44.082840236697905 31.36094674554718,45.26627218935968 28.520710059156244,46.44970414202146 28.126043018855764,46.50250324530022 27.75785178427975,46.35089508988642" stroke="#000" fill="none" stroke-linecap="round" stroke-linejoin="round"/><polyline points="27.75785178427975,46.35089508988642 27.514792899393065,46.03550295858917 26.331360946731284,43.19526627219823 25.147928994069503,40.355029585807294 25.095129890790744,39.96036254550681 25.24673804620454,39.592171310930794 25.562130177501796,39.34911242604411 28.402366863892734,38.16568047338233 31.242603550283672,36.98224852072055 31.63727059058415,36.929449417441795 32.00546182516017,37.08105757285559 32.248520710046854,37.39644970415284 33.43195266270863,40.23668639054378 34.61538461537041,43.07692307693472 34.858443500257096,43.39231520823197 35.22663473483311,43.54392336364577 35.621301775133595,43.49112426036701 38.46153846152453,42.30769230770523 41.30177514791547,41.124260355043454 41.61716727921272,40.88120147015677 41.76877543462652,40.51301023558075 41.71597633134776,40.11834319528027 40.532544378685984,37.27810650888933 39.349112426024206,34.43786982249839 39.10605354113752,34.12247769120114 38.73786230656151,33.970869535787344 38.34319526626103,34.0236686390661 35.50295857987009,35.20710059172788 32.66272189347915,36.39053254438966 32.26805485317867,36.443331647668415 31.899863618602655,36.29172349225462 31.65680473371597,35.97633136095737 30.473372781054188,33.13609467456643 29.289940828392407,30.29585798817549 29.23714172511365,29.901190947875012 29.388749880527445,29.532999713299 29.7041420118247,29.289940828412313 32.54437869821564,28.10650887575053 35.384615384606576,26.92307692308875 35.77928242490706,26.87027781980999 36.147473659483076,27.021885975223785 36.39053254436976,27.337278106521037 37.57396449703154,30.17751479291197" stroke="#000" fill="none" stroke-linecap="round" stroke-linejoin="round"/><polyline points="37.57396449703154,30.17751479291197 38.75739644969332,33.01775147930291 39.00045533458,33.33314361060016 39.36864656915602,33.48475176601396 39.7633136094565,33.4319526627352 42.60355029584744,32.24852071007342 45.44378698223838,31.06508875741164 45.75917911353563,30.822029872524954 45.91078726894943,30.45383863794894 45.85798816567067,30.05917159764846 44.67455621300889,27.218934911257524 43.491124260347114,24.378698224866586 43.438325157068356,23.984031184566106 43.58993331248215,23.615839949990093 43.905325443779404,23.372781065103407 46.74556213017034,22.189349112441626 49.58579881656128,21.005917159779845 49.90119094785853,20.76285827489316 50.05279910327233,20.394667040317145 49.99999999999357,20.000000000016666 48.81656804733179,17.159763313625728 47.633136094670014,14.319526627234792 47.39007720978333,14.004134495937539 47.02188597520732,13.852526340523742 46.627218934906836,13.905325443802502 43.7869822485159,15.088757396464281 40.94674556212496,16.27218934912606 40.63135343082771,16.515248234012745 40.47974527541391,16.883439468588758 40.53254437869267,17.278106508889238 41.71597633135445,20.118343195280175 42.899408284016225,22.958579881671113 42.95220738729498,23.353246921971593 42.800599231881186,23.721438156547606 42.485207100583935,23.964497041434292 39.644970414193,25.14792899409607 36.80473372780206,26.331360946757847 36.410066687501576,26.384160050036606 36.04187545292557,26.23255189462281 35.79881656803888,25.917159763325554 34.6153846153771,23.076923076934616 33.431952662715325,20.236686390543678 33.37915355943657,19.8420193502432" stroke="#000" fill="none" stroke-linecap="round" stroke-linejoin="round"/><polyline points="33.37915355943657,19.8420193502432 33.530761714850364,19.473828115667185 33.846153846147615,19.2307692307805 36.68639053253855,18.047337278118718 39.52662721892949,16.863905325456937 39.84201935022674,16.62084644057025 39.99362750564054,16.252655205994238 39.94082840236178,15.857988165693756 38.7573964497,13.01775147930282 37.573964497038226,10.177514792911884 37.33090561215154,9.862122661614631 36.96271437757553,9.710514506200834 36.56804733727505,9.763313609479594 33.72781065088411,10.946745562141373 30.88757396449317,12.130177514803151 30.572181833195916,12.373236399689835 30.42057367778212,12.741427634265849 30.473372781060878,13.13609467456633 31.656804733722655,15.976331360957268 32.840236686384436,18.816568047348206 32.893035789663195,19.211235087648685 32.7414276342494,19.5794263222247 32.426035502952146,19.822485207111384 29.58579881656121,21.005917159773162 26.74556213017027,22.18934911243494 26.35089508986979,22.242148215713698 25.982703855293778,22.0905400602999 25.73964497040709,21.775147929002646 24.55621301774531,18.934911242611708 23.37278106508353,16.09467455622077 23.31998196180477,15.700007515920289 23.471590117218568,15.331816281344276 23.786982248515823,15.088757396457591 26.62721893490676,13.905325443795812 29.4674556212977,12.721893491134033 29.782847752594954,12.478834606247348 29.93445590800875,12.110643371671335 29.881656804729992,11.715976331370854 28.698224852068215,8.875739644979918 27.514792899406437,6.035502958588982 27.27173401451975,5.7201108272917285 26.903542779943738,5.5685026718779325 26.50887573964326,5.6213017751566925" stroke="#000" fill="none" stroke-linecap="round" stroke-linejoin="round"/><polyline points="26.50887573964326,5.6213017751566925 23.66863905325232,6.804733727818471 20.828402366861383,7.988165680480249 20.433735326560903,8.040964783759009 20.06554409198489,7.889356628345213 19.822485207098204,7.573964497047959 18.639053254436423,4.733727810657022 17.45562130177464,1.893491124266086 17.402822198495883,1.498824083965605 17.55443035390968,1.1306328493895919 17.869822485206935,0.887573964502907 20.710059171597873,-0.29585798815887276 23.55029585798881,-1.4792899408206526 23.94496289828929,-1.5320890440994126 24.313154132865304,-1.3804808886856166 24.55621301775199,-1.0650887573883634 25.73964497041377,1.7751479290025727 26.923076923075552,4.615384615393509 27.166135807962238,4.930776746690762 27.53432704253825,5.082384902104558 27.92899408283873,5.029585798825798 30.76923076922967,3.846153846164019 33.6094674556206,2.6627218935022396 33.924859586917854,2.419663008615555 34.07646774233165,2.0514717740395416 34.02366863905289,1.6568047337390608 32.840236686391115,-1.1834319526518757 31.656804733729338,-4.023668639042812 31.41374584884265,-4.339060770340065 31.04555461426664,-4.4906689257538615 30.65088757396616,-4.437869822475101 27.81065088757522,-3.254437869813323 24.970414201184283,-2.0710059171515445 24.575747160883804,-2.0182068138727844 24.20755592630779,-2.1698149692865805 23.964497041421104,-2.4852071005838337 22.781065088759323,-5.32544378697477 21.597633136097542,-8.165680473365706 21.544834032818784,-8.560347513666187 21.69644218823258,-8.9285387482422 22.011834319529836,-9.171597633128885 24.852071005920774,-10.355029585790664 27.69230769231171,-11.538461538452443" stroke="#000" fill="none" stroke-linecap="round" stroke-linejoin="round"/><polyline points="27.69230769231171,-11.538461538452443 28.08697473261219,-11.591260641731203 28.455165967188204,-11.439652486317408 28.69822485207489,-11.124260355020155 29.88165680473667,-8.284023668629219 31.065088757398453,-5.443786982238283 31.30814764228514,-5.12839485094103 31.676338876861152,-4.976786695527234 32.071005917161635,-5.029585798805994 34.91124260355257,-6.213017751467773 37.75147928994351,-7.3964497041295525 38.146146330243994,-7.4492488074083125 38.51433756482001,-7.2976406519945165 38.7573964497067,-6.982248520697263 39.940828402368474,-4.142011834306327 41.12426035503025,-1.3017751479153912 41.17705945830901,-0.9071081076149103 41.02545130289521,-0.5389168730388971 40.71005917159796,-0.29585798815221215 37.869822485207024,0.887573964509569 35.029585798816086,2.07100591717135 34.714193667518835,2.314064802058035 34.56258551210504,2.6822560366340484 34.615384615383796,3.0769230769345293 35.798816568045574,5.917159763325466 36.98224852070735,8.757396449716403 37.22530740559404,9.072788581013656 37.593498640170054,9.224396736427451 37.98816568047054,9.171597633148691 40.828402366861475,7.988165680486912 43.66863905325241,6.804733727825132 43.984031184549664,6.561674842938447 44.13563933996346,6.193483608362434 44.0828402366847,5.7988165680619534 42.899408284022925,2.958579881671017 41.71597633136115,0.11834319528008042 41.66317722808239,-0.2763238450204004 41.81478538349619,-0.6445150795964136 42.13017751479344,-0.8875739644830984 44.970414201184376,-2.0710059171448783 47.810650887575314,-3.254437869806658 48.2053179278758,-3.307236973085418 48.57350916245181,-3.155628817671622" stroke="#000" fill="none" stroke-linecap="round" stroke-linejoin="round"/><polyline points="48.57350916245181,-3.155628817671622 48.8165680473385,-2.840236686374369 50.00000000000028,1.6567192062666436e-11 51.183431952662055,2.8402366864075033 51.23623105594081,3.234903726707984 51.084622900527016,3.6030949612839973 50.769230769229765,3.846153846170682 47.92899408283883,5.029585798832463 45.08875739644789,6.213017751494244 44.77336526515064,6.45607663638093 44.62175710973684,6.824267870956943 44.6745562130156,7.218934911257424 45.85798816567738,10.05917159764836 47.041420118339154,12.899408284039296 47.28447900322584,13.21480041533655 47.65267023780186,13.366408570750345 48.04733727810234,13.313609467471585 50.88757396449328,12.130177514809805 53.727810650884216,10.946745562148026 54.04320278218147,10.703686677261341 54.194810937595264,10.335495442685328 54.142011834316506,9.940828402384847 52.95857988165473,7.100591715993911 51.77514792899295,4.260355029602975 51.72234882571419,3.865687989302494 51.87395698112799,3.497496754726481 52.18934911242524,3.254437869839796 55.02958579881618,2.071005917178016 57.869822485207116,0.8875739645162364 58.2644895255076,0.8347748612374764 58.632680760083616,0.9863830166512723 58.8757396449703,1.3017751479485253 60.05917159763208,4.142011834339462 61.24260355029386,6.982248520730398 61.295402653572616,7.376915561030879 61.14379449815882,7.745106795606892 60.82840236686157,7.9881656804935774 57.98816568047063,9.171597633155358 55.14792899407969,10.355029585817139 54.83253686278244,10.598088470703823 54.68092870736864,10.966279705279836 54.7337278106474,11.360946745580318 55.91715976330918,14.201183431971254" stroke="#000" fill="none" stroke-linecap="round" stroke-linejoin="round"/><polyline points="55.91715976330918,14.201183431971254 57.10059171597096,17.04142011836219 57.34365060085764,17.35681224965944 57.71184183543366,17.508420405073238 58.10650887573414,17.455621301794476 60.94674556212508,16.272189349132695 63.78698224851602,15.088757396470916 64.1816492888165,15.035958293192156 64.54984052339252,15.187566448605951 64.7928994082792,15.502958579903204 65.97633136094097,18.34319526629414 67.15976331360275,21.183431952685076 67.21256241688151,21.578098992985556 67.06095426146771,21.94629022756157 66.74556213017046,22.189349112448255 63.90532544377952,23.372781065110036 61.06508875738858,24.556213017771817 60.6704217170881,24.60901212105058 60.30223048251208,24.457403965636782 60.059171597625394,24.14201183433953 58.87573964496361,21.301775147948597 57.692307692301824,18.461538461557662 57.44924880741514,18.14614633026041 57.08105757283912,17.994538174846614 56.68639053253864,18.047337278125376 53.8461538461477,19.230769230787157 51.00591715975676,20.414201183448938 50.69052502845951,20.657260068335624 50.538916873045714,21.025451302911637 50.59171597632447,21.420118343212117 51.77514792898626,24.260355029603055 52.95857988164804,27.100591715993993 53.20163876653473,27.415983847291244 53.569830001110745,27.56759200270504 53.96449704141123,27.51479289942628 56.804733727802166,26.331360946764498 59.644970414193104,25.147928994102717 60.03963745449359,25.095129890823955 60.4078286890696,25.246738046237752 60.65088757395629,25.562130177535007 61.834319526618074,28.402366863925945 63.01775147927986,31.242603550316883 63.07055058255862,31.637270590617362" stroke="#000" fill="none" stroke-linecap="round" stroke-linejoin="round"/><polyline points="63.07055058255862,31.637270590617362 62.91894242714482,32.00546182519338 62.60355029584757,32.248520710080065 59.76331360945663,33.43195266274185 56.92307692306569,34.615384615403634 56.52840988276521,34.66818371868239 56.16021864818919,34.516575563268596 55.91715976330251,34.201183431971344 54.73372781064072,31.360946745580407 53.55029585797894,28.52071005918947 53.30723697309225,28.205317927892214 52.939045738516235,28.053709772478417 52.54437869821575,28.10650887575718 49.704142011824814,29.289940828418963 46.863905325433876,30.473372781080748 46.548513194136625,30.716431665967434 46.39690503872283,31.084622900543447 46.449704142001586,31.479289940843927 47.63313609466337,34.319526627234865 48.816568047325156,37.1597633136258 48.869367150603914,37.554430353926286 48.71775899519012,37.9226215885023 48.402366863892865,38.16568047338899 45.56213017750193,39.34911242605077 42.72189349111099,40.53254437871256 42.40650135981374,40.775603263599244 42.25489320439994,41.14379449817526 42.3076923076787,41.538461538475744 43.491124260340484,44.37869822486668 44.67455621300227,47.21893491125762 44.917615097888955,47.53432704255487 45.28580633246497,47.68593519796867 45.680473372765455,47.63313609468991 48.52071005915639,46.449704142028125 51.36094674554733,45.26627218936634 51.67633887684458,45.023213304479654 51.82794703225838,44.65502206990364 51.77514792897962,44.260355029603154 50.591715976317836,41.42011834321221 49.40828402365605,38.57988165682127 49.35548492037729,38.18521461652079 49.50709307579109,37.81702338194477 49.82248520708834,37.573964497058085" stroke="#000" fill="none" stroke-linecap="round" stroke-linejoin="round"/><polyline points="49.82248520708834,37.573964497058085 52.66272189347929,36.3905325443963 55.502958579870224,35.207100591734516 55.89762562017071,35.15430148845576 56.265816854746724,35.305909643869555 56.50887573963341,35.621301775166806 57.692307692295195,38.461538461557744 58.87573964495698,41.30177514794868 58.92853874823574,41.696442188249165 58.77693059282194,42.06463342282518 58.46153846152469,42.30769230771187 55.62130177513375,43.49112426037365 52.781065088742814,44.67455621303544 52.46567295744556,44.91761509792212 52.314064802031766,45.28580633249814 52.366863905310524,45.68047337279862 53.55029585797231,48.52071005918956 54.73372781063409,51.3609467455805 54.97678669552078,51.67633887687775 55.344977930096796,51.82794703229155 55.73964497039728,51.77514792901279 58.57988165678822,50.591715976351004 61.420118343179155,49.40828402368922 61.735510474476406,49.16522513880253 61.8871186298902,48.79703390422652 61.834319526611445,48.402366863926034 60.65088757394966,45.56213017753509 59.46745562128788,42.721893491144144 59.414656518009124,42.32722645084366 59.56626467342292,41.959035216267644 59.88165680472017,41.71597633138096 62.72189349111112,40.53254437871917 65.56213017750206,39.34911242605739 65.95679721780253,39.29631332277863 66.32498845237855,39.44792147819243 66.56804733726523,39.76331360948968 67.751479289927,42.60355029588062 68.93491124258878,45.44378698227157 69.17797012747546,45.75917911356882 69.54616136205148,45.91078726898262 69.94082840235195,45.85798816570386 72.78106508874289,44.674556213042074 75.62130177513383,43.49112426038029" stroke="#000" fill="none" stroke-linecap="round" stroke-linejoin="round"/><polyline points="75.62130177513383,43.49112426038029 75.93669390643109,43.2480653754936 76.08830206184489,42.879874140917586 76.03550295856613,42.4852071006171 74.85207100590435,39.64497041422616 73.66863905324257,36.80473372783521 73.42558016835589,36.48934159653796 73.05738893377988,36.337733441124165 72.6627218934794,36.39053254440292 69.82248520708846,37.5739644970647 66.98224852069752,38.75739644972648 66.58758148039705,38.81019555300524 66.21939024582103,38.65858739759144 65.97633136093435,38.34319526629419 64.79289940827258,35.50295857990324 63.6094674556108,32.6627218935123 63.55666835233204,32.268054853211815 63.708276507745836,31.899863618635802 64.0236686390431,31.656804733749116 66.86390532543403,30.473372781087335 69.70414201182497,29.289940828425554 70.09880905212545,29.23714172514679 70.46700028670146,29.38874988056059 70.71005917158814,29.704142011857844 71.89349112424992,32.544378698248785 73.0769230769117,35.38461538463973 73.31998196179838,35.70000751593698 73.6881731963744,35.85161567135078 74.08284023667487,35.79881656807202 76.92307692306582,34.615384615410235 79.76331360945677,33.43195266274845 80.07870574075403,33.188893777861765 80.23031389616783,32.82070254328575 80.17751479288907,32.426035502985265 78.99408284022729,29.58579881659432 77.81065088756552,26.745562130203375 77.56759200267884,26.43016999890612 77.19940076810282,26.278561843492323 76.80473372780234,26.33136094677108 73.96449704141139,27.514792899432862 71.12426035502044,28.698224852094643 70.72959331471996,28.7510239553734 70.36140208014395,28.599415799959605" stroke="#000" fill="none" stroke-linecap="round" stroke-linejoin="round"/><polyline points="70.36140208014395,28.599415799959605 70.11834319525727,28.28402366866235 68.93491124259549,25.4437869822714 67.75147928993371,22.603550295880453 67.69868018665495,22.20888325557997 67.85028834206875,21.840692021003957 68.16568047336601,21.59763313611727 71.00591715975696,20.41420118345549 73.84615384614791,19.230769230793708 74.24082088644839,19.17797012751495 74.6090121210244,19.329578282928747 74.85207100591109,19.644970414226 76.03550295857286,22.485207100616947 77.21893491123464,25.32544378700789 77.46199379612132,25.640835918305147 77.83018503069734,25.792444073718944 78.22485207099781,25.739644970440185 81.06508875738876,24.556213017778404 83.90532544377972,23.372781065116623 84.22071757507697,23.129722180229937 84.37232573049077,22.761530945653924 84.31952662721201,22.36686390535344 83.13609467455024,19.526627218962492 81.95266272188846,16.686390532571544 81.8998636186097,16.29172349227106 82.0514717740235,15.923532257695046 82.36686390532076,15.68047337280836 85.20710059171171,14.497041420146576 88.04733727810266,13.313609467484795 88.36272940939992,13.07055058259811 88.51433756481372,12.702359348022094 88.46153846153496,12.307692307721611 87.27810650887318,9.467455621330664 86.0946745562114,6.627218934939718 85.85161567132472,6.311826803642463 85.4834244367487,6.160218648228666 85.08875739644823,6.213017751507426 82.24852071005728,7.396449704169207 79.40828402366633,8.579881656830988 79.09289189236907,8.822940541717674 78.94128373695527,9.19113177629369 78.99408284023403,9.585798816594172 80.1775147928958,12.42603550298512" stroke="#000" fill="none" stroke-linecap="round" stroke-linejoin="round"/><polyline points="80.1775147928958,12.42603550298512 81.36094674555758,15.26627218937607 81.41374584883634,15.660939229676552 81.26213769342255,16.029130464252567 80.94674556212529,16.272189349139254 78.10650887573433,17.455621301801035 75.26627218934338,18.639053254462816 74.8716051490429,18.691852357741574 74.50341391446689,18.540244202327777 74.26035502958021,18.224852071030522 73.07692307691843,15.384615384639574 71.89349112425666,12.544378698248625 71.8406920209779,12.149711657948142 71.9923001763917,11.781520423372127 72.30769230768895,11.538461538485441 75.1479289940799,10.355029585823658 77.98816568047086,9.171597633161875 78.30355781176812,8.928538748275189 78.45516596718191,8.560347513699174 78.40236686390315,8.165680473398691 77.21893491124138,5.3254437870077425 76.0355029585796,2.485207100616794 75.79244407369292,2.1698149693195394 75.4242528391169,2.0182068139057425 75.02958579881643,2.0710059171845026 72.18934911242548,3.2544378698462837 69.34911242603452,4.437869822508064 69.03372029473726,4.68092870739475 68.88211213932347,5.049119941970764 68.93491124260223,5.443786982271246 70.118343195264,8.284023668662195 71.30177514792578,11.124260355053146 71.35457425120454,11.518927395353629 71.20296609579074,11.887118629929644 70.88757396449348,12.13017751481633 68.04733727810253,13.313609467478111 65.20710059171158,14.497041420139892 64.8124335514111,14.549840523418652 64.44424231683509,14.398232368004855 64.20118343194841,14.0828402367076 63.01775147928662,11.24260355031665 61.83431952662484,8.4023668639257 61.78152042334608,8.007699823625217" stroke="#000" fill="none" stroke-linecap="round" stroke-linejoin="round"/><polyline points="61.78152042334608,8.007699823625217 61.93312857875988,7.639508589049202 62.24852071005713,7.3964497041625155 65.08875739644807,6.2130177515007325 67.92899408283903,5.02958579883895 68.24438621413628,4.7865269139522635 68.39599436955008,4.4183356793762485 68.34319526627132,4.023668639075765 67.15976331360955,1.1834319526848156 65.97633136094777,-1.6568047337061342 65.73327247606109,-1.972196865003389 65.36508124148507,-2.123805020417186 64.9704142011846,-2.071005917138426 62.130177514793644,-0.887573964476644 59.28994082840269,0.295857988185138 58.89527378810221,0.34865709146389784 58.52708255352619,0.19704893605010076 58.284023668639506,-0.1183431952471542 57.10059171597772,-2.9585798816381055 55.91715976331594,-5.798816568029057 55.86436066003718,-6.19348360832954 56.015968815450975,-6.561674842905555 56.33136094674823,-6.804733727792241 59.17159763313918,-7.988165680454025 62.01183431953013,-9.171597633115809 62.406501359830614,-9.224396736394569 62.77469259440663,-9.072788580980772 63.01775147929332,-8.757396449683517 64.2011834319551,-5.917159763292566 65.3846153846169,-3.0769230769016147 65.62767426950357,-2.7615309456043597 65.99586550407959,-2.609922790190563 66.39053254438006,-2.662721893469323 69.23076923077102,-3.846153846131107 72.07100591716197,-5.029585798792891 72.38639804845923,-5.2726446836795775 72.53800620387302,-5.6408359182555925 72.48520710059427,-6.0355029585560755 71.30177514793249,-8.875739644947027 70.11834319527071,-11.715976331337979 69.87528431038403,-12.031368462635234 69.50709307580802,-12.18297661804903 69.11242603550754,-12.13017751477027" stroke="#000" fill="none" stroke-linecap="round" stroke-linejoin="round"/><polyline points="69.11242603550754,-12.13017751477027 66.27218934911659,-10.946745562108488 63.431952662725635,-9.763313609446705 63.03728562242515,-9.710514506167945 62.669094387849135,-9.862122661581742 62.42603550296245,-10.177514792878997 61.242603550300664,-13.017751479269949 60.05917159763888,-15.8579881656609 60.00637249436012,-16.252655205961382 60.15798064977392,-16.6208464405374 60.47337278107118,-16.863905325424085 63.31360946746213,-18.04733727808587 66.15384615385308,-19.230769230747654 66.54851319415356,-19.283568334026416 66.91670442872957,-19.13196017861262 67.15976331361625,-18.816568047315364 68.34319526627804,-15.976331360924412 69.52662721893984,-13.13609467453346 69.76968610382652,-12.820702543236205 70.13787733840253,-12.669094387822408 70.53254437870302,-12.721893491101168 73.37278106509397,-13.905325443762953 76.21301775148493,-15.088757396424738 76.60768479178542,-15.141556499703498 76.97587602636143,-14.9899483442897 77.21893491124813,-14.674556212992446 78.40236686390992,-11.834319526601492 79.58579881657171,-8.994082840210538 79.63859791985047,-8.599415799910055 79.48698976443667,-8.23122456533404 79.17159763313941,-7.988165680447354 76.33136094674846,-6.804733727785567 73.49112426035751,-5.621301775123779 73.17573212906025,-5.378242890237093 73.02412397364645,-5.010051655661077 73.07692307692521,-4.615384615360594 74.260355029587,-1.775147928969639 75.4437869822488,1.0650887574213161 75.68684586713549,1.3804808887185716 76.0550371017115,1.5320890441323687 76.449704142012,1.4792899408536084 79.28994082840295,0.29585798819182196 82.1301775147939,-0.8875739644699645" stroke="#000" fill="none" stroke-linecap="round" stroke-linejoin="round"/><polyline points="82.1301775147939,-0.8875739644699645 82.44556964609116,-1.1306328493566509 82.59717780150496,-1.4988240839326665 82.5443786982262,-1.89349112423315 81.3609467455644,-4.7337278106241065 80.17751479290261,-7.573964497015063 80.12471568962386,-7.968631537315547 80.27632384503765,-8.336822771891562 80.59171597633491,-8.579881656778248 83.43195266272586,-9.763313609440035 86.27218934911681,-10.946745562101821 86.6668563894173,-10.999544665380581 87.03504762399332,-10.847936509966784 87.27810650888001,-10.53254437866953 88.4615384615418,-7.692307692278574 89.6449704142036,-4.852071005887618 89.69776951748236,-4.457403965587134 89.54616136206856,-4.089212731011118 89.2307692307713,-3.8461538461244316 86.39053254438035,-2.662721893462643 83.5502958579894,-1.4792899408008544 83.23490372669214,-1.2362310559141678 83.08329557127834,-0.8680398213381519 83.1360946745571,-0.4733727810376684 84.31952662721889,2.3668639053532887 85.50295857988068,5.207100591744245 85.74601746476738,5.522492723041501 86.1142086993434,5.674100878455298 86.50887573964388,5.621301775176538 89.34911242603484,4.437869822514751 92.18934911242579,3.2544378698529637 92.50474124372305,3.011378984966277 92.65634939913684,2.643187750390261 92.60355029585808,2.2485207100897773 91.4201183431963,-0.5917159763011806 90.2366863905345,-3.4319526626921384 90.18388728725574,-3.8266197029926223 90.33549544266954,-4.194810937568638 90.6508875739668,-4.437869822455324 93.49112426035775,-5.621301775117112 96.3313609467487,-6.804733727778899 96.72602798704919,-6.857532831057659 97.09421922162521,-6.705924675643862" stroke="#000" fill="none" stroke-linecap="round" stroke-linejoin="round"/><polyline points="97.09421922162521,-6.705924675643862 97.3372781065119,-6.390532544346606 98.5207100591737,-3.550295857955649 99.70414201183549,-0.7100591715646916 100.00000000000094,3.304778672941211e-11" stroke="#000" fill="none" stroke-linecap="round" stroke-linejoin="round"/></svg>