<?xml version="1.0" ?><!DOCTYPE svg  PUBLIC '-//W3C//DTD SVG 1.1//EN'  'http://www.w3.org/Graphics/SVG/1.1/DTD/svg11.dtd'><svg xmlns="http://www.w3.org/2000/svg" width="143.000" height="123.000" viewBox="-21.000 -61.000 143.000 123.000"><line x1="0.0" y1="0.0" x2="0.0" y2="0.0" stroke="none" fill="none" stroke-width="2.0" stroke-linecap="round"/><polyline points="0.0,0.0 -8.000000000000002,-23.999999999999996 -8.308644059797903,-26.448341529167962 -7.656854249492383,-28.828427124746188 -6.143859659213115,-30.777910330337537 -4.0000000000000036,-31.999999999999996 19.999999999999993,-39.99999999999999 43.999999999999986,-47.999999999999986 46.44834152916795,-48.308644059797885 48.82842712474617,-47.65685424949236 50.77791033033752,-46.14385965921309 51.99999999999998,-43.99999999999998 59.99999999999997,-19.999999999999982 67.99999999999997,4.000000000000014 69.22208966966242,6.143859659213126 71.17157287525377,7.656854249492394 73.551658470832,8.308644059797913 75.99999999999996,8.000000000000014 99.99999999999996,1.5987211554602254e-14" stroke="#ff6b6b" fill="none" stroke-width="3.0" stroke-linecap="round" stroke-linejoin="round"/><polyline points="0.0,0.0 23.999999999996923,-8.000000000009225 26.448341529164768,-8.308644059808065 28.828427124743243,-7.656854249503461 30.777910330335175,-6.143859659224942 31.999999999998458,-4.0000000000122995 40.00000000000768,19.999999999984624 48.000000000016904,43.99999999998155 49.22208966968019,46.14385965919419 51.17157287527212,47.65685424947271 53.5516584708506,48.308644059777315 56.000000000018446,47.99999999997847 80.00000000001536,39.99999999996925 104.00000000001228,31.999999999960025 106.14385965922492,30.77791033029674 107.65685424950344,28.82842712470481 108.30864405980805,26.448341529126335 108.00000000000921,23.99999999995849 99.99999999999999,-3.842615114990622e-11" stroke="#1e90ff" fill="none" stroke-width="3.0" stroke-linecap="round" stroke-linejoin="round"/><polyline points="0.0,0.0 1.9999999999969233,-4.0000000000015365 9.999999999984617,-20.00000000000768 17.99999999997231,-36.00000000001383 19.535898384833224,-37.73205080758388 21.73205080753929,-38.46410161515445 23.99999999997077,-38.00000000001844 39.99999999997692,-30.000000000030745 55.999999999983075,-22.000000000043052 57.73205080755314,-20.464101615182138 58.4641016151237,-18.26794919247607 57.99999999998769,-16.00000000004459 50.00000000000001,-3.843680929094262e-11 42.00000000001232,15.999999999967716 41.53589838487631,18.267949192399197 42.26794919244688,20.464101615105264 44.00000000001694,21.999999999966178 60.00000000002309,29.99999999995387 76.00000000002925,37.999999999941565 78.26794919246072,38.464101615077574 80.46410161516678,37.73205080750701 82.0000000000277,35.999999999936946 90.00000000001539,19.999999999930797 98.00000000000308,3.999999999924647 100.00000000000001,-7.689049397185954e-11" stroke="#000" fill="none" stroke-linecap="round" stroke-linejoin="round"/><polygon points="100.00000000000001,-7.689049397185954e-11 91.50294168550528,5.813776741429097 96.86950483150513,6.2609903369249285 100.44721359550788,10.2859126964218" stroke="#000" fill="#000" fill-rule="evenodd" stroke-linejoin="round"/></svg>