<?xml version="1.0" ?><!DOCTYPE svg  PUBLIC '-//W3C//DTD SVG 1.1//EN'  'http://www.w3.org/Graphics/SVG/1.1/DTD/svg11.dtd'><svg xmlns="http://www.w3.org/2000/svg" width="155.000" height="135.000" viewBox="-27.000 -67.000 155.000 135.000"><line x1="0.0" y1="0.0" x2="0.0" y2="0.0" stroke="none" fill="none" stroke-width="2.0" stroke-linecap="round"/><polyline points="0.0,0.0 -11.2,-1.5999999999999974 -12.546410161513775,-2.1751288694035686 -13.424871130596427,-3.346410161513772 -13.6,-4.799999999999996 -12.000000000000004,-16.0 -10.40000000000001,-27.200000000000003 -9.824871130596438,-28.54641016151378 -8.653589838486235,-29.424871130596433 -7.200000000000011,-29.600000000000005 3.999999999999992,-28.000000000000014 15.199999999999996,-26.400000000000023 16.65358983848622,-26.575128869403596 17.82487113059642,-27.45358983848625 18.39999999999999,-28.800000000000026 19.999999999999986,-40.00000000000003 21.59999999999998,-51.20000000000003 22.17512886940355,-52.546410161513805 23.346410161513756,-53.42487113059646 24.79999999999998,-53.60000000000003 35.999999999999986,-52.000000000000036 47.19999999999999,-50.40000000000004 48.54641016151376,-49.82487113059647 49.424871130596415,-48.65358983848627 49.59999999999999,-47.200000000000045 48.0,-36.00000000000004 46.40000000000001,-24.80000000000004 46.575128869403585,-23.346410161513816 47.45358983848624,-22.17512886940361 48.80000000000001,-21.60000000000004 60.000000000000014,-20.000000000000046 71.20000000000002,-18.400000000000052 72.54641016151379,-17.82487113059648 73.42487113059644,-16.653589838486276 73.60000000000002,-15.20000000000005 72.00000000000003,-4.000000000000044 70.40000000000003,7.199999999999962 70.57512886940361,8.653589838486187 71.45358983848627,9.82487113059639 72.80000000000004,10.399999999999961 84.00000000000004,11.999999999999957 95.20000000000005,13.599999999999953 96.65358983848627,13.424871130596381" stroke="#ff6b6b" fill="none" stroke-width="3.0" stroke-linecap="round" stroke-linejoin="round"/><polyline points="96.65358983848627,13.424871130596381 97.82487113059648,12.546410161513727 98.40000000000005,11.19999999999995 100.00000000000004,-5.861977570020827e-14" stroke="#ff6b6b" fill="none" stroke-width="3.0" stroke-linecap="round" stroke-linejoin="round"/><polyline points="0.0,0.0 1.5999999999913865,-11.20000000000124 2.175128869393923,-12.546410161515459 3.3464101615034516,-13.424871130599014 4.799999999989542,-13.600000000003703 15.999999999990784,-12.000000000012319 27.199999999992023,-10.400000000020935 28.54641016150624,-9.824871130618398 29.424871130589796,-8.65358983850887 29.599999999994488,-7.200000000022778 28.000000000003105,3.999999999978466 26.400000000011723,15.19999999997971 26.575128869416414,16.653589838465802 27.45358983849997,17.824871130575332 28.80000000001419,18.39999999997787 40.00000000001543,19.99999999996925 51.20000000001668,21.599999999960634 52.5464101615309,22.17512886936317 53.424871130614456,23.3464101614727 53.60000000001914,24.799999999958793 52.00000000002776,35.99999999996004 50.40000000003638,47.199999999961285 50.575128869441066,48.653589838447374 51.45358983852462,49.8248711305569 52.80000000003884,50.399999999959434 64.00000000004009,51.999999999950816 75.20000000004134,53.5999999999422 76.65358983852744,53.42487113053751 77.82487113063696,52.546410161453956 78.4000000000395,51.199999999939735 80.00000000003088,39.99999999993849 81.60000000002226,28.799999999937242 82.1751288694248,27.45358983842302 83.34641016153432,26.575128869339466 84.80000000002042,26.399999999934774 96.00000000002166,27.999999999926157 107.2000000000229,29.59999999991754 108.65358983850899,29.424871130512848 109.82487113061852,28.546410161429293 110.40000000002105,27.19999999991507 112.00000000001243,15.999999999913829 113.60000000000382,4.799999999912586 113.42487113059913,3.346410161426495" stroke="#1e90ff" fill="none" stroke-width="3.0" stroke-linecap="round" stroke-linejoin="round"/><polyline points="113.42487113059913,3.346410161426495 112.54641016151558,2.175128869316966 111.20000000000137,1.599999999914429 100.00000000000013,-7.695977188859615e-11" stroke="#1e90ff" fill="none" stroke-width="3.0" stroke-linecap="round" stroke-linejoin="round"/><polyline points="0.0,0.0 -1.1999999999996687,-1.6000000000002514 -5.9999999999983435,-8.000000000001256 -10.799999999997018,-14.400000000002262 -11.18564064605192,-15.360769515461016 -11.039230484537931,-16.385640646057414 -10.399999999996435,-17.20000000000218 -3.999999999995432,-22.000000000000856 2.400000000005571,-26.79999999999953 3.360769515464326,-27.185640646054434 4.3856406460607245,-27.039230484540447 5.200000000005491,-26.39999999999895 10.000000000004169,-19.999999999997947 14.800000000002846,-13.599999999996943 15.614359353947613,-12.960769515455446 16.63923048454401,-12.814359353941457 17.600000000002765,-13.19999999999636 24.000000000003773,-17.999999999995037 30.40000000000478,-22.799999999993716 31.039230484546277,-23.614359353938482 31.185640646060264,-24.63923048453488 30.80000000000536,-25.599999999993635 26.000000000006686,-31.999999999994643 21.20000000000801,-38.39999999999565 20.814359353953108,-39.36076951545441 20.960769515467096,-40.38564064605081 21.600000000008592,-41.199999999995576 28.0000000000096,-45.99999999999425 34.40000000001061,-50.79999999999293 35.360769515469364,-51.18564064604783 36.38564064606577,-51.03923048453384 37.20000000001053,-50.39999999999234 42.000000000009216,-43.99999999999133 46.8000000000079,-37.599999999990324 47.1856406460628,-36.639230484531566 47.03923048454881,-35.614359353935164 46.40000000000732,-34.7999999999904 40.00000000000631,-29.999999999991715 33.6000000000053,-25.199999999993032 32.9607695154638,-24.385640646048266 32.81435935394981,-23.360769515451867 33.200000000004714,-22.399999999993113 38.000000000003396,-15.999999999992106" stroke="#000" fill="none" stroke-linecap="round" stroke-linejoin="round"/><polyline points="38.000000000003396,-15.999999999992106 42.80000000000208,-9.599999999991098 43.614359353946845,-8.960769515449602 44.63923048454325,-8.814359353935613 45.600000000002005,-9.199999999990515 52.00000000000301,-13.999999999989196 58.40000000000403,-18.79999999998788 59.360769515462785,-19.18564064604278 60.38564064605919,-19.039230484528794 61.20000000000395,-18.399999999987298 66.00000000000264,-11.999999999986287 70.80000000000133,-5.599999999985275 71.18564064605624,-4.63923048452652 71.03923048454226,-3.6143593539301193 70.40000000000076,-2.7999999999853515 63.999999999999744,2.0000000000133356 57.59999999999873,6.800000000012023 56.63923048453997,7.185640646066927 55.61435935394357,7.039230484552939 54.7999999999988,6.400000000011442 50.000000000000114,1.042987918253857e-11 45.200000000001424,-6.399999999990582 44.38564064605666,-7.039230484532079 43.360769515460255,-7.185640646046068 42.4000000000015,-6.799999999991163 36.00000000000048,-1.9999999999924745 29.59999999999947,2.8000000000062144 28.960769515457972,3.6143593539509826 28.814359353943985,4.639230484547383 29.199999999998887,5.60000000000614 33.99999999999758,12.000000000007155 38.79999999999627,18.40000000000817 39.61435935394103,19.039230484549666 40.639230484537435,19.185640646063653 41.59999999999619,18.80000000000875 47.99999999999721,14.000000000010065 54.39999999999822,9.200000000011379 55.36076951545698,8.814359353956474 56.38564064605338,8.960769515470464 57.19999999999815,9.600000000011962 61.99999999999684,16.000000000012978 66.79999999999552,22.400000000013996 67.18564064605043,23.360769515472754" stroke="#000" fill="none" stroke-linecap="round" stroke-linejoin="round"/><polyline points="67.18564064605043,23.360769515472754 67.03923048453645,24.385640646069156 66.39999999999495,25.200000000013926 59.99999999999393,30.00000000001262 53.59999999999292,34.80000000001131 52.96076951545142,35.614359353956075 52.81435935393743,36.63923048455248 53.19999999999233,37.600000000011235 57.99999999999102,44.00000000001226 62.79999999998971,50.40000000001328 63.614359353934475,51.03923048455478 64.63923048453087,51.18564064606877 65.59999999998963,50.80000000001387 71.99999999999066,46.00000000001518 78.39999999999169,41.20000000001649 79.03923048453319,40.38564064607172 79.18564064604718,39.36076951547532 78.79999999999227,38.40000000001656 73.99999999999358,32.00000000001553 69.19999999999489,25.600000000014507 68.81435935393998,24.63923048455575 68.96076951545396,23.614359353959347 69.59999999999546,22.800000000014577 75.99999999999649,18.000000000015888 82.39999999999752,13.200000000017198 83.36076951545628,12.814359353962294 84.38564064605268,12.960769515476283 85.19999999999744,13.600000000017781 89.99999999999613,20.000000000018805 94.79999999999482,26.400000000019826 95.61435935393959,27.039230484561322 96.63923048453599,27.18564064607531 97.59999999999475,26.800000000020407 103.99999999999578,22.000000000021718 110.39999999999681,17.200000000023028 111.03923048453831,16.385640646078258 111.18564064605229,15.360769515481856 110.79999999999738,14.400000000023098 105.99999999999869,8.000000000022073 101.2,1.6000000000210486 100.00000000000033,2.0792256805179932e-11" stroke="#000" fill="none" stroke-linecap="round" stroke-linejoin="round"/><polygon points="100.00000000000033,2.0792256805179932e-11 101.3999999999982,10.200000000021083 104.19999999999916,5.600000000021665 109.39999999999945,4.200000000022747" stroke="#000" fill="#000" fill-rule="evenodd" stroke-linejoin="round"/></svg>