<?xml version="1.0" ?><!DOCTYPE svg  PUBLIC '-//W3C//DTD SVG 1.1//EN'  'http://www.w3.org/Graphics/SVG/1.1/DTD/svg11.dtd'><svg xmlns="http://www.w3.org/2000/svg" width="161.000" height="141.000" viewBox="-30.000 -70.000 161.000 141.000"><line x1="0.0" y1="0.0" x2="0.0" y2="0.0" stroke="none" fill="none" stroke-width="2.0" stroke-linecap="round"/><polygon points="0.0,0.0 0.0,0.0 0.0,0.0" fill="none" fill-rule="evenodd" stroke-linejoin="round"/><polyline points="0.0,0.0 -2.88,4.159999999999999 -3.3793335800641837,4.583538290724795 -4.023538290724796,4.700666419935816 -4.64,4.4799999999999995 -8.799999999999999,1.5999999999999996 -12.959999999999997,-1.2800000000000002 -13.383538290724793,-1.779333580064184 -13.500666419935813,-2.423538290724796 -13.279999999999998,-3.04 -10.399999999999999,-7.200000000000001 -7.52,-11.360000000000003 -7.299333580064183,-11.976461709275208 -7.416461709275204,-12.62066641993582 -7.84,-13.120000000000003 -12.0,-16.000000000000004 -16.16,-18.880000000000003 -16.583538290724796,-19.379333580064188 -16.700666419935818,-20.0235382907248 -16.48,-20.640000000000004 -13.600000000000001,-24.800000000000004 -10.720000000000002,-28.960000000000004 -10.220666419935819,-29.3835382907248 -9.576461709275208,-29.500666419935822 -8.960000000000003,-29.280000000000005 -4.800000000000002,-26.400000000000006 -0.6400000000000006,-23.520000000000007 -0.023538290724796296,-23.29933358006419 0.6206664199358157,-23.41646170927521 1.1199999999999994,-23.840000000000007 3.999999999999999,-28.000000000000007 6.879999999999999,-32.160000000000004 7.379333580064183,-32.583538290724796 8.023538290724796,-32.700666419935814 8.64,-32.48 12.8,-29.599999999999998 16.96,-26.72 17.576461709275204,-26.49933358006418 18.220666419935817,-26.616461709275203 18.720000000000002,-27.04 21.6,-31.2 24.48,-35.36 24.700666419935818,-35.976461709275206" stroke="#ff6b6b" fill="none" stroke-width="3.0" stroke-linecap="round" stroke-linejoin="round"/><polyline points="24.700666419935818,-35.976461709275206 24.583538290724796,-36.620666419935816 24.16,-37.12 20.0,-40.0 15.84,-42.88 15.416461709275204,-43.379333580064184 15.299333580064184,-44.023538290724794 15.520000000000001,-44.64 18.400000000000002,-48.8 21.280000000000005,-52.959999999999994 21.77933358006419,-53.383538290724786 22.423538290724803,-53.500666419935804 23.040000000000006,-53.27999999999999 27.200000000000006,-50.399999999999984 31.360000000000007,-47.51999999999998 31.97646170927521,-47.299333580064165 32.62066641993582,-47.41646170927518 33.120000000000005,-47.839999999999975 36.00000000000001,-51.99999999999998 38.88000000000001,-56.15999999999998 39.37933358006419,-56.583538290724775 40.0235382907248,-56.70066641993579 40.64000000000001,-56.479999999999976 44.80000000000001,-53.59999999999997 48.960000000000015,-50.71999999999997 49.383538290724815,-50.22066641993579 49.50066641993583,-49.57646170927518 49.280000000000015,-48.95999999999997 46.40000000000001,-44.79999999999997 43.52000000000001,-40.639999999999965 43.29933358006419,-40.02353829072476 43.41646170927521,-39.37933358006415 43.84000000000001,-38.87999999999997 48.000000000000014,-35.999999999999964 52.16000000000002,-33.11999999999996 52.58353829072482,-32.62066641993578 52.700666419935835,-31.976461709275167 52.48000000000002,-31.359999999999964 49.600000000000016,-27.19999999999996 46.72000000000001,-23.039999999999957 46.499333580064196,-22.423538290724753 46.616461709275214,-21.77933358006414 47.04000000000001,-21.279999999999955" stroke="#ff6b6b" fill="none" stroke-width="3.0" stroke-linecap="round" stroke-linejoin="round"/><polyline points="47.04000000000001,-21.279999999999955 51.20000000000002,-18.399999999999952 55.36000000000002,-15.51999999999995 55.97646170927523,-15.299333580064134 56.62066641993584,-15.416461709275154 57.12000000000002,-15.83999999999995 60.00000000000002,-19.999999999999954 62.880000000000024,-24.159999999999958 63.379333580064205,-24.583538290724753 64.02353829072482,-24.700666419935775 64.64000000000001,-24.479999999999958 68.80000000000001,-21.59999999999996 72.96000000000001,-18.719999999999956 73.3835382907248,-18.22066641993577 73.50066641993583,-17.576461709275158 73.28000000000002,-16.959999999999955 70.40000000000002,-12.799999999999951 67.52000000000002,-8.639999999999947 67.29933358006421,-8.023538290724742 67.41646170927524,-7.37933358006413 67.84000000000003,-6.879999999999946 72.00000000000003,-3.999999999999944 76.16000000000003,-1.1199999999999424 76.58353829072482,-0.6206664199357582 76.70066641993584,0.02353829072485436 76.48000000000003,0.6400000000000592 73.60000000000004,4.800000000000064 70.72000000000004,8.960000000000068 70.49933358006423,9.576461709275273 70.61646170927526,10.220666419935887 71.04000000000005,10.72000000000007 75.20000000000006,13.600000000000072 79.36000000000007,16.480000000000075 79.97646170927527,16.700666419935892 80.62066641993589,16.58353829072487 81.12000000000008,16.160000000000075 84.00000000000009,12.000000000000071 86.8800000000001,7.840000000000067 87.37933358006428,7.416461709275271 88.0235382907249,7.299333580064251 88.6400000000001,7.520000000000067 92.80000000000011,10.40000000000007 96.96000000000012,13.280000000000072" stroke="#ff6b6b" fill="none" stroke-width="3.0" stroke-linecap="round" stroke-linejoin="round"/><polyline points="96.96000000000012,13.280000000000072 97.57646170927532,13.50066641993589 98.22066641993594,13.38353829072487 98.72000000000013,12.960000000000074 101.60000000000014,8.800000000000068 104.48000000000015,4.640000000000064 104.70066641993596,4.023538290724859 104.58353829072493,3.3793335800642454 104.16000000000014,2.8800000000000607 100.00000000000014,5.46229728115577e-14" stroke="#ff6b6b" fill="none" stroke-width="3.0" stroke-linecap="round" stroke-linejoin="round"/><polyline points="0.0,0.0 -4.1599999999982975,-2.88000000000247 -4.583538290722798,-3.3793335800669055 -4.7006664199334365,-4.023538290727588 -4.479999999997255,-4.640000000002662 -1.5999999999947851,-8.800000000000963 1.2800000000076848,-12.959999999999264 1.7793335800721204,-13.383538290723765 2.423538290732803,-13.500666419934404 3.0400000000078773,-13.279999999998223 7.2000000000061775,-10.399999999995753 11.360000000004478,-7.519999999993283 11.976461709279553,-7.299333580057101 12.620666419940235,-7.41646170926774 13.120000000004671,-7.83999999999224 16.00000000000714,-11.99999999999054 18.880000000009613,-16.15999999998884 19.37933358007405,-16.583538290713342 20.023538290734734,-16.70066641992398 20.64000000000981,-16.479999999987797 24.80000000000811,-13.599999999985325 28.960000000006414,-10.719999999982853 29.383538290730915,-10.220666419918418 29.500666419941552,-9.576461709257735 29.28000000000537,-8.95999999998266 26.400000000002898,-4.799999999984358 23.520000000000426,-0.6399999999860562 23.299333580064243,-0.023538290710981458 23.41646170927488,0.6206664199497014 23.83999999999938,1.1200000000141375 27.999999999997684,4.000000000016611 32.15999999999598,6.880000000019084 32.58353829072048,7.37933358008352 32.700666419931125,8.023538290744202 32.479999999994945,8.640000000019278 29.599999999992473,12.80000000001758 26.71999999999,16.96000000001588 26.49933358005382,17.576461709290957 26.616461709264456,18.22066641995164 27.039999999988957,18.72000000001608 31.19999999998726,21.60000000001855 35.35999999998556,24.480000000021022 35.97646170926063,24.700666419957205" stroke="#1e90ff" fill="none" stroke-width="3.0" stroke-linecap="round" stroke-linejoin="round"/><polyline points="35.97646170926063,24.700666419957205 36.620666419921314,24.583538290746567 37.11999999998575,24.160000000022066 39.999999999988226,20.000000000023764 42.8799999999907,15.840000000025462 43.37933358005514,15.416461709300961 44.02353829071582,15.299333580090323 44.63999999999089,15.520000000026506 48.79999999998919,18.40000000002898 52.95999999998749,21.280000000031457 53.38353829071199,21.779333580095894 53.50066641992263,22.42353829075658 53.27999999998645,23.040000000031654 50.399999999983976,27.200000000029956 47.5199999999815,31.360000000028258 47.29933358004532,31.976461709303333 47.41646170925596,32.62066641996402 47.83999999998046,33.120000000028455 51.99999999997876,36.00000000003093 56.15999999997706,38.880000000033405 56.58353829070156,39.37933358009784 56.7006664199122,40.02353829075852 56.47999999997602,40.640000000033595 53.59999999997355,44.8000000000319 50.71999999997107,48.960000000030206 50.49933358003489,49.57646170930528 50.616461709245534,50.22066641996596 51.039999999970036,50.720000000030396 55.199999999968334,53.60000000003287 59.35999999996663,56.480000000035346 59.976461709241704,56.700666419971526 60.620666419902385,56.583538290760885 61.11999999996682,56.16000000003638 63.9999999999693,52.000000000038085 66.87999999997177,47.84000000003979 67.3793335800362,47.416461709315286 68.02353829069689,47.299333580104644 68.63999999997196,47.520000000040824 72.79999999997027,50.4000000000433 76.95999999996857,53.280000000045774 77.57646170924365,53.500666419981954 78.22066641990433,53.38353829077131 78.71999999996876,52.96000000004681" stroke="#1e90ff" fill="none" stroke-width="3.0" stroke-linecap="round" stroke-linejoin="round"/><polyline points="78.71999999996876,52.96000000004681 81.59999999997123,48.80000000004851 84.4799999999737,44.640000000050215 84.70066641990988,44.02353829077514 84.58353829069924,43.37933358011446 84.15999999997474,42.880000000050025 79.99999999997644,40.00000000004755 75.83999999997813,37.120000000045074 75.41646170925364,36.62066641998064 75.299333580043,35.976461709319956 75.51999999997918,35.360000000044884 78.39999999998165,31.200000000046586 81.27999999998411,27.040000000048288 81.77933358004854,26.616461709323787 82.42353829070923,26.49933358011315 83.0399999999843,26.720000000049332 87.19999999998261,29.600000000051807 91.35999999998091,32.48000000005428 91.97646170925599,32.70066641999046 92.62066641991667,32.58353829077982 93.1199999999811,32.16000000005532 95.99999999998357,28.00000000005702 98.87999999998604,23.840000000058723 99.37933358005047,23.41646170933422 100.02353829071116,23.299333580123584 100.63999999998623,23.520000000059767 104.79999999998454,26.400000000062242 108.95999999998284,29.280000000064717 109.57646170925791,29.5006664200009 110.2206664199186,29.383538290790263 110.71999999998303,28.96000000006576 113.5999999999855,24.800000000067463 116.47999999998797,20.640000000069165 116.70066641992415,20.02353829079409 116.5835382907135,19.379333580133405 116.15999999998901,18.880000000068968 111.9999999999907,16.000000000066493 107.8399999999924,13.120000000064016 107.4164617092679,12.62066641999958 107.29933358005727,11.976461709338897 107.51999999999344,11.360000000063822 110.39999999999591,7.200000000065522 113.27999999999838,3.040000000067222" stroke="#1e90ff" fill="none" stroke-width="3.0" stroke-linecap="round" stroke-linejoin="round"/><polyline points="113.27999999999838,3.040000000067222 113.50066641993456,2.4235382907921474 113.38353829072392,1.7793335801314645 112.95999999999943,1.2800000000670282 108.80000000000112,-1.5999999999354484 104.64000000000281,-4.479999999937925 104.02353829072774,-4.700666419874107 103.37933358006705,-4.583538290663469 102.88000000000262,-4.159999999938969 100.00000000000014,5.933031843596837e-11" stroke="#1e90ff" fill="none" stroke-width="3.0" stroke-linecap="round" stroke-linejoin="round"/><polyline points="0.0,0.0 -0.8799999999999127,0.16000000000049155 -4.399999999999563,0.8000000000024577 -7.919999999999215,1.440000000004424 -8.381435935393727,1.4021023553349874 -8.762102355329692,1.1385640646104034 -8.959999999999619,0.7200000000050026 -9.600000000001586,-2.7999999999946485 -10.240000000003553,-6.3199999999943 -10.202102355334116,-6.781435935388812 -9.938564064609531,-7.162102355324776 -9.520000000004131,-7.359999999994704 -6.00000000000448,-7.999999999996673 -2.4800000000048286,-8.639999999998642 -2.061435935399428,-8.83789764466857 -1.7978976446748443,-9.218564064604536 -1.760000000005408,-9.679999999999048 -2.4000000000073753,-13.199999999998699 -3.040000000009343,-16.71999999999835 -3.237897644679271,-17.138564064603752 -3.6185640646152355,-17.402102355328335 -4.080000000009748,-17.43999999999777 -7.6000000000094,-16.799999999995805 -11.120000000009053,-16.15999999999384 -11.581435935403565,-16.197897644663275 -11.96210235533953,-16.461435935387858 -12.160000000009457,-16.87999999999326 -12.800000000011424,-20.399999999992914 -13.440000000013391,-23.91999999999257 -13.402102355343954,-24.38143593538708 -13.13856406461937,-24.762102355323044 -12.72000000001397,-24.959999999992974 -9.200000000014317,-25.599999999994942 -5.6800000000146635,-26.23999999999691 -5.218564064620151,-26.202102355327476 -4.837897644684186,-25.938564064602893 -4.640000000014258,-25.51999999999749 -4.000000000012288,-21.999999999997836 -3.3600000000103183,-18.47999999999818 -3.1621023553403895,-18.06143593539278 -2.7814359354044247,-17.797897644668197 -2.3200000000099124,-17.75999999999876 1.1999999999897426,-18.40000000000073" stroke="#000" fill="none" stroke-linecap="round" stroke-linejoin="round"/><polyline points="1.1999999999897426,-18.40000000000073 4.719999999989398,-19.0400000000027 5.1385640645947985,-19.23789764467263 5.402102355319383,-19.61856406460859 5.439999999988819,-20.080000000003103 4.799999999986851,-23.60000000000276 4.159999999984883,-27.120000000002413 4.1978976446543195,-27.581435935396925 4.461435935378904,-27.96210235533289 4.879999999984305,-28.160000000002817 8.39999999998396,-28.800000000004786 11.919999999983615,-29.440000000006755 12.381435935378127,-29.40210235533732 12.762102355314092,-29.138564064612737 12.95999999998402,-28.720000000007335 13.599999999985991,-25.20000000000768 14.239999999987962,-21.680000000008025 14.202102355318525,-21.218564064613513 13.93856406459394,-20.837897644677547 13.519999999988539,-20.640000000007618 9.999999999988882,-20.000000000005645 6.479999999989225,-19.360000000003673 6.061435935383824,-19.162102355333744 5.7978976446592405,-18.781435935397777 5.759999999989804,-18.320000000003265 6.399999999991775,-14.800000000003608 7.0399999999937455,-11.280000000003952 7.237897644663674,-10.86143593539855 7.618564064599639,-10.597897644673965 8.079999999994152,-10.560000000004528 11.599999999993809,-11.200000000006497 15.119999999993466,-11.840000000008466 15.538564064598868,-12.037897644678395 15.802102355323452,-12.41856406461436 15.839999999992889,-12.880000000008874 15.19999999999092,-16.400000000008532 14.559999999988952,-19.920000000008187 14.597897644658389,-20.3814359354027 14.861435935382973,-20.762102355338666 15.279999999988375,-20.960000000008595 18.79999999998803,-21.600000000010564 22.319999999987687,-22.240000000012532 22.7814359353822,-22.202102355343097" stroke="#000" fill="none" stroke-linecap="round" stroke-linejoin="round"/><polyline points="22.7814359353822,-22.202102355343097 23.162102355318165,-21.938564064618514 23.359999999988094,-21.520000000013113 23.999999999990067,-18.000000000013458 24.639999999992035,-14.480000000013801 24.837897644661965,-14.061435935408399 25.21856406459793,-13.797897644683815 25.679999999992443,-13.760000000014378 29.1999999999921,-14.400000000016346 32.71999999999176,-15.040000000018315 33.138564064597155,-15.237897644688244 33.40210235532174,-15.61856406462421 33.43999999999117,-16.08000000001872 32.799999999989204,-19.600000000018376 32.159999999987235,-23.12000000001803 31.962102355317306,-23.538564064623433 31.58143593538134,-23.802102355348016 31.119999999986828,-23.84000000001745 27.59999999998717,-23.200000000015482 24.079999999987514,-22.560000000013513 23.618564064593002,-22.59789764468295 23.23789764465704,-22.86143593540753 23.03999999998711,-23.280000000012933 22.39999999998514,-26.800000000012588 21.759999999983172,-30.320000000012243 21.797897644652608,-30.781435935406755 22.06143593537719,-31.16210235534272 22.479999999982592,-31.36000000001265 25.999999999982247,-32.00000000001462 29.519999999981902,-32.64000000001659 29.938564064587304,-32.83789764468652 30.202102355311887,-33.218564064622484 30.239999999981322,-33.680000000016996 29.599999999979353,-37.20000000001665 28.959999999977384,-40.720000000016306 28.762102355307455,-41.138564064621704 28.38143593537149,-41.40210235534629 27.919999999976977,-41.44000000001572 24.399999999977318,-40.80000000001375 20.879999999977663,-40.160000000011784 20.41856406458315,-40.19789764468122 20.037897644647188,-40.4614359354058 19.83999999997726,-40.8800000000112" stroke="#000" fill="none" stroke-linecap="round" stroke-linejoin="round"/><polyline points="19.83999999997726,-40.8800000000112 19.19999999997529,-44.400000000010856 18.55999999997332,-47.92000000001051 18.597897644642757,-48.38143593540502 18.86143593536734,-48.762102355340986 19.27999999997274,-48.960000000010915 22.799999999972396,-49.600000000012884 26.31999999997205,-50.24000000001485 26.781435935366563,-50.20210235534542 27.16210235530253,-49.938564064620834 27.35999999997246,-49.520000000015436 27.999999999974428,-46.00000000001578 28.639999999976396,-42.480000000016126 28.837897644646326,-42.06143593541073 29.218564064582292,-41.797897644686145 29.679999999976804,-41.76000000001671 33.19999999997646,-42.40000000001868 36.71999999997612,-43.04000000002065 37.138564064581516,-43.23789764469058 37.4021023553061,-43.61856406462654 37.439999999975534,-44.08000000002105 36.799999999973565,-47.60000000002071 36.159999999971596,-51.12000000002036 36.19789764464103,-51.58143593541487 36.461435935365614,-51.96210235535084 36.87999999997101,-52.160000000020766 40.39999999997067,-52.800000000022735 43.91999999997032,-53.4400000000247 44.381435935364834,-53.40210235535527 44.7621023553008,-53.138564064630685 44.95999999997073,-52.72000000002529 45.599999999972695,-49.20000000002563 46.239999999974664,-45.68000000002598 46.20210235530523,-45.218564064631465 45.938564064580646,-44.8378976446955 45.51999999997525,-44.64000000002557 41.99999999997559,-44.000000000023604 38.47999999997594,-43.360000000021635 38.06143593537054,-43.162102355351706 37.79789764464596,-42.78143593541574 37.75999999997652,-42.32000000002123 38.39999999997849,-38.800000000021576 39.03999999998046,-35.28000000002192" stroke="#000" fill="none" stroke-linecap="round" stroke-linejoin="round"/><polyline points="39.03999999998046,-35.28000000002192 39.23789764465039,-34.86143593541652 39.61856406458635,-34.59789764469194 40.07999999998086,-34.560000000022505 43.59999999998052,-35.200000000024474 47.11999999998017,-35.84000000002644 47.581435935374685,-35.80210235535701 47.96210235531065,-35.538564064632425 48.15999999998058,-35.12000000002703 48.799999999982546,-31.60000000002737 49.439999999984515,-28.080000000027717 49.40210235531508,-27.618564064633205 49.1385640645905,-27.237897644697238 48.7199999999851,-27.04000000002731 45.199999999985444,-26.400000000025337 41.67999999998579,-25.760000000023364 41.21856406459128,-25.7978976446928 40.837897644655314,-26.061435935417382 40.639999999985385,-26.480000000022784 39.99999999998341,-30.00000000002244 39.35999999998143,-33.520000000022094 39.162102355311504,-33.93856406462749 38.78143593537554,-34.202102355352075 38.31999999998103,-34.24000000002151 34.799999999981374,-33.60000000001954 31.27999999998172,-32.96000000001757 30.861435935376317,-32.76210235534764 30.597897644651734,-32.38143593541168 30.5599999999823,-31.92000000001717 31.19999999998427,-28.400000000017513 31.839999999986244,-24.88000000001786 32.03789764465617,-24.461435935412457 32.41856406459213,-24.197897644687874 32.879999999986644,-24.16000000001844 36.3999999999863,-24.800000000020407 39.919999999985954,-25.440000000022376 40.381435935380466,-25.40210235535294 40.76210235531643,-25.13856406462836 40.95999999998636,-24.720000000022956 41.59999999998833,-21.2000000000233 42.239999999990296,-17.680000000023647 42.20210235532086,-17.218564064629135 41.93856406459628,-16.837897644693168" stroke="#000" fill="none" stroke-linecap="round" stroke-linejoin="round"/><polyline points="41.93856406459628,-16.837897644693168 41.51999999999088,-16.64000000002324 37.999999999991225,-16.000000000021267 34.47999999999157,-15.360000000019294 34.06143593538617,-15.162102355349365 33.79789764466159,-14.7814359354134 33.759999999992154,-14.320000000018887 34.39999999999412,-10.80000000001923 35.03999999999609,-7.280000000019573 35.23789764466602,-6.861435935414172 35.61856406460198,-6.5978976446895885 36.079999999996495,-6.560000000020152 39.59999999999615,-7.200000000022123 43.119999999995805,-7.8400000000240935 43.5385640646012,-8.037897644694022 43.802102355325786,-8.418564064629987 43.83999999999522,-8.8800000000245 43.19999999999325,-12.400000000024157 42.559999999991284,-15.920000000023814 42.59789764466072,-16.381435935418327 42.8614359353853,-16.762102355354294 43.2799999999907,-16.960000000024223 46.799999999990355,-17.600000000026192 50.31999999999001,-18.24000000002816 50.78143593538452,-18.202102355358726 51.162102355320485,-17.938564064634143 51.359999999990414,-17.52000000002874 51.99999999999238,-14.000000000029084 52.63999999999435,-10.480000000029428 52.83789764466428,-10.061435935424026 53.218564064600244,-9.797897644699441 53.679999999994756,-9.760000000030004 57.19999999999441,-10.400000000031975 60.719999999994066,-11.040000000033945 61.138564064599464,-11.237897644703875 61.40210235532405,-11.61856406463984 61.43999999999348,-12.080000000034353 60.79999999999151,-15.60000000003401 60.159999999989545,-19.120000000033667 60.19789764465898,-19.58143593542818 60.46143593538356,-19.962102355364145 60.87999999998896,-20.160000000034074 64.39999999998862,-20.800000000036043" stroke="#000" fill="none" stroke-linecap="round" stroke-linejoin="round"/><polyline points="64.39999999998862,-20.800000000036043 67.91999999998828,-21.44000000003801 68.3814359353828,-21.402102355368577 68.76210235531876,-21.138564064643994 68.95999999998868,-20.720000000038592 69.59999999999066,-17.200000000038937 70.23999999999263,-13.68000000003928 70.20210235532319,-13.218564064644767 69.93856406459861,-12.837897644708802 69.5199999999932,-12.640000000038873 65.99999999999355,-12.0000000000369 62.47999999999389,-11.360000000034928 62.061435935388495,-11.162102355364999 61.79789764466391,-10.781435935429034 61.75999999999448,-10.32000000003452 62.399999999996446,-6.8000000000348635 63.039999999998415,-3.2800000000352068 63.237897644668344,-2.861435935429806 63.61856406460431,-2.5978976447052218 64.07999999999882,-2.5600000000357856 67.59999999999847,-3.200000000037756 71.11999999999813,-3.8400000000397267 71.58143593539265,-3.8021023553702906 71.96210235532861,-3.5385640646457066 72.15999999999853,-3.1200000000403056 72.80000000000051,0.39999999995935065 73.44000000000248,3.919999999959007 73.40210235533304,4.38143593535352 73.13856406460846,4.762102355289485 72.72000000000305,4.959999999959414 69.2000000000034,5.599999999961387 65.68000000000374,6.239999999963359 65.21856406460923,6.202102355293923 64.83789764467326,5.93856406456934 64.64000000000334,5.519999999963939 64.00000000000136,1.999999999964282 63.35999999999939,-1.5200000000353748 63.16210235532946,-1.938564064640776 62.781435935393496,-2.20210235536536 62.319999999998984,-2.2400000000347955 58.79999999999933,-1.6000000000328227 55.279999999999674,-0.9600000000308501 54.861435935394276,-0.762102355360921" stroke="#000" fill="none" stroke-linecap="round" stroke-linejoin="round"/><polyline points="54.861435935394276,-0.762102355360921 54.59789764466969,-0.38143593542495574 54.56000000000026,0.0799999999695572 55.20000000000223,3.599999999969214 55.840000000004196,7.11999999996887 55.80210235533476,7.581435935363383 55.53856406461018,7.962102355299348 55.12000000000478,8.159999999969276 51.600000000005124,8.799999999971249 48.08000000000547,9.439999999973221 47.61856406461096,9.402102355303786 47.237897644674995,9.138564064579201 47.040000000005065,8.7199999999738 46.40000000000309,5.199999999974143 45.760000000001114,1.679999999974486 45.79789764467055,1.218564064579973 46.06143593539513,0.8378976446440076 46.48000000000053,0.6399999999740783 50.000000000000185,-2.7896462917453846e-11 53.51999999999984,-0.6400000000298712 53.93856406460524,-0.8378976446998005 54.20210235532982,-1.2185640646357658 54.239999999999256,-1.6800000000302788 53.59999999999728,-5.200000000029935 52.959999999995304,-8.720000000029593 52.762102355325375,-9.138564064634995 52.38143593538941,-9.40210235535958 51.9199999999949,-9.440000000029015 48.399999999995245,-8.80000000002704 44.87999999999559,-8.160000000025066 44.46143593539019,-7.962102355355137 44.19789764466561,-7.581435935419172 44.159999999996174,-7.1200000000246595 44.79999999999815,-3.6000000000250028 45.440000000000126,-0.08000000002534602 45.40210235533069,0.381435935369167 45.13856406460611,0.7621023553051323 44.72000000000071,0.9599999999750615 41.200000000001054,1.5999999999770353 37.6800000000014,2.239999999979009 37.21856406460689,2.2021023553095733 36.837897644670925,1.9385640645849895 36.640000000000995,1.5199999999795883" stroke="#000" fill="none" stroke-linecap="round" stroke-linejoin="round"/><polyline points="36.640000000000995,1.5199999999795883 35.99999999999902,-2.0000000000200684 35.359999999997044,-5.520000000019725 35.162102355327114,-5.938564064625126 34.78143593539115,-6.20210235534971 34.31999999999664,-6.240000000019146 30.799999999996984,-5.600000000017172 27.27999999999733,-4.960000000015198 26.861435935391928,-4.762102355345268 26.597897644667345,-4.381435935409303 26.55999999999791,-3.92000000001479 27.199999999999882,-0.40000000001513314 27.840000000001854,3.1199999999845236 28.037897644671784,3.5385640645899246 28.41856406460775,3.8021023553145086 28.880000000002262,3.8399999999839443 32.40000000000192,3.1999999999819715 35.92000000000157,2.5599999999799987 36.381435935396084,2.597897644649435 36.76210235533205,2.861435935374019 36.960000000001976,3.2799999999794203 37.60000000000395,6.799999999979077 38.24000000000593,10.319999999978734 38.20210235533649,10.781435935373247 37.93856406461191,11.162102355309212 37.52000000000651,11.359999999979141 34.00000000000686,11.999999999981116 30.480000000007202,12.63999999998309 30.0614359354018,12.837897644653019 29.797897644677217,13.218564064588984 29.760000000007782,13.679999999983497 30.400000000009754,17.199999999983156 31.040000000011727,20.71999999998281 31.237897644681656,21.138564064588213 31.618564064617622,21.402102355312795 32.080000000012134,21.43999999998223 35.60000000001179,20.79999999998026 39.120000000011444,20.159999999978286 39.53856406461684,19.962102355308357 39.802102355341425,19.58143593537239 39.84000000001086,19.11999999997788 39.200000000008885,15.599999999978222 38.56000000000691,12.079999999978565" stroke="#000" fill="none" stroke-linecap="round" stroke-linejoin="round"/><polyline points="38.56000000000691,12.079999999978565 38.597897644676344,11.618564064584051 38.86143593540093,11.237897644648086 39.280000000006325,11.039999999978157 42.80000000000598,10.399999999976183 46.320000000005635,9.759999999974209 46.78143593540015,9.797897644643644 47.16210235533611,10.061435935368229 47.36000000000604,10.47999999997363 48.000000000008015,13.999999999973287 48.64000000000999,17.519999999972946 48.83789764467992,17.938564064578348 49.21856406461588,18.20210235530293 49.680000000010395,18.239999999972365 53.20000000001005,17.599999999970393 56.720000000009705,16.95999999996842 57.1385640646151,16.76210235529849 57.402102355339686,16.381435935362525 57.44000000000912,15.919999999968011 56.800000000007145,12.399999999968355 56.16000000000517,8.879999999968698 56.197897644674605,8.418564064574184 56.46143593539919,8.03789764463822 56.880000000004586,7.83999999996829 60.40000000000424,7.199999999966316 63.920000000003895,6.559999999964342 64.38143593539841,6.597897644633777 64.76210235533438,6.861435935358361 64.96000000000431,7.279999999963762 65.60000000000629,10.799999999963418 66.24000000000827,14.319999999963075 66.20210235533882,14.781435935357589 65.93856406461424,15.162102355293554 65.52000000000884,15.359999999963483 62.00000000000918,15.999999999965459 58.480000000009525,16.639999999967436 58.06143593540413,16.837897644637366 57.797897644679544,17.218564064573332 57.76000000001011,17.679999999967844 58.400000000012085,21.199999999967503 59.04000000001406,24.71999999996716 59.23789764468399,25.138564064572563 59.61856406461995,25.402102355297146" stroke="#000" fill="none" stroke-linecap="round" stroke-linejoin="round"/><polyline points="59.61856406461995,25.402102355297146 60.080000000014465,25.43999999996658 63.60000000001412,24.799999999964605 67.12000000001377,24.15999999996263 67.5814359354083,24.197897644632064 67.96210235534426,24.461435935356647 68.1600000000142,24.87999999996205 68.80000000001617,28.399999999961707 69.44000000001814,31.919999999961362 69.4021023553487,32.381435935355874 69.13856406462412,32.76210235529184 68.72000000001871,32.95999999996177 65.20000000001906,33.59999999996374 61.680000000019405,34.23999999996572 61.21856406462489,34.20210235529628 60.83789764468893,33.9385640645717 60.640000000019,33.5199999999663 60.000000000017025,29.999999999966644 59.36000000001505,26.479999999966985 59.16210235534512,26.061435935361583 58.78143593540916,25.797897644637 58.320000000014645,25.759999999967565 54.80000000001499,26.39999999996954 51.280000000015335,27.039999999971517 50.861435935409936,27.237897644641446 50.597897644685354,27.618564064577413 50.56000000001592,28.079999999971925 51.200000000017894,31.599999999971583 51.84000000001987,35.11999999997124 52.0378976446898,35.53856406457664 52.41856406462576,35.80210235530122 52.880000000020274,35.83999999997066 56.40000000001993,35.19999999996868 59.920000000019584,34.559999999966706 60.381435935414096,34.59789764463614 60.76210235535006,34.861435935360724 60.96000000001999,35.27999999996612 61.600000000021964,38.79999999996578 62.24000000002394,42.31999999996543 62.202102355354505,42.781435935359944 61.93856406462992,43.16210235529591 61.520000000024524,43.35999999996584 58.00000000002487,43.99999999996781" stroke="#000" fill="none" stroke-linecap="round" stroke-linejoin="round"/><polyline points="58.00000000002487,43.99999999996781 54.480000000025214,44.63999999996979 54.061435935419816,44.83789764463972 53.79789764469523,45.21856406457568 53.7600000000258,45.67999999997019 54.400000000027774,49.19999999996985 55.04000000002975,52.7199999999695 55.23789764469968,53.1385640645749 55.61856406463564,53.40210235529948 56.080000000030154,53.43999999996892 59.60000000002981,52.79999999996694 63.120000000029464,52.15999999996497 63.53856406463486,51.96210235529504 63.802102355359445,51.581435935359075 63.84000000002888,51.11999999996456 63.200000000026904,47.59999999996491 62.56000000002493,44.07999999996525 62.59789764469436,43.61856406457074 62.861435935418946,43.23789764463478 63.280000000024344,43.03999999996485 66.800000000024,42.39999999996287 70.32000000002365,41.7599999999609 70.78143593541817,41.79789764463033 71.16210235535414,42.061435935354915 71.36000000002407,42.47999999996031 72.00000000002605,45.99999999995997 72.64000000002802,49.51999999995962 72.83789764469796,49.93856406456502 73.21856406463392,50.202102355289604 73.68000000002844,50.23999999995904 77.2000000000281,49.59999999995706 80.72000000002775,48.95999999995509 81.13856406463316,48.76210235528516 81.40210235535774,48.381435935349195 81.44000000002718,47.91999999995468 80.80000000002521,44.39999999995503 80.16000000002323,40.87999999995537 79.9621023553533,40.461435935349975 79.58143593541733,40.19789764462539 79.12000000002281,40.15999999995596 75.60000000002316,40.79999999995793 72.0800000000235,41.43999999995991 71.61856406462898,41.402102355290474" stroke="#000" fill="none" stroke-linecap="round" stroke-linejoin="round"/><polyline points="71.61856406462898,41.402102355290474 71.23789764469302,41.13856406456589 71.04000000002308,40.71999999996049 70.40000000002111,37.19999999996084 69.76000000001913,33.67999999996118 69.79789764468858,33.21856406456667 70.06143593541316,32.83789764463071 70.48000000001856,32.63999999996078 74.00000000001822,31.999999999958803 77.52000000001787,31.359999999956827 77.93856406462328,31.162102355286898 78.20210235534786,30.78143593535093 78.2400000000173,30.31999999995642 77.60000000001533,26.79999999995676 76.96000000001335,23.279999999957102 76.76210235534342,22.8614359353517 76.38143593540745,22.597897644627118 75.92000000001293,22.559999999957682 72.40000000001328,23.199999999959655 68.88000000001362,23.839999999961627 68.4185640646191,23.80210235529219 68.03789764468314,23.53856406456761 67.8400000000132,23.119999999962207 67.20000000001123,19.59999999996255 66.56000000000925,16.07999999996289 66.5978976446787,15.618564064568377 66.86143593540328,15.237897644632412 67.28000000000868,15.039999999962482 70.80000000000834,14.399999999960507 74.320000000008,13.75999999995853 74.78143593540251,13.797897644627966 75.16210235533848,14.06143593535255 75.36000000000841,14.479999999957952 76.00000000001039,17.999999999957613 76.64000000001236,21.519999999957275 76.8378976446823,21.938564064562676 77.21856406461826,22.20210235528726 77.68000000001278,22.239999999956694 81.20000000001244,21.59999999995472 84.72000000001209,20.959999999952743 85.1385640646175,20.762102355282813 85.40210235534208,20.381435935346847 85.44000000001152,19.919999999952335" stroke="#000" fill="none" stroke-linecap="round" stroke-linejoin="round"/><polyline points="85.44000000001152,19.919999999952335 84.80000000000955,16.399999999952673 84.16000000000757,12.87999999995301 84.19789764467701,12.418564064558497 84.4614359354016,12.03789764462253 84.880000000007,11.839999999952601 88.40000000000666,11.199999999950625 91.92000000000631,10.55999999994865 92.38143593540083,10.597897644618085 92.7621023553368,10.86143593534267 92.96000000000673,11.279999999948071 93.6000000000087,14.799999999947733 94.24000000001068,18.319999999947395 94.20210235534124,18.78143593534191 93.93856406461666,19.162102355277877 93.52000000001125,19.359999999947807 90.00000000001158,19.999999999949786 86.48000000001191,20.639999999951765 86.06143593540651,20.837897644621695 85.79789764468192,21.21856406455766 85.76000000001248,21.679999999952177 86.40000000001446,25.199999999951842 87.04000000001643,28.719999999951508 87.23789764468637,29.13856406455691 87.61856406462233,29.402102355281492 88.08000000001685,29.439999999950928 91.60000000001652,28.79999999994895 95.12000000001619,28.159999999946976 95.5385640646216,27.962102355277047 95.80210235534618,27.58143593534108 95.84000000001562,27.119999999946565 95.20000000001365,23.5999999999469 94.56000000001167,20.079999999947233 94.59789764468111,19.618564064552718 94.8614359354057,19.23789764461675 95.2800000000111,19.039999999946822 98.80000000001077,18.399999999944846 102.32000000001044,17.75999999994287 102.78143593540496,17.797897644612306 103.16210235534092,18.06143593533689 103.36000000001086,18.47999999994229 104.00000000001283,21.999999999941956 104.64000000001481,25.51999999994162" stroke="#000" fill="none" stroke-linecap="round" stroke-linejoin="round"/><polyline points="104.64000000001481,25.51999999994162 104.83789764468474,25.938564064547023 105.21856406462071,26.202102355271606 105.68000000001523,26.23999999994104 109.2000000000149,25.599999999939065 112.72000000001456,24.95999999993709 113.13856406461997,24.76210235526716 113.40210235534455,24.381435935331194 113.440000000014,23.919999999936678 112.80000000001202,20.399999999937013 112.16000000001004,16.879999999937347 111.96210235534011,16.461435935331945 111.58143593540414,16.19789764460736 111.12000000000963,16.159999999937924 107.60000000000996,16.7999999999399 104.08000000001029,17.439999999941875 103.61856406461577,17.40210235527244 103.2378976446798,17.138564064547854 103.04000000000987,16.719999999942452 102.40000000000789,13.199999999942785 101.76000000000592,9.679999999943117 101.79789764467536,9.218564064548604 102.06143593539994,8.837897644612637 102.48000000000535,8.639999999942708 106.00000000000502,7.99999999994073 109.52000000000469,7.359999999938752 109.93856406461009,7.162102355268822 110.20210235533467,6.781435935332856 110.24000000000412,6.319999999938341 109.60000000000214,2.799999999938673 108.96000000000016,-0.7200000000609954 108.76210235533023,-1.138564064666398 108.38143593539426,-1.4021023553909826 107.91999999999975,-1.4400000000604185 104.40000000000008,-0.8000000000584429 100.88000000000041,-0.1600000000564672 100.0000000000005,-5.597328156525805e-11" stroke="#000" fill="none" stroke-linecap="round" stroke-linejoin="round"/></svg>