<?xml version="1.0" ?><!DOCTYPE svg  PUBLIC '-//W3C//DTD SVG 1.1//EN'  'http://www.w3.org/Graphics/SVG/1.1/DTD/svg11.dtd'><svg xmlns="http://www.w3.org/2000/svg" width="150.000" height="121.000" viewBox="-14.000 -85.000 150.000 121.000"><line x1="0.0" y1="0.0" x2="0.0" y2="0.0" stroke="none" fill="none" stroke-width="2.0" stroke-linecap="round"/><polyline points="0.0,0.0 25.000000000000004,-25.0 50.00000000000001,-50.0 70.00000000000001,-70.0 72.29401949926903,-71.53281482438189 75.00000000000001,-72.07106781186548 77.705980500731,-71.53281482438189 80.00000000000001,-70.0 100.0,-50.0 120.0,-30.0 121.53281482438189,-27.705980500730984 122.07106781186548,-25.0 121.53281482438189,-22.294019499269016 120.0,-20.0 100.0,-1.0658141036401503e-14" stroke="#ff6b6b" fill="none" stroke-width="3.0" stroke-linecap="round" stroke-linejoin="round"/><polyline points="0.0,0.0 19.99999999999999,19.999999999999993 22.294019499269,21.532814824381873 24.999999999999986,22.071067811865465 27.70598050073097,21.532814824381873 29.999999999999986,19.999999999999993 49.99999999999998,3.552713678800501e-15 69.99999999999997,-19.999999999999986 72.29401949926898,-21.532814824381866 74.99999999999997,-22.071067811865458 77.70598050073096,-21.532814824381866 79.99999999999997,-19.999999999999986 99.99999999999996,7.105427357601002e-15" stroke="#1e90ff" fill="none" stroke-width="3.0" stroke-linecap="round" stroke-linejoin="round"/><polyline points="0.0,0.0 4.999999999999997,1.1102230246251565e-15 24.999999999999986,5.551115123125783e-15 44.99999999999997,9.992007221626409e-15 47.49999999999997,-0.6698729810777957 49.33012701892216,-2.499999999999987 49.99999999999997,-4.999999999999986 49.99999999999998,-24.99999999999998 49.999999999999986,-44.99999999999997 50.669872981077795,-47.49999999999997 52.499999999999986,-49.33012701892216 54.999999999999986,-49.99999999999997 74.99999999999999,-49.99999999999997 94.99999999999999,-49.99999999999997 97.49999999999999,-49.33012701892216 99.33012701892218,-47.49999999999997 99.99999999999999,-44.99999999999997 99.99999999999999,-24.99999999999997 99.99999999999999,-4.999999999999972 99.99999999999999,2.842170943040401e-14" stroke="#000" fill="none" stroke-linecap="round" stroke-linejoin="round"/><polygon points="99.99999999999999,2.842170943040401e-14 104.99999999999999,-8.999999999999972 99.99999999999999,-6.999999999999972 94.99999999999999,-8.999999999999972" stroke="#000" fill="#000" fill-rule="evenodd" stroke-linejoin="round"/></svg>