<?xml version="1.0" ?><!DOCTYPE svg  PUBLIC '-//W3C//DTD SVG 1.1//EN'  'http://www.w3.org/Graphics/SVG/1.1/DTD/svg11.dtd'><svg xmlns="http://www.w3.org/2000/svg" width="139.000" height="124.000" viewBox="-14.000 -99.000 139.000 124.000"><line x1="0.0" y1="0.0" x2="0.0" y2="0.0" stroke="none" fill="none" stroke-width="2.0" stroke-linecap="round"/><polyline points="0.0,0.0 12.500000000000002,-12.5 25.000000000000004,-25.0 37.50000000000001,-37.5 50.00000000000001,-50.0 62.50000000000001,-62.5 75.00000000000001,-75.0 85.00000000000001,-85.0 86.58493649053892,-85.91506350946109 88.41506350946112,-85.91506350946109 90.00000000000003,-85.0 100.00000000000003,-75.0 110.00000000000003,-65.0 110.91506350946112,-63.4150635094611 110.91506350946112,-61.58493649053891 110.00000000000003,-60.00000000000001 100.00000000000003,-50.0 90.00000000000003,-39.99999999999999 89.08493649053894,-38.41506350946109 89.08493649053894,-36.5849364905389 90.00000000000003,-35.0 100.00000000000003,-25.0 110.00000000000003,-14.999999999999998 110.91506350946112,-13.415063509461095 110.91506350946112,-11.584936490538901 110.00000000000003,-9.999999999999996 100.00000000000003,1.2434497875801753e-14" stroke="#ff6b6b" fill="none" stroke-width="3.0" stroke-linecap="round" stroke-linejoin="round"/><polyline points="0.0,0.0 10.000000000000007,10.000000000000002 11.584936490538912,10.915063509461099 13.415063509461106,10.915063509461099 15.00000000000001,10.000000000000002 25.00000000000002,-1.7763568394002505e-15 35.00000000000003,-10.000000000000005 36.58493649053894,-10.915063509461103 38.41506350946113,-10.915063509461103 40.00000000000003,-10.000000000000005 50.000000000000036,1.7763568394002505e-15 60.00000000000004,10.000000000000009 61.58493649053895,10.915063509461106 63.41506350946115,10.915063509461106 65.00000000000006,10.000000000000009 75.00000000000007,3.552713678800501e-15 85.00000000000009,-10.000000000000002 86.584936490539,-10.915063509461099 88.41506350946119,-10.915063509461099 90.0000000000001,-10.000000000000002 100.00000000000011,8.881784197001252e-15" stroke="#1e90ff" fill="none" stroke-width="3.0" stroke-linecap="round" stroke-linejoin="round"/><polyline points="0.0,0.0 2.500000000000002,5.551115123125783e-16 12.50000000000001,2.7755575615628914e-15 22.50000000000002,4.9960036108132044e-15 23.75000000000002,-0.33493649053889835 24.66506350946112,-1.2499999999999956 25.000000000000025,-2.4999999999999964 25.00000000000003,-12.500000000000007 25.000000000000032,-22.500000000000018 25.334936490538936,-23.750000000000018 26.250000000000036,-24.665063509461113 27.500000000000036,-25.000000000000018 37.50000000000005,-25.000000000000018 47.500000000000064,-25.000000000000018 48.750000000000064,-24.665063509461113 49.66506350946116,-23.750000000000014 50.000000000000064,-22.500000000000014 50.000000000000064,-12.499999999999998 50.000000000000064,-2.4999999999999822 50.334936490538965,-1.2499999999999802 51.250000000000064,-0.3349364905388821 52.500000000000064,2.2093438190040615e-14 62.500000000000085,2.4313884239290928e-14 72.5000000000001,2.653433028854124e-14 73.7500000000001,-0.3349364905388771 74.66506350946119,-1.2499999999999751 75.0000000000001,-2.499999999999977 75.0000000000001,-12.499999999999995 75.0000000000001,-22.500000000000014 74.66506350946119,-23.750000000000018 73.7500000000001,-24.665063509461117 72.5000000000001,-25.00000000000002 62.500000000000085,-25.00000000000003 52.50000000000007,-25.000000000000036 51.25000000000007,-25.33493649053894 50.33493649053897,-26.25000000000004 50.00000000000007,-27.500000000000043 50.00000000000008,-37.50000000000006 50.000000000000085,-47.50000000000007 50.33493649053899,-48.75000000000007 51.25000000000009,-49.66506350946117 52.50000000000009,-50.00000000000007 62.500000000000114,-50.00000000000007" stroke="#000" fill="none" stroke-linecap="round" stroke-linejoin="round"/><polyline points="62.500000000000114,-50.00000000000007 72.50000000000013,-50.00000000000007 73.75000000000013,-50.33493649053897 74.66506350946122,-51.25000000000007 75.00000000000013,-52.50000000000007 75.00000000000013,-62.50000000000009 75.00000000000013,-72.50000000000011 75.33493649053904,-73.75000000000011 76.25000000000013,-74.6650635094612 77.50000000000013,-75.00000000000011 87.50000000000014,-75.00000000000011 97.50000000000016,-75.00000000000011 98.75000000000016,-74.6650635094612 99.66506350946125,-73.75000000000011 100.00000000000016,-72.50000000000011 100.00000000000016,-62.50000000000009 100.00000000000016,-52.50000000000007 99.66506350946125,-51.25000000000007 98.75000000000016,-50.33493649053897 97.50000000000016,-50.00000000000007 87.50000000000014,-50.00000000000007 77.50000000000011,-50.00000000000007 76.25000000000011,-49.66506350946117 75.33493649053902,-48.75000000000007 75.00000000000011,-47.50000000000007 75.00000000000011,-37.50000000000005 75.00000000000011,-27.50000000000003 75.33493649053902,-26.250000000000025 76.25000000000011,-25.334936490538926 77.50000000000011,-25.00000000000002 87.50000000000014,-25.000000000000018 97.50000000000017,-25.000000000000014 98.75000000000017,-24.66506350946111 99.66506350946126,-23.75000000000001 100.00000000000017,-22.500000000000007 100.00000000000017,-12.499999999999982 100.00000000000017,-2.4999999999999574 100.00000000000017,4.884981308350689e-14" stroke="#000" fill="none" stroke-linecap="round" stroke-linejoin="round"/><polygon points="100.00000000000017,4.884981308350689e-14 105.00000000000017,-8.99999999999995 100.00000000000017,-6.999999999999951 95.00000000000017,-8.99999999999995" stroke="#000" fill="#000" fill-rule="evenodd" stroke-linejoin="round"/></svg>