<?xml version="1.0" ?><!DOCTYPE svg  PUBLIC '-//W3C//DTD SVG 1.1//EN'  'http://www.w3.org/Graphics/SVG/1.1/DTD/svg11.dtd'><svg xmlns="http://www.w3.org/2000/svg" width="133.000" height="125.000" viewBox="-14.000 -106.000 133.000 125.000"><line x1="0.0" y1="0.0" x2="0.0" y2="0.0" stroke="none" fill="none" stroke-width="2.0" stroke-linecap="round"/><polygon points="0.0,0.0 0.0,0.0 0.0,0.0" fill="none" fill-rule="evenodd" stroke-linejoin="round"/><polyline points="0.0,0.0 6.250000000000001,-6.25 12.500000000000002,-12.5 18.750000000000004,-18.75 25.000000000000004,-25.0 31.250000000000004,-31.25 37.50000000000001,-37.5 43.75000000000001,-43.75 50.00000000000001,-50.0 56.25000000000001,-56.25 62.50000000000001,-62.5 68.75000000000001,-68.75 75.00000000000001,-75.0 81.25000000000001,-81.25 87.50000000000001,-87.5 92.50000000000001,-92.5 93.29246824526946,-92.95753175473055 94.20753175473055,-92.95753175473055 95.0,-92.5 100.0,-87.5 105.0,-82.5 105.45753175473055,-81.70753175473055 105.45753175473055,-80.79246824526946 105.0,-80.00000000000001 100.0,-75.00000000000001 95.0,-70.00000000000001 94.54246824526945,-69.20753175473057 94.54246824526945,-68.29246824526948 95.0,-67.50000000000003 100.0,-62.50000000000003 105.0,-57.50000000000003 105.45753175473055,-56.707531754730574 105.45753175473055,-55.792468245269475 105.0,-55.00000000000002 100.0,-50.000000000000014 95.0,-45.00000000000001 94.54246824526945,-44.20753175473055 94.54246824526945,-43.292468245269454 95.0,-42.5 100.0,-37.5 105.0,-32.5 105.45753175473055,-31.70753175473055 105.45753175473055,-30.792468245269454" stroke="#ff6b6b" fill="none" stroke-width="3.0" stroke-linecap="round" stroke-linejoin="round"/><polyline points="105.45753175473055,-30.792468245269454 105.0,-30.000000000000004 100.0,-25.0 95.0,-19.999999999999996 94.54246824526945,-19.207531754730546 94.54246824526945,-18.29246824526945 95.0,-17.5 100.0,-12.499999999999998 105.0,-7.4999999999999964 105.45753175473055,-6.707531754730544 105.45753175473055,-5.792468245269447 105.0,-4.999999999999995 100.0,8.881784197001252e-15" stroke="#ff6b6b" fill="none" stroke-width="3.0" stroke-linecap="round" stroke-linejoin="round"/><polyline points="0.0,0.0 5.0000000000000036,5.000000000000001 5.792468245269456,5.4575317547305495 6.707531754730553,5.4575317547305495 7.500000000000005,5.000000000000001 12.50000000000001,-8.881784197001252e-16 17.500000000000014,-5.000000000000003 18.29246824526947,-5.457531754730551 19.207531754730564,-5.457531754730551 20.000000000000014,-5.000000000000003 25.000000000000018,8.881784197001252e-16 30.00000000000002,5.000000000000004 30.792468245269475,5.457531754730553 31.707531754730574,5.457531754730553 32.50000000000003,5.000000000000004 37.500000000000036,1.7763568394002505e-15 42.50000000000004,-5.000000000000001 43.2924682452695,-5.4575317547305495 44.207531754730596,-5.4575317547305495 45.00000000000005,-5.000000000000001 50.00000000000006,4.440892098500626e-15 55.000000000000064,5.00000000000001 55.79246824526952,5.457531754730558 56.70753175473062,5.457531754730558 57.50000000000007,5.00000000000001 62.50000000000008,7.105427357601002e-15 67.50000000000009,-4.999999999999996 68.29246824526953,-5.457531754730544 69.20753175473062,-5.457531754730544 70.00000000000007,-4.999999999999996 75.00000000000007,1.1546319456101628e-14 80.00000000000007,5.000000000000019 80.79246824526952,5.457531754730567 81.70753175473061,5.457531754730567 82.50000000000006,5.000000000000019 87.50000000000007,1.4210854715202004e-14 92.50000000000009,-4.99999999999999 93.29246824526953,-5.457531754730539 94.20753175473062,-5.457531754730539 95.00000000000007,-4.99999999999999 100.00000000000009,1.7763568394002505e-14" stroke="#1e90ff" fill="none" stroke-width="3.0" stroke-linecap="round" stroke-linejoin="round"/><polyline points="0.0,0.0 1.2500000000000018,1.3877787807814457e-16 6.250000000000009,6.938893903907228e-16 11.250000000000016,1.2490009027033011e-15 11.875000000000016,-0.16746824526945056 12.332531754730566,-0.6249999999999993 12.500000000000018,-1.25 12.50000000000002,-6.250000000000007 12.500000000000021,-11.250000000000014 12.667468245269474,-11.875000000000014 13.125000000000023,-12.332531754730564 13.750000000000025,-12.500000000000016 18.750000000000032,-12.500000000000016 23.75000000000004,-12.500000000000016 24.37500000000004,-12.332531754730564 24.83253175473059,-11.875000000000014 25.00000000000004,-11.250000000000012 25.00000000000004,-6.2500000000000036 25.00000000000004,-1.2499999999999947 25.16746824526949,-0.6249999999999937 25.62500000000004,-0.1674682452694446 26.25000000000004,7.466249840604178e-15 31.25000000000005,8.021361352916756e-15 36.25000000000006,8.576472865229334e-15 36.87500000000006,-0.1674682452694433 37.3325317547306,-0.6249999999999922 37.50000000000006,-1.2499999999999933 37.50000000000006,-6.250000000000002 37.50000000000006,-11.25000000000001 37.3325317547306,-11.875000000000012 36.87500000000006,-12.332531754730562 36.25000000000006,-12.500000000000014 31.25000000000005,-12.500000000000018 26.250000000000043,-12.500000000000021 25.625000000000043,-12.667468245269474 25.167468245269493,-13.125000000000023 25.000000000000043,-13.750000000000025 25.000000000000046,-18.750000000000036 25.00000000000005,-23.750000000000043 25.167468245269504,-24.375000000000043 25.625000000000053,-24.832531754730592 26.250000000000053,-25.000000000000043 31.250000000000064,-25.000000000000043" stroke="#000" fill="none" stroke-linecap="round" stroke-linejoin="round"/><polyline points="31.250000000000064,-25.000000000000043 36.25000000000007,-25.000000000000043 36.87500000000007,-25.167468245269493 37.33253175473062,-25.625000000000043 37.50000000000007,-26.250000000000043 37.50000000000007,-31.250000000000053 37.50000000000007,-36.250000000000064 37.667468245269525,-36.875000000000064 38.12500000000007,-37.33253175473061 38.75000000000007,-37.500000000000064 43.75000000000008,-37.500000000000064 48.750000000000085,-37.500000000000064 49.375000000000085,-37.33253175473061 49.83253175473063,-36.875000000000064 50.000000000000085,-36.250000000000064 50.000000000000085,-31.250000000000053 50.000000000000085,-26.250000000000043 49.83253175473063,-25.625000000000043 49.375000000000085,-25.167468245269493 48.750000000000085,-25.000000000000043 43.75000000000007,-25.000000000000043 38.75000000000006,-25.000000000000043 38.12500000000006,-24.832531754730592 37.66746824526951,-24.375000000000043 37.50000000000006,-23.750000000000043 37.50000000000006,-18.750000000000032 37.50000000000006,-13.750000000000021 37.66746824526951,-13.12500000000002 38.12500000000006,-12.66746824526947 38.75000000000006,-12.500000000000018 43.75000000000007,-12.500000000000016 48.750000000000085,-12.500000000000014 49.375000000000085,-12.332531754730562 49.83253175473063,-11.875000000000012 50.000000000000085,-11.25000000000001 50.000000000000085,-6.249999999999998 50.000000000000085,-1.2499999999999858 50.16746824526954,-0.6249999999999843 50.625000000000085,-0.16746824526943482 51.250000000000085,1.7458257062230587e-14 56.2500000000001,1.912359159916832e-14 61.250000000000114,2.0788926136106056e-14 61.875000000000114,-0.16746824526943108" stroke="#000" fill="none" stroke-linecap="round" stroke-linejoin="round"/><polyline points="61.875000000000114,-0.16746824526943108 62.33253175473067,-0.6249999999999803 62.50000000000012,-1.2499999999999818 62.50000000000012,-6.249999999999995 62.50000000000012,-11.250000000000007 62.667468245269575,-11.875000000000009 63.12500000000013,-12.332531754730558 63.75000000000013,-12.50000000000001 68.75000000000014,-12.500000000000009 73.75000000000016,-12.500000000000007 74.37500000000016,-12.332531754730555 74.83253175473071,-11.875000000000005 75.00000000000016,-11.250000000000004 75.00000000000016,-6.249999999999989 75.00000000000016,-1.2499999999999751 75.1674682452696,-0.6249999999999734 75.62500000000016,-0.1674682452694236 76.25000000000016,2.883804306463844e-14 81.25000000000017,3.1336044870045043e-14 86.25000000000018,3.3834046675451646e-14 86.87500000000018,-0.16746824526941798 87.33253175473074,-0.6249999999999672 87.50000000000018,-1.249999999999969 87.50000000000018,-6.249999999999983 87.50000000000018,-11.249999999999996 87.33253175473074,-11.874999999999998 86.87500000000018,-12.332531754730548 86.25000000000018,-12.5 81.25000000000017,-12.500000000000005 76.25000000000016,-12.50000000000001 75.62500000000016,-12.667468245269463 75.1674682452696,-13.125000000000012 75.00000000000016,-13.750000000000014 75.00000000000016,-18.750000000000032 75.00000000000016,-23.75000000000005 74.83253175473071,-24.375000000000053 74.37500000000016,-24.832531754730603 73.75000000000016,-25.000000000000057 68.75000000000014,-25.00000000000006 63.75000000000013,-25.000000000000064 63.12500000000013,-24.832531754730613 62.667468245269575,-24.375000000000064 62.50000000000012,-23.75000000000006" stroke="#000" fill="none" stroke-linecap="round" stroke-linejoin="round"/><polyline points="62.50000000000012,-23.75000000000006 62.500000000000114,-18.750000000000043 62.50000000000011,-13.750000000000025 62.33253175473065,-13.125000000000023 61.8750000000001,-12.667468245269474 61.2500000000001,-12.500000000000021 56.250000000000085,-12.500000000000025 51.25000000000007,-12.500000000000028 50.62500000000007,-12.66746824526948 50.16746824526952,-13.12500000000003 50.000000000000064,-13.750000000000032 50.000000000000064,-18.75000000000005 50.000000000000064,-23.750000000000068 50.16746824526952,-24.37500000000007 50.62500000000007,-24.83253175473062 51.25000000000007,-25.00000000000007 56.25000000000009,-25.000000000000068 61.250000000000114,-25.000000000000064 61.875000000000114,-25.167468245269514 62.33253175473067,-25.625000000000064 62.50000000000012,-26.250000000000068 62.50000000000012,-31.250000000000085 62.50000000000012,-36.25000000000011 62.33253175473067,-36.87500000000011 61.875000000000114,-37.33253175473066 61.250000000000114,-37.500000000000114 56.25000000000009,-37.50000000000012 51.25000000000007,-37.50000000000013 50.62500000000007,-37.66746824526958 50.16746824526952,-38.125000000000135 50.000000000000064,-38.750000000000135 50.000000000000064,-43.750000000000156 50.000000000000064,-48.75000000000018 50.16746824526952,-49.37500000000018 50.62500000000007,-49.83253175473073 51.25000000000007,-50.000000000000185 56.25000000000009,-50.000000000000185 61.250000000000114,-50.000000000000185 61.875000000000114,-50.16746824526964 62.33253175473067,-50.62500000000019 62.50000000000012,-51.25000000000019 62.50000000000013,-56.25000000000021 62.500000000000135,-61.250000000000234" stroke="#000" fill="none" stroke-linecap="round" stroke-linejoin="round"/><polyline points="62.500000000000135,-61.250000000000234 62.66746824526959,-61.875000000000234 63.12500000000014,-62.33253175473079 63.75000000000014,-62.50000000000024 68.75000000000017,-62.50000000000024 73.7500000000002,-62.50000000000024 74.3750000000002,-62.33253175473079 74.83253175473075,-61.875000000000234 75.0000000000002,-61.250000000000234 75.0000000000002,-56.25000000000021 75.0000000000002,-51.25000000000019 75.16746824526965,-50.62500000000019 75.6250000000002,-50.16746824526964 76.2500000000002,-50.000000000000185 81.25000000000023,-50.00000000000018 86.25000000000026,-50.00000000000017 86.87500000000026,-50.167468245269625 87.33253175473081,-50.62500000000018 87.50000000000026,-51.25000000000018 87.50000000000026,-56.2500000000002 87.50000000000026,-61.25000000000022 87.33253175473081,-61.87500000000022 86.87500000000026,-62.33253175473077 86.25000000000026,-62.50000000000023 81.25000000000023,-62.500000000000234 76.2500000000002,-62.50000000000024 75.6250000000002,-62.667468245269696 75.16746824526965,-63.12500000000025 75.0000000000002,-63.75000000000025 75.0000000000002,-68.75000000000027 75.0000000000002,-73.7500000000003 75.16746824526965,-74.3750000000003 75.6250000000002,-74.83253175473085 76.2500000000002,-75.0000000000003 81.25000000000023,-75.0000000000003 86.25000000000026,-75.0000000000003 86.87500000000026,-75.16746824526975 87.33253175473081,-75.6250000000003 87.50000000000026,-76.2500000000003 87.50000000000026,-81.25000000000033 87.50000000000026,-86.25000000000036 87.6674682452697,-86.87500000000036 88.12500000000026,-87.33253175473091" stroke="#000" fill="none" stroke-linecap="round" stroke-linejoin="round"/><polyline points="88.12500000000026,-87.33253175473091 88.75000000000026,-87.50000000000036 93.75000000000028,-87.50000000000036 98.75000000000031,-87.50000000000036 99.37500000000031,-87.33253175473091 99.83253175473087,-86.87500000000036 100.00000000000031,-86.25000000000036 100.00000000000031,-81.25000000000033 100.00000000000031,-76.2500000000003 99.83253175473087,-75.6250000000003 99.37500000000031,-75.16746824526975 98.75000000000031,-75.0000000000003 93.75000000000028,-75.0000000000003 88.75000000000026,-75.0000000000003 88.12500000000026,-74.83253175473085 87.6674682452697,-74.3750000000003 87.50000000000026,-73.7500000000003 87.50000000000026,-68.75000000000027 87.50000000000026,-63.75000000000024 87.6674682452697,-63.12500000000024 88.12500000000026,-62.66746824526969 88.75000000000026,-62.500000000000234 93.75000000000028,-62.50000000000023 98.75000000000031,-62.50000000000022 99.37500000000031,-62.332531754730766 99.83253175473087,-61.87500000000021 100.00000000000031,-61.25000000000021 100.00000000000031,-56.250000000000185 100.00000000000031,-51.250000000000156 99.83253175473087,-50.625000000000156 99.37500000000031,-50.1674682452696 98.75000000000031,-50.00000000000015 93.75000000000028,-50.00000000000015 88.75000000000026,-50.00000000000015 88.12500000000026,-49.832531754730695 87.6674682452697,-49.37500000000014 87.50000000000026,-48.75000000000014 87.50000000000026,-43.750000000000114 87.50000000000026,-38.750000000000085 87.33253175473081,-38.125000000000085 86.87500000000026,-37.66746824526953 86.25000000000026,-37.50000000000008 81.25000000000023,-37.50000000000008" stroke="#000" fill="none" stroke-linecap="round" stroke-linejoin="round"/><polyline points="81.25000000000023,-37.50000000000008 76.2500000000002,-37.50000000000008 75.6250000000002,-37.66746824526953 75.16746824526965,-38.125000000000085 75.0000000000002,-38.75000000000009 75.0000000000002,-43.75000000000012 75.0000000000002,-48.75000000000015 74.83253175473075,-49.375000000000156 74.3750000000002,-49.83253175473071 73.7500000000002,-50.00000000000016 68.75000000000017,-50.00000000000016 63.75000000000014,-50.00000000000016 63.125000000000135,-49.83253175473071 62.66746824526958,-49.375000000000156 62.50000000000013,-48.750000000000156 62.50000000000012,-43.75000000000013 62.500000000000114,-38.7500000000001 62.66746824526957,-38.12500000000009 63.12500000000012,-37.66746824526954 63.75000000000013,-37.500000000000085 68.75000000000016,-37.50000000000008 73.75000000000018,-37.50000000000007 74.37500000000018,-37.33253175473062 74.83253175473074,-36.875000000000064 75.00000000000018,-36.25000000000006 75.00000000000018,-31.250000000000025 75.00000000000018,-26.249999999999993 75.16746824526963,-25.62499999999999 75.62500000000018,-25.167468245269436 76.25000000000018,-24.999999999999982 81.25000000000021,-24.99999999999998 86.25000000000024,-24.999999999999975 86.87500000000024,-25.167468245269426 87.3325317547308,-25.624999999999975 87.50000000000024,-26.24999999999998 87.50000000000024,-31.250000000000014 87.50000000000024,-36.25000000000005 87.66746824526969,-36.87500000000006 88.12500000000024,-37.33253175473061 88.75000000000024,-37.500000000000064 93.75000000000027,-37.50000000000006 98.7500000000003,-37.50000000000005 99.3750000000003,-37.332531754730596" stroke="#000" fill="none" stroke-linecap="round" stroke-linejoin="round"/><polyline points="99.3750000000003,-37.332531754730596 99.83253175473085,-36.87500000000004 100.0000000000003,-36.250000000000036 100.0000000000003,-31.25 100.0000000000003,-26.249999999999964 99.83253175473085,-25.62499999999996 99.3750000000003,-25.16746824526941 98.7500000000003,-24.999999999999957 93.75000000000027,-24.99999999999996 88.75000000000024,-24.999999999999964 88.12500000000024,-24.83253175473051 87.66746824526969,-24.37499999999996 87.50000000000024,-23.749999999999957 87.50000000000024,-18.749999999999922 87.50000000000024,-13.749999999999886 87.66746824526969,-13.124999999999883 88.12500000000024,-12.667468245269331 88.75000000000024,-12.499999999999877 93.75000000000028,-12.499999999999872 98.75000000000031,-12.499999999999869 99.37500000000031,-12.332531754730415 99.83253175473087,-11.874999999999863 100.00000000000031,-11.249999999999858 100.00000000000031,-6.2499999999998215 100.00000000000031,-1.249999999999785 100.00000000000031,2.240430063693566e-13" stroke="#000" fill="none" stroke-linecap="round" stroke-linejoin="round"/></svg>